<svg width="205" height="62" viewBox="0 0 205 62" fill="none" xmlns="http://www.w3.org/2000/svg">
<rect x="0.845947" y="1" width="202.859" height="60" rx="8" fill="white" stroke="#CFCFCF"/>
<path fill-rule="evenodd" clip-rule="evenodd" d="M52.2363 29.6321C52.2003 25.3361 55.7499 23.2481 55.9058 23.1521C53.8912 20.2241 50.7733 19.8161 49.6821 19.7801C47.0679 19.5041 44.5257 21.3521 43.1946 21.3521C41.8395 21.3521 39.777 19.8161 37.5705 19.8521C34.7285 19.9001 32.0543 21.5441 30.6033 24.1121C27.5934 29.3321 29.8359 37.0121 32.7259 41.2361C34.1769 43.3001 35.8557 45.6161 38.0742 45.5321C40.2327 45.4481 41.0481 44.1521 43.6503 44.1521C46.2405 44.1521 46.996 45.5321 49.2504 45.4841C51.5768 45.4481 53.0278 43.4081 54.4308 41.3201C56.0976 38.9561 56.7692 36.6161 56.7932 36.4961C56.7332 36.4721 52.2843 34.7681 52.2363 29.6321Z" fill="black"/>
<path fill-rule="evenodd" clip-rule="evenodd" d="M47.9792 17.0081C49.1424 15.5561 49.9339 13.5761 49.718 11.5601C48.0392 11.6321 45.9286 12.7241 44.7175 14.1521C43.6502 15.4121 42.6909 17.464 42.9307 19.396C44.8254 19.54 46.7681 18.436 47.9792 17.0081Z" fill="black"/>
<path fill-rule="evenodd" clip-rule="evenodd" d="M78.3901 37.84L76.8911 33.22C76.7352 32.74 76.4354 31.636 76.0037 29.884H75.9437C75.7639 30.64 75.4881 31.756 75.1043 33.22L73.6293 37.84H78.3901ZM83.5585 45.2321H80.5366L78.8817 40.024H73.1257L71.5548 45.2321H68.6168L74.3129 27.508H77.8384L83.5585 45.2321Z" fill="black"/>
<path fill-rule="evenodd" clip-rule="evenodd" d="M95.3103 38.7881C95.3103 37.5401 95.0345 36.5201 94.4709 35.7161C93.8593 34.8761 93.0319 34.4561 92.0006 34.4561C91.3051 34.4561 90.6695 34.6961 90.0939 35.1521C89.5303 35.6201 89.1466 36.2201 88.9787 36.9761C88.8948 37.3241 88.8468 37.6121 88.8468 37.8401V39.9761C88.8468 40.9001 89.1346 41.6921 89.6982 42.3281C90.2618 42.9641 91.0053 43.2881 91.9167 43.2881C92.9839 43.2881 93.8113 42.8681 94.4109 42.0521C95.0105 41.2241 95.3103 40.1441 95.3103 38.7881ZM98.2003 38.692C98.2003 40.864 97.6127 42.58 96.4255 43.84C95.3703 44.968 94.0512 45.52 92.4923 45.52C90.8014 45.52 89.5903 44.92 88.8468 43.708V50.416H86.0048V36.652C86.0048 35.284 85.9688 33.892 85.8969 32.452H88.3911L88.547 34.48H88.595C89.5423 32.956 90.9813 32.188 92.9 32.188C94.4109 32.188 95.6581 32.788 96.6654 33.976C97.6967 35.176 98.2003 36.736 98.2003 38.692Z" fill="black"/>
<path fill-rule="evenodd" clip-rule="evenodd" d="M109.988 38.7881C109.988 37.5401 109.712 36.5201 109.149 35.7161C108.537 34.8761 107.71 34.4561 106.679 34.4561C105.983 34.4561 105.347 34.6961 104.772 35.1521C104.208 35.6201 103.837 36.2201 103.657 36.9761C103.573 37.3241 103.525 37.6121 103.525 37.8401V39.9761C103.525 40.9001 103.813 41.6921 104.376 42.3281C104.94 42.9641 105.683 43.2881 106.595 43.2881C107.662 43.2881 108.501 42.8681 109.089 42.0521C109.7 41.2241 109.988 40.1441 109.988 38.7881ZM112.878 38.692C112.878 40.864 112.291 42.58 111.103 43.84C110.048 44.968 108.729 45.52 107.17 45.52C105.479 45.52 104.268 44.92 103.525 43.708V50.416H100.683V36.652C100.683 35.284 100.647 33.892 100.575 32.452H103.069L103.225 34.48H103.273C104.22 32.956 105.659 32.188 107.578 32.188C109.089 32.188 110.336 32.788 111.343 33.976C112.375 35.176 112.878 36.736 112.878 38.692Z" fill="black"/>
<path fill-rule="evenodd" clip-rule="evenodd" d="M129.307 40.264C129.307 41.776 128.779 43 127.736 43.948C126.585 44.98 124.978 45.496 122.915 45.496C121.009 45.496 119.486 45.124 118.334 44.392L118.994 42.028C120.241 42.76 121.608 43.132 123.095 43.132C124.162 43.132 125.002 42.892 125.589 42.412C126.189 41.932 126.489 41.284 126.489 40.48C126.489 39.76 126.237 39.16 125.757 38.668C125.266 38.176 124.45 37.72 123.311 37.3C120.181 36.136 118.634 34.444 118.634 32.224C118.634 30.772 119.186 29.584 120.277 28.648C121.368 27.724 122.819 27.256 124.63 27.256C126.237 27.256 127.58 27.532 128.647 28.096L127.928 30.4C126.92 29.86 125.793 29.584 124.522 29.584C123.527 29.584 122.735 29.836 122.172 30.316C121.704 30.76 121.464 31.288 121.464 31.924C121.464 32.62 121.74 33.208 122.28 33.652C122.747 34.072 123.611 34.528 124.858 35.02C126.381 35.632 127.496 36.352 128.216 37.18C128.947 38.008 129.307 39.04 129.307 40.264Z" fill="black"/>
<path fill-rule="evenodd" clip-rule="evenodd" d="M138.708 34.5881H135.578V40.7921C135.578 42.3641 136.13 43.1561 137.233 43.1561C137.737 43.1561 138.157 43.1081 138.492 43.0241L138.576 45.1841C138.013 45.3881 137.281 45.4961 136.37 45.4961C135.243 45.4961 134.379 45.1481 133.744 44.4641C133.108 43.7801 132.796 42.6281 132.796 41.0201V34.5761H130.938V32.452H132.796V30.112L135.578 29.272V32.452H138.708V34.5881Z" fill="black"/>
<path fill-rule="evenodd" clip-rule="evenodd" d="M149.849 38.8C149.849 37.6239 149.597 36.6279 149.093 35.7879C148.494 34.7679 147.642 34.2639 146.539 34.2639C145.4 34.2639 144.524 34.7679 143.937 35.7879C143.421 36.6279 143.181 37.6479 143.181 38.86C143.181 40.036 143.433 41.044 143.937 41.872C144.548 42.892 145.412 43.396 146.515 43.396C147.594 43.396 148.446 42.88 149.069 41.848C149.585 40.984 149.849 39.976 149.849 38.8ZM152.787 38.7399C152.787 40.7079 152.223 42.3159 151.108 43.5759C149.933 44.8719 148.374 45.5199 146.431 45.5199C144.56 45.5199 143.061 44.8959 141.946 43.6599C140.831 42.4239 140.279 40.8519 140.279 38.9559C140.279 36.9759 140.855 35.3559 141.994 34.0959C143.145 32.8359 144.692 32.2 146.635 32.2C148.506 32.2 150.016 32.8239 151.156 34.0719C152.247 35.2719 152.787 36.8319 152.787 38.7399Z" fill="black"/>
<path fill-rule="evenodd" clip-rule="evenodd" d="M162.02 34.948C161.744 34.9 161.444 34.876 161.121 34.876C160.125 34.876 159.346 35.248 158.806 36.004C158.339 36.664 158.099 37.516 158.099 38.524V45.2319H155.257V36.472C155.257 34.996 155.233 33.652 155.173 32.452H157.643L157.751 34.9H157.835C158.135 34.06 158.602 33.376 159.25 32.872C159.885 32.416 160.569 32.188 161.3 32.188C161.564 32.188 161.804 32.212 162.008 32.236L162.02 34.948Z" fill="black"/>
<path fill-rule="evenodd" clip-rule="evenodd" d="M171.997 37.504C172.021 36.664 171.829 35.932 171.445 35.32C170.954 34.528 170.198 34.132 169.191 34.132C168.268 34.132 167.512 34.516 166.937 35.284C166.469 35.896 166.181 36.64 166.097 37.492L171.997 37.504ZM174.707 38.236C174.707 38.74 174.671 39.172 174.599 39.52H166.085C166.121 40.78 166.529 41.752 167.32 42.412C168.04 43 168.963 43.3 170.102 43.3C171.361 43.3 172.513 43.096 173.544 42.7L173.988 44.668C172.777 45.196 171.349 45.46 169.707 45.46C167.728 45.46 166.169 44.872 165.042 43.708C163.915 42.544 163.351 40.972 163.351 39.016C163.351 37.096 163.879 35.488 164.934 34.204C166.037 32.836 167.524 32.152 169.395 32.152C171.23 32.152 172.633 32.836 173.568 34.204C174.324 35.308 174.707 36.64 174.707 38.236Z" fill="black"/>
<path fill-rule="evenodd" clip-rule="evenodd" d="M74.4689 17.5359L73.7374 15.256C73.6655 15.028 73.5216 14.476 73.2937 13.612H73.2698C73.1738 13.984 73.0539 14.524 72.8501 15.256L72.1306 17.5359H74.4689ZM77.0231 21.172H75.5361L74.7207 18.616H71.8907L71.1113 21.172H69.6723L72.4663 12.46H74.1931L77.0231 21.172Z" fill="black"/>
<path fill-rule="evenodd" clip-rule="evenodd" d="M84.0262 14.884L81.6519 21.172H80.2968L77.9944 14.884H79.4934L80.5606 18.208C80.7405 18.76 80.8964 19.288 81.0163 19.792H81.0523C81.1602 19.336 81.3161 18.808 81.508 18.208L82.5632 14.884H84.0262Z" fill="black"/>
<path fill-rule="evenodd" clip-rule="evenodd" d="M88.8958 18.04C87.3489 18.04 86.5694 18.412 86.5694 19.312C86.5694 19.972 86.9651 20.296 87.5287 20.296C88.2363 20.296 88.8958 19.756 88.8958 19.012V18.04ZM89.0867 21.172L88.9787 20.452H88.9428C88.5111 21.028 87.8995 21.316 87.108 21.316C85.9808 21.316 85.1894 20.524 85.1894 19.468C85.1894 17.92 86.5324 17.116 88.8588 17.116V16.996C88.8588 16.168 88.4151 15.76 87.5517 15.76C86.9282 15.76 86.3885 15.916 85.9089 16.228L85.6211 15.316C86.1967 14.956 86.9282 14.776 87.7796 14.776C89.4224 14.776 90.2498 15.64 90.2498 17.38V19.696C90.2498 20.332 90.2738 20.824 90.3458 21.196L89.0867 21.172Z" fill="black"/>
<mask id="mask0" mask-type="alpha" maskUnits="userSpaceOnUse" x="0" y="1" width="204" height="60">
<path fill-rule="evenodd" clip-rule="evenodd" d="M0.845947 61H203.205V1H0.845947V61Z" fill="white"/>
</mask>
<g mask="url(#mask0)">
<path fill-rule="evenodd" clip-rule="evenodd" d="M92.6843 21.16H94.0753V14.884H92.6843V21.16ZM93.3557 13.852C92.8881 13.852 92.5283 13.492 92.5283 13.012C92.5283 12.532 92.9001 12.184 93.3797 12.184C93.8594 12.184 94.2431 12.532 94.2311 13.012C94.2311 13.516 93.8714 13.852 93.3557 13.852Z" fill="black"/>
<path fill-rule="evenodd" clip-rule="evenodd" d="M96.5575 21.16H97.9495V12.004H96.5575V21.16Z" fill="black"/>
<path fill-rule="evenodd" clip-rule="evenodd" d="M103.682 18.04C102.135 18.04 101.355 18.412 101.355 19.312C101.355 19.972 101.751 20.296 102.315 20.296C103.022 20.296 103.682 19.756 103.682 19.012V18.04ZM103.872 21.172L103.765 20.452H103.729C103.297 21.028 102.685 21.316 101.894 21.316C100.767 21.316 99.9752 20.524 99.9752 19.468C99.9752 17.92 101.318 17.116 103.645 17.116V16.996C103.645 16.168 103.201 15.76 102.338 15.76C101.714 15.76 101.174 15.916 100.695 16.228L100.407 15.304C100.982 14.944 101.714 14.764 102.565 14.764C104.208 14.764 105.036 15.628 105.036 17.368V19.684C105.036 20.32 105.06 20.812 105.12 21.184H103.872V21.172Z" fill="black"/>
<path fill-rule="evenodd" clip-rule="evenodd" d="M110.408 15.856C109.604 15.856 108.873 16.552 108.873 17.524V18.628C108.873 19.492 109.533 20.2 110.384 20.2C111.427 20.2 112.051 19.348 112.051 17.992C112.051 16.72 111.403 15.856 110.408 15.856ZM110.696 21.3159C109.808 21.3159 109.149 20.9439 108.717 20.1999H108.693L108.609 21.1719H107.422C107.458 20.6679 107.47 20.1039 107.47 19.4799V12.004H108.873V15.8079H108.897C109.317 15.112 109.976 14.764 110.9 14.764C112.411 14.764 113.466 16.0599 113.466 17.9439C113.466 19.8879 112.291 21.3159 110.696 21.3159Z" fill="black"/>
<path fill-rule="evenodd" clip-rule="evenodd" d="M115.528 21.16H116.92V12.004H115.528V21.16Z" fill="black"/>
<path fill-rule="evenodd" clip-rule="evenodd" d="M123.24 17.3679C123.24 16.3959 122.748 15.7119 121.861 15.7119C121.057 15.7119 120.434 16.4079 120.338 17.3679H123.24ZM124.51 18.364H120.325C120.349 19.552 121.14 20.224 122.304 20.224C122.927 20.224 123.491 20.116 123.994 19.924L124.21 20.896C123.623 21.16 122.927 21.28 122.112 21.28C120.145 21.28 118.982 20.044 118.982 18.1119C118.982 16.1919 120.169 14.7399 121.956 14.7399C123.551 14.7399 124.57 15.9279 124.57 17.7279C124.57 17.9799 124.558 18.1959 124.51 18.364Z" fill="black"/>
<path fill-rule="evenodd" clip-rule="evenodd" d="M133.025 15.784C132.018 15.784 131.37 16.732 131.37 18.04C131.37 19.336 132.03 20.272 133.013 20.272C133.997 20.272 134.656 19.264 134.656 18.004C134.644 16.732 134.009 15.784 133.025 15.784ZM132.964 21.316C131.13 21.316 129.942 19.948 129.942 18.088C129.942 16.144 131.153 14.764 133.072 14.764C134.883 14.764 136.094 16.072 136.094 17.98C136.094 19.936 134.847 21.316 132.964 21.316Z" fill="black"/>
<path fill-rule="evenodd" clip-rule="evenodd" d="M143.589 21.172H142.198V17.56C142.198 16.444 141.766 15.892 140.927 15.892C140.099 15.892 139.536 16.6 139.536 17.428V21.16H138.145V16.684C138.145 16.132 138.133 15.532 138.097 14.884H139.32L139.38 15.856H139.416C139.787 15.184 140.555 14.752 141.406 14.752C142.725 14.752 143.589 15.76 143.589 17.404V21.172Z" fill="black"/>
<path fill-rule="evenodd" clip-rule="evenodd" d="M152.715 15.94H151.18V18.988C151.18 19.768 151.455 20.152 151.995 20.152C152.235 20.152 152.451 20.128 152.619 20.092L152.655 21.148C152.379 21.256 152.019 21.304 151.575 21.304C150.472 21.304 149.825 20.692 149.825 19.108V15.94H148.913V14.896H149.825V13.744L151.192 13.324V14.884H152.727V15.94" fill="black"/>
<path fill-rule="evenodd" clip-rule="evenodd" d="M160.101 21.172H158.71V17.584C158.71 16.456 158.279 15.892 157.439 15.892C156.72 15.892 156.048 16.384 156.048 17.38V21.16H154.657V12.004H156.048V15.772H156.072C156.516 15.088 157.139 14.752 157.955 14.752C159.286 14.752 160.101 15.784 160.101 17.428V21.172Z" fill="black"/>
<path fill-rule="evenodd" clip-rule="evenodd" d="M165.954 17.3679C165.954 16.3959 165.463 15.7119 164.575 15.7119C163.772 15.7119 163.136 16.4079 163.052 17.3679H165.954ZM167.224 18.364H163.039C163.063 19.552 163.855 20.224 165.018 20.224C165.641 20.224 166.205 20.116 166.709 19.924L166.925 20.896C166.337 21.16 165.641 21.28 164.826 21.28C162.859 21.28 161.696 20.044 161.696 18.1119C161.696 16.1919 162.883 14.7399 164.67 14.7399C166.265 14.7399 167.284 15.9279 167.284 17.7279C167.284 17.9799 167.272 18.1959 167.224 18.364Z" fill="black"/>
</g>
</svg>
