<svg width="203" height="60" viewBox="0 0 203 60" fill="none" xmlns="http://www.w3.org/2000/svg">
<path d="M165.202 0.000194999H14.302C13.7519 0.000194999 13.2085 0.000194999 12.6599 0.00319499C12.2007 0.00619498 11.7451 0.01491 11.2815 0.0222449C10.2742 0.0340976 9.26938 0.122709 8.27562 0.287309C7.28326 0.455492 6.32199 0.772566 5.42431 1.22781C4.52773 1.6869 3.70851 2.28344 2.99635 2.99579C2.28045 3.70614 1.68369 4.5272 1.22902 5.42742C0.773098 6.32584 0.456959 7.28858 0.291524 8.28239C0.124516 9.27494 0.0346475 10.2789 0.0227249 11.2854C0.00880497 11.7453 0.00733498 12.2067 0 12.6667V47.3379C0.00733498 47.8037 0.00880497 48.2549 0.0227249 48.7208C0.0346511 49.7272 0.12452 50.7311 0.291524 51.7236C0.456502 52.718 0.77266 53.6813 1.22902 54.5801C1.68348 55.4774 2.28032 56.2951 2.99635 57.0015C3.70581 57.717 4.52556 58.314 5.42431 58.7696C6.32198 59.226 7.28315 59.545 8.27562 59.7158C9.26955 59.879 10.2743 59.9677 11.2815 59.9809C11.7451 59.9911 12.2007 59.997 12.6599 59.997C13.2085 60 13.752 60 14.302 60H165.202C165.741 60 166.289 60 166.828 59.997C167.285 59.997 167.753 59.9911 168.21 59.9809C169.216 59.9684 170.219 59.8797 171.21 59.7158C172.206 59.5438 173.171 59.2249 174.073 58.7696C174.971 58.3137 175.79 57.7168 176.499 57.0015C177.213 56.2923 177.811 55.4752 178.271 54.5801C178.724 53.6807 179.037 52.7174 179.2 51.7236C179.367 50.731 179.46 49.7273 179.478 48.7208C179.484 48.2549 179.484 47.8037 179.484 47.3379C179.496 46.793 179.496 46.251 179.496 45.6972V14.3043C179.496 13.755 179.496 13.2101 179.484 12.6667C179.484 12.2067 179.484 11.7453 179.478 11.2853C179.46 10.2788 179.367 9.27502 179.2 8.28233C179.037 7.28909 178.723 6.32643 178.271 5.42736C177.345 3.62298 175.877 2.15423 174.073 1.22767C173.171 0.773544 172.206 0.456554 171.21 0.287174C170.219 0.121849 169.216 0.0332065 168.21 0.0220349C167.753 0.014715 167.285 0.00592498 166.828 0.00299999C166.289 0 165.741 0 165.202 0V0.000194999Z" fill="#A6A6A6"/>
<path d="M13.9709 58.997C13.449 58.997 12.9397 58.9911 12.4218 58.9807C11.3491 58.9684 10.2789 58.8857 9.2199 58.7334C8.23248 58.5829 7.27593 58.3029 6.38182 57.9027C5.4959 57.5058 4.68787 56.9853 3.98868 56.3613C3.27937 55.7446 2.68884 55.0293 2.24049 54.2438C1.7872 53.4532 1.47349 52.6058 1.3103 51.731C1.13407 50.7911 1.03872 49.8407 1.02508 48.8881C1.01422 48.5683 1 47.5036 1 47.5036V12.4771C1 12.4771 1.01514 11.4287 1.02516 11.1207C1.03823 10.1696 1.13302 9.22064 1.30873 8.28219C1.47222 7.40506 1.78617 6.5552 2.2397 5.76201C2.68641 4.97707 3.27366 4.26126 3.97869 3.64236C4.68293 3.01757 5.49355 2.49443 6.38098 2.09203C7.27304 1.69307 8.22778 1.41505 9.2132 1.26727C10.2756 1.11347 11.3496 1.03032 12.4261 1.01851L13.9718 1H190.02L191.584 1.01926C192.651 1.03048 193.715 1.11289 194.768 1.26579C195.763 1.41542 196.728 1.69538 197.63 2.09647C199.408 2.90743 200.854 4.19046 201.767 5.76571C202.213 6.55342 202.522 7.39636 202.684 8.26591C202.862 9.21205 202.961 10.1684 202.981 11.1274C202.986 11.5568 202.986 12.0181 202.986 12.4771C203 13.0457 203 13.5869 203 14.1325V45.8658C203 46.4167 203 46.9542 202.986 47.4961C202.986 47.9892 202.986 48.4409 202.98 48.9058C202.96 49.8477 202.862 50.787 202.687 51.7162C202.527 52.5972 202.215 53.4513 201.762 54.2483C201.31 55.0253 200.723 55.7344 200.022 56.3494C199.322 56.9768 198.513 57.5003 197.625 57.8998C196.725 58.3031 195.762 58.5841 194.768 58.7334C193.709 58.8865 192.638 58.9692 191.566 58.9807C191.064 58.9911 190.538 58.997 190.028 58.997L188.171 59L13.9709 58.997Z" fill="black"/>
<path fill-rule="evenodd" clip-rule="evenodd" d="M124.061 43.6142C121.609 43.6142 119.815 42.4014 119.608 40.5542L116.755 40.5541C116.935 43.9232 119.724 46.0546 123.855 46.0546C128.27 46.0546 131.045 43.872 131.045 40.3871C131.045 37.6626 129.458 36.1274 125.636 35.2236L123.584 34.7197C121.183 34.1265 120.201 33.3516 120.201 32.0347C120.201 30.3823 121.738 29.2471 123.984 29.2471C126.229 29.2471 127.766 30.3691 127.934 32.228H130.748C130.657 29.0142 127.959 26.8066 124.023 26.8066C120.046 26.8066 117.245 29.0142 117.245 32.228C117.245 34.8237 118.833 36.4233 122.254 37.2495L124.668 37.831C127.082 38.4243 128.101 39.29 128.101 40.7358C128.101 42.4013 126.411 43.6142 124.061 43.6142ZM75.4959 40.7095H68.3958L66.6908 45.7441H63.6834L70.4085 27.1172H73.533L80.2581 45.7441H77.1995L75.4959 40.7095ZM69.1312 38.3863H74.7592L71.9848 30.2154H71.9071L69.1312 38.3863ZM89.1145 45.8862C92.5232 45.8862 94.782 43.1748 94.782 38.9546C94.782 34.7461 92.5099 32.0215 89.0632 32.0215C87.2897 31.9643 85.6283 32.8868 84.739 34.4224H84.6878V32.1636H81.9895V50.2368H84.7771V43.5102H84.8416C85.693 45.0555 87.3526 45.9784 89.1145 45.8862ZM91.9167 38.9547C91.9167 36.2052 90.4958 34.3975 88.3279 34.3975C86.198 34.3975 84.7654 36.2432 84.7654 38.9547C84.7654 41.691 86.198 43.5235 88.3279 43.5235C90.4959 43.5235 91.9167 41.7291 91.9167 38.9547ZM104.062 45.8862C107.47 45.8862 109.729 43.1748 109.729 38.9546C109.729 34.7461 107.457 32.0215 104.01 32.0215C102.237 31.9643 100.575 32.8868 99.6862 34.4224H99.6349V32.1636H96.9367V50.2368H99.7243V43.5102H99.7888C100.64 45.0555 102.3 45.9784 104.062 45.8862ZM106.864 38.9547C106.864 36.2052 105.443 34.3975 103.275 34.3975C101.145 34.3975 99.7126 36.2432 99.7126 38.9547C99.7126 41.691 101.145 43.5235 103.275 43.5235C105.443 43.5235 106.864 41.7291 106.864 38.9547ZM137.062 28.9498V32.1637H139.644V34.3712H137.062V41.858C137.062 43.021 137.579 43.563 138.714 43.563C139.021 43.5577 139.327 43.5362 139.631 43.4985V45.6929C139.121 45.7882 138.602 45.8314 138.083 45.8218C135.333 45.8218 134.261 44.7891 134.261 42.1553V34.3712H132.286V32.1637H134.261V28.9498H137.062ZM147.581 31.9967C143.656 31.9967 141.14 34.6817 141.14 38.9546C141.14 43.2393 143.631 45.9126 147.581 45.9126C151.531 45.9126 154.023 43.2393 154.023 38.9546C154.023 34.6817 151.518 31.9967 147.581 31.9967ZM151.183 38.9546C151.183 36.0235 149.839 34.2935 147.581 34.2935C145.322 34.2935 143.98 36.0367 143.98 38.9546C143.98 41.8975 145.322 43.6143 147.581 43.6143C149.839 43.6143 151.183 41.8975 151.183 38.9546ZM158.98 32.1637H156.321L156.321 45.7442H159.109V37.689C159.016 36.8741 159.284 36.0593 159.843 35.4586C160.401 34.8579 161.194 34.5313 162.014 34.5645C162.438 34.5522 162.861 34.6091 163.266 34.733V32.1256C162.953 32.0553 162.632 32.0204 162.311 32.0216C160.779 31.9631 159.415 32.9872 159.045 34.4752H158.98V32.1637ZM176.119 41.7554C175.744 44.2207 173.343 45.9126 170.271 45.9126C166.32 45.9126 163.868 43.2657 163.868 39.0191C163.868 34.7594 166.333 31.9967 170.154 31.9967C173.911 31.9967 176.274 34.5777 176.274 38.6954V39.6504H166.682V39.8189C166.593 40.8299 166.942 41.8307 167.641 42.5667C168.34 43.3027 169.321 43.7029 170.335 43.6656C171.688 43.7923 172.964 43.0155 173.472 41.7554L176.119 41.7554ZM173.485 37.7022H166.695C166.693 36.7853 167.057 35.9055 167.706 35.2582C168.356 34.611 169.237 34.25 170.154 34.2555C171.063 34.2359 171.94 34.5968 172.572 35.251C173.205 35.9053 173.535 36.7937 173.485 37.7022Z" fill="white"/>
<path fill-rule="evenodd" clip-rule="evenodd" d="M100.683 12.6557H102.016V22.0467H100.683V12.6557ZM71.9402 14.3235C71.1244 13.462 69.9652 13.0118 68.7818 13.0967H65.5489V22.0469H68.7818C71.4478 22.0469 72.9932 20.4033 72.9932 17.5439C73.1424 16.3669 72.756 15.185 71.9402 14.3235ZM68.6265 20.7812H66.939V14.3615H68.6265C69.4678 14.3148 70.2858 14.6465 70.857 15.2659C71.4282 15.8853 71.6927 16.7275 71.5782 17.5622C71.7017 18.4004 71.4409 19.2496 70.8683 19.874C70.2957 20.4985 69.4722 20.8317 68.6265 20.7812ZM74.5635 18.6666C74.4477 17.456 75.0282 16.2843 76.0616 15.643C77.095 15.0018 78.4026 15.0018 79.436 15.643C80.4694 16.2843 81.0499 17.456 80.9341 18.6666C81.0521 19.8786 80.4721 21.0526 79.4378 21.6952C78.4035 22.3379 77.0941 22.3379 76.0598 21.6952C75.0255 21.0526 74.4455 19.8786 74.5635 18.6666ZM77.751 16.3463C78.9053 16.3463 79.563 17.2025 79.563 18.6666H79.563C79.563 20.1366 78.9053 20.992 77.751 20.9921C76.5924 20.9921 75.9405 20.1425 75.9405 18.6666C75.9405 17.2025 76.5923 16.3463 77.751 16.3463ZM89.4023 22.0467H88.0195L86.6236 17.0721H86.5181L85.128 22.0467H83.7583L81.8965 15.2924H83.2486L84.4585 20.4464H84.5581L85.9468 15.2924H87.2256L88.6143 20.4464H88.7197L89.9238 15.2924H91.2568L89.4023 22.0467ZM94.106 15.2924H92.8228L92.8228 22.0468H94.1558V18.0953C94.1079 17.6458 94.2588 17.1979 94.5688 16.8689C94.8788 16.5399 95.317 16.3627 95.7685 16.3837C96.7544 16.3837 97.2261 16.9235 97.2261 18.0089V22.0467H98.5591V17.6742C98.6568 17.0138 98.4489 16.3448 97.9941 15.8561C97.5393 15.3673 96.8869 15.1119 96.2212 15.162C95.3614 15.0921 94.552 15.5754 94.2056 16.3654H94.106V15.2924ZM105.367 15.643C104.334 16.2842 103.753 17.4559 103.869 18.6667C103.751 19.8787 104.331 21.0526 105.366 21.6952C106.4 22.3378 107.709 22.3378 108.744 21.6952C109.778 21.0526 110.358 19.8787 110.24 18.6667C110.356 17.4559 109.776 16.2842 108.742 15.643C107.709 15.0017 106.401 15.0017 105.367 15.643ZM108.869 18.6666C108.869 17.2025 108.211 16.3463 107.057 16.3463C105.898 16.3463 105.246 17.2025 105.246 18.6666C105.246 20.1425 105.898 20.9921 107.057 20.9921C108.211 20.992 108.869 20.1366 108.869 18.6666ZM114.156 18.1202C112.549 18.2198 111.644 18.9208 111.644 20.1366C111.646 20.7131 111.892 21.2617 112.321 21.6468C112.75 22.032 113.322 22.2177 113.895 22.158C114.713 22.1958 115.488 21.7907 115.924 21.0975H116.029V22.0467H117.313V17.4318C117.313 16.005 116.358 15.162 114.664 15.162C113.132 15.162 112.041 15.9061 111.904 17.0663H113.195C113.343 16.5887 113.859 16.3156 114.603 16.3156C115.514 16.3156 115.986 16.7184 115.986 17.4318V18.0148L114.156 18.1202ZM115.986 19.5594V18.9948L114.336 19.1002C113.406 19.1625 112.984 19.4789 112.984 20.0743C112.984 20.6822 113.511 21.036 114.237 21.036C114.666 21.0794 115.094 20.9468 115.424 20.6685C115.754 20.3901 115.956 19.9899 115.986 19.5594ZM121.868 15.1803C120.162 15.1803 119.065 16.5324 119.065 18.6666C119.065 20.806 120.15 22.1581 121.868 22.1581C122.739 22.1902 123.556 21.7362 123.989 20.9796H124.095V22.0467H125.372V12.6557H124.039V16.3653H123.94C123.537 15.6024 122.73 15.1406 121.868 15.1803ZM120.442 18.6666C120.442 20.0992 121.117 20.9613 122.246 20.9613C123.37 20.9613 124.064 20.0868 124.064 18.6725C124.064 17.2648 123.362 16.3778 122.246 16.3778C121.124 16.3778 120.442 17.2457 120.442 18.6666H120.442ZM132.385 15.643C131.352 16.2843 130.772 17.456 130.887 18.6666C130.769 19.8786 131.349 21.0526 132.384 21.6952C133.418 22.3379 134.727 22.3379 135.762 21.6952C136.796 21.0526 137.376 19.8786 137.258 18.6666C137.374 17.456 136.793 16.2843 135.76 15.643C134.726 15.0018 133.419 15.0018 132.385 15.643ZM135.887 18.6666C135.887 17.2025 135.229 16.3463 134.075 16.3463C132.916 16.3463 132.264 17.2025 132.264 18.6666C132.264 20.1425 132.916 20.9921 134.075 20.9921C135.229 20.992 135.887 20.1366 135.887 18.6666ZM140.33 15.2924H139.046V22.0468H140.379V18.0953C140.332 17.6458 140.483 17.1979 140.793 16.8689C141.103 16.5399 141.541 16.3627 141.992 16.3837C142.978 16.3837 143.45 16.9235 143.45 18.0089V22.0467H144.783V17.6742C144.881 17.0138 144.673 16.3448 144.218 15.8561C143.763 15.3673 143.111 15.1119 142.445 15.162C141.585 15.0921 140.776 15.5754 140.429 16.3654H140.33V15.2924ZM152.315 13.6107V15.3231H153.778V16.4459H152.315V19.9191C152.315 20.6266 152.606 20.9364 153.27 20.9364C153.44 20.9359 153.61 20.9256 153.778 20.9056V22.016C153.539 22.0588 153.296 22.0816 153.053 22.0841C151.571 22.0841 150.981 21.5626 150.981 20.2604V16.4459H149.908V15.3231H150.981V13.6107H152.315ZM156.92 12.6557H155.599L155.599 22.0467H156.932V18.1019C156.891 17.6384 157.056 17.1804 157.384 16.8502C157.712 16.5201 158.169 16.3515 158.633 16.3895C159.575 16.3895 160.077 16.9359 160.077 18.0148V22.0468H161.412V17.6859C161.5 17.0289 161.291 16.3667 160.841 15.8798C160.391 15.3929 159.747 15.1318 159.085 15.1679C158.213 15.097 157.389 15.5809 157.026 16.3778H156.92V12.6557ZM169.184 20.223C168.81 21.4971 167.577 22.3203 166.257 22.1771C165.357 22.2009 164.491 21.8276 163.89 21.1562C163.289 20.4849 163.014 19.5833 163.137 18.6908C163.017 17.7958 163.292 16.8929 163.889 16.2158C164.487 15.5388 165.349 15.1543 166.251 15.162C168.131 15.162 169.265 16.446 169.265 18.567V19.0321H164.495V19.1068C164.453 19.6081 164.624 20.1038 164.967 20.4722C165.309 20.8406 165.791 21.0474 166.294 21.0418C166.946 21.1201 167.581 20.7966 167.901 20.223L169.184 20.223ZM167.907 18.0463H164.495C164.489 17.5806 164.671 17.1321 165.001 16.8027C165.33 16.4732 165.778 16.2907 166.244 16.2966C166.704 16.286 167.146 16.4701 167.463 16.8033C167.779 17.1365 167.941 17.5879 167.907 18.0463Z" fill="white"/>
<path fill-rule="evenodd" clip-rule="evenodd" d="M46.7703 13.0806C46.9155 14.9769 46.3158 16.8552 45.0985 18.3165C43.9175 19.7854 42.128 20.6314 40.2433 20.612C40.1235 18.7703 40.7406 16.9564 41.9589 15.57C43.1926 14.1647 44.9105 13.2759 46.7703 13.0806ZM52.7307 24.2231C50.5628 25.5559 49.2287 27.9064 49.1959 30.4511C49.199 33.3302 50.9231 35.9284 53.5747 37.0499C53.0648 38.7065 52.2961 40.2721 51.2971 41.6886C49.9556 43.6955 48.5489 45.6561 46.3164 45.6923C45.2546 45.7168 44.5379 45.4115 43.791 45.0933C43.012 44.7615 42.2002 44.4157 40.9299 44.4157C39.5827 44.4157 38.7345 44.7726 37.9166 45.1169C37.2097 45.4144 36.5253 45.7024 35.5608 45.7424C33.4346 45.8211 31.8097 43.6005 30.4194 41.6124C27.6405 37.5525 25.4766 30.171 28.3776 25.1484C29.7399 22.7004 32.2869 21.147 35.0869 21.0566C36.2928 21.0318 37.4499 21.4966 38.4644 21.904C39.2403 22.2157 39.9327 22.4938 40.4997 22.4938C40.9981 22.4938 41.6712 22.2267 42.4556 21.9153C43.6913 21.4249 45.2033 20.8248 46.744 20.9865C49.1382 21.0615 51.3568 22.2609 52.7307 24.2231Z" fill="white"/>
</svg>
