<svg width="203" height="60" viewBox="0 0 203 60" fill="none" xmlns="http://www.w3.org/2000/svg">
<mask id="mask0" mask-type="alpha" maskUnits="userSpaceOnUse" x="0" y="0" width="203" height="60">
<path fill-rule="evenodd" clip-rule="evenodd" d="M0 6.10352e-05H202.359V60H0V6.10352e-05Z" fill="white"/>
</mask>
<g mask="url(#mask0)">
<path fill-rule="evenodd" clip-rule="evenodd" d="M194.865 60H7.4948C3.29771 60 0 56.7 0 52.5V7.50005C0 3.30006 3.29771 6.10352e-05 7.4948 6.10352e-05H194.865C199.062 6.10352e-05 202.359 3.30006 202.359 7.50005V52.5C202.359 56.7 199.062 60 194.865 60Z" fill="black"/>
</g>
<path fill-rule="evenodd" clip-rule="evenodd" d="M113.321 19.5001V10.5001H114.67L119.017 17.5501V10.5001H120.217V19.5001H119.017L114.371 12.1501V19.5001H113.321ZM104.627 17.55C105.227 18.15 106.126 18.6 107.026 18.6C107.925 18.6 108.824 18.3 109.424 17.55C110.024 16.95 110.473 16.0501 110.473 15.0001C110.473 13.9501 110.173 13.0501 109.424 12.4501C108.824 11.8501 107.925 11.4001 107.026 11.4001C106.126 11.4001 105.227 11.7001 104.627 12.4501C104.028 13.0501 103.578 13.9501 103.578 15.0001C103.578 16.0501 103.878 16.95 104.627 17.55ZM110.323 18.3001C109.424 19.2001 108.375 19.6501 107.026 19.6501C105.677 19.6501 104.627 19.2001 103.728 18.3001C102.829 17.4001 102.379 16.3501 102.379 15.0001C102.379 13.6501 102.829 12.6 103.728 11.7C104.627 10.8 105.677 10.35 107.026 10.35C108.375 10.35 109.424 10.8 110.323 11.7C111.223 12.6 111.672 13.6501 111.672 15.0001C111.672 16.3501 111.223 17.4001 110.323 18.3001ZM96.0833 19.5001H94.8841V11.5501H92.3359V10.5001H98.4816V11.5501H95.9334V19.5001H96.0833ZM89.7877 19.5001H90.9877V10.5001H89.7877V19.5001ZM82.8924 19.5001H81.6933V11.5501H79.1451V10.5001H85.4407V11.5501H82.8924V19.5001ZM77.9459 11.5501H73.8987V14.4001H77.6461V15.4501H73.8987V18.3001H77.9459V19.5001H72.6995V10.5001H77.9459V11.5501ZM71.0507 15.3001C71.0507 16.5001 70.7509 17.5501 70.0014 18.3001C69.102 19.2001 68.0527 19.6501 66.7037 19.6501C65.3546 19.6501 64.3054 19.2001 63.406 18.3001C62.5066 17.4001 62.0569 16.3501 62.0569 15.0001C62.0569 13.6501 62.5066 12.6 63.406 11.7C64.3054 10.8 65.3546 10.35 66.7037 10.35C67.3033 10.35 67.9028 10.5 68.5024 10.8C69.102 11.1 69.5517 11.4 69.8515 11.85L69.102 12.6C68.5024 11.85 67.753 11.55 66.7037 11.55C65.8043 11.55 64.9049 11.85 64.3054 12.6C63.5559 13.2001 63.2561 14.1001 63.2561 15.1501C63.2561 16.2001 63.5559 17.1001 64.3054 17.7001C65.0548 18.3001 65.8043 18.7501 66.7037 18.7501C67.753 18.7501 68.5024 18.4501 69.2519 17.7001C69.7016 17.2501 70.0014 16.6501 70.0014 15.9001H66.7037V14.7001H71.0507V15.3001Z" fill="white"/>
<path d="M113.321 19.5001H113.294V19.5271H113.321V19.5001ZM113.321 10.5001V10.4731H113.294V10.5001H113.321ZM114.67 10.5001L114.693 10.4859L114.685 10.4731H114.67V10.5001ZM119.017 17.5501L118.994 17.5642L119.044 17.6453V17.5501H119.017ZM119.017 10.5001V10.4731H118.99V10.5001H119.017ZM120.217 10.5001H120.244V10.4731H120.217V10.5001ZM120.217 19.5001V19.5271H120.244V19.5001H120.217ZM119.017 19.5001L118.995 19.5145L119.002 19.5271H119.017V19.5001ZM114.371 12.1501L114.393 12.1356L114.344 12.0568V12.1501H114.371ZM114.371 19.5001V19.5271H114.398V19.5001H114.371ZM104.627 17.55L104.647 17.5308L104.644 17.529L104.627 17.55ZM109.424 17.55L109.405 17.5308L109.403 17.5332L109.424 17.55ZM109.424 12.4501L109.405 12.4693L109.407 12.4712L109.424 12.4501ZM104.627 12.4501L104.647 12.4693L104.648 12.4669L104.627 12.4501ZM94.8841 19.5001H94.8571V19.5271H94.8841V19.5001ZM94.8841 11.5501H94.9111V11.5231H94.8841V11.5501ZM92.3359 11.5501H92.3089V11.5771H92.3359V11.5501ZM92.3359 10.5001V10.4731H92.3089V10.5001H92.3359ZM98.4816 10.5001H98.5086V10.4731H98.4816V10.5001ZM98.4816 11.5501V11.5771H98.5086V11.5501H98.4816ZM95.9334 11.5501V11.5231H95.9064V11.5501H95.9334ZM95.9334 19.5001H95.9064V19.5271H95.9334V19.5001ZM89.7877 19.5001H89.7607V19.5271H89.7877V19.5001ZM90.9877 19.5001V19.5271H91.0147V19.5001H90.9877ZM90.9877 10.5001H91.0147V10.4731H90.9877V10.5001ZM89.7877 10.5001V10.4731H89.7607V10.5001H89.7877ZM82.8924 19.5001V19.5271H82.9194V19.5001H82.8924ZM81.6933 19.5001H81.6663V19.5271H81.6933V19.5001ZM81.6933 11.5501H81.7203V11.5231H81.6933V11.5501ZM79.1451 11.5501H79.118V11.5771H79.1451V11.5501ZM79.1451 10.5001V10.4731H79.118V10.5001H79.1451ZM85.4407 10.5001H85.4677V10.4731H85.4407V10.5001ZM85.4407 11.5501V11.5771H85.4677V11.5501H85.4407ZM82.8924 11.5501V11.5231H82.8654V11.5501H82.8924ZM77.9459 11.5501V11.5771H77.9729V11.5501H77.9459ZM73.8987 11.5501V11.5231H73.8717V11.5501H73.8987ZM73.8987 14.4001H73.8717V14.4271H73.8987V14.4001ZM77.6461 14.4001H77.6731V14.3731H77.6461V14.4001ZM77.6461 15.4501V15.4771H77.6731V15.4501H77.6461ZM73.8987 15.4501V15.4231H73.8717V15.4501H73.8987ZM73.8987 18.3001H73.8717V18.3271H73.8987V18.3001ZM77.9459 18.3001H77.9729V18.2731H77.9459V18.3001ZM77.9459 19.5001V19.5271H77.9729V19.5001H77.9459ZM72.6995 19.5001H72.6725V19.5271H72.6995V19.5001ZM72.6995 10.5001V10.4731H72.6725V10.5001H72.6995ZM77.9459 10.5001H77.9729V10.4731H77.9459V10.5001ZM69.8515 11.85L69.8706 11.8691L69.8862 11.8535L69.874 11.8351L69.8515 11.85ZM69.102 12.6L69.0809 12.6169L69.0998 12.6405L69.1211 12.6191L69.102 12.6ZM64.3054 12.6L64.3226 12.6217L64.3264 12.6169L64.3054 12.6ZM70.0014 15.9001H70.0284V15.8731H70.0014V15.9001ZM66.7037 15.9001H66.6767V15.9271H66.7037V15.9001ZM66.7037 14.7001V14.6731H66.6767V14.7001H66.7037ZM71.0507 14.7001H71.0777V14.6731H71.0507V14.7001ZM113.348 19.5001V10.5001H113.294V19.5001H113.348ZM113.321 10.5271H114.67V10.4731H113.321V10.5271ZM114.647 10.5142L118.994 17.5642L119.04 17.5359L114.693 10.4859L114.647 10.5142ZM119.044 17.5501V10.5001H118.99V17.5501H119.044ZM119.017 10.5271H120.217V10.4731H119.017V10.5271ZM120.19 10.5001V19.5001H120.244V10.5001H120.19ZM120.217 19.4731H119.017V19.5271H120.217V19.4731ZM119.04 19.4856L114.393 12.1356L114.348 12.1645L118.995 19.5145L119.04 19.4856ZM114.344 12.1501V19.5001H114.398V12.1501H114.344ZM114.371 19.4731H113.321V19.5271H114.371V19.4731ZM104.608 17.5691C105.212 18.1732 106.118 18.627 107.026 18.627V18.573C106.135 18.573 105.242 18.1269 104.646 17.531L104.608 17.5691ZM107.026 18.627C107.931 18.627 108.839 18.3251 109.445 17.5669L109.403 17.5332C108.81 18.275 107.919 18.573 107.026 18.573V18.627ZM109.443 17.5691C110.047 16.9646 110.5 16.0579 110.5 15.0001H110.446C110.446 16.0422 110 16.9355 109.405 17.531L109.443 17.5691ZM110.5 15.0001C110.5 13.9451 110.199 13.0358 109.441 12.429L109.407 12.4712C110.148 13.0643 110.446 13.955 110.446 15.0001H110.5ZM109.443 12.431C108.839 11.8269 107.933 11.3731 107.026 11.3731V11.4271C107.917 11.4271 108.809 11.8733 109.405 12.4692L109.443 12.431ZM107.026 11.3731C106.121 11.3731 105.212 11.6751 104.606 12.4332L104.648 12.4669C105.241 11.7251 106.132 11.4271 107.026 11.4271V11.3731ZM104.608 12.431C104.004 13.0356 103.551 13.9422 103.551 15.0001H103.605C103.605 13.9579 104.051 13.0646 104.646 12.4692L104.608 12.431ZM103.551 15.0001C103.551 16.055 103.852 16.9643 104.61 17.5711L104.644 17.529C103.903 16.9358 103.605 16.0451 103.605 15.0001H103.551ZM110.304 18.281C109.41 19.1759 108.368 19.6231 107.026 19.6231V19.6771C108.382 19.6771 109.438 19.2242 110.342 18.3192L110.304 18.281ZM107.026 19.6231C105.684 19.6231 104.641 19.1759 103.747 18.281L103.709 18.3192C104.613 19.2242 105.669 19.6771 107.026 19.6771V19.6231ZM103.747 18.281C102.853 17.3861 102.406 16.3429 102.406 15.0001H102.352C102.352 16.3572 102.804 17.4141 103.709 18.3192L103.747 18.281ZM102.406 15.0001C102.406 13.6572 102.853 12.6141 103.747 11.7191L103.709 11.681C102.804 12.586 102.352 13.6429 102.352 15.0001H102.406ZM103.747 11.7191C104.641 10.8242 105.684 10.377 107.026 10.377V10.323C105.669 10.323 104.613 10.7759 103.709 11.681L103.747 11.7191ZM107.026 10.377C108.368 10.377 109.41 10.8242 110.304 11.7191L110.342 11.681C109.438 10.7759 108.382 10.323 107.026 10.323V10.377ZM110.304 11.7191C111.199 12.6141 111.645 13.6572 111.645 15.0001H111.699C111.699 13.6429 111.247 12.586 110.342 11.681L110.304 11.7191ZM111.645 15.0001C111.645 16.3429 111.199 17.3861 110.304 18.281L110.342 18.3192C111.247 17.4141 111.699 16.3572 111.699 15.0001H111.645ZM96.0833 19.4731H94.8841V19.5271H96.0833V19.4731ZM94.9111 19.5001V11.5501H94.8571V19.5001H94.9111ZM94.8841 11.5231H92.3359V11.5771H94.8841V11.5231ZM92.3629 11.5501V10.5001H92.3089V11.5501H92.3629ZM92.3359 10.5271H98.4816V10.4731H92.3359V10.5271ZM98.4546 10.5001V11.5501H98.5086V10.5001H98.4546ZM98.4816 11.5231H95.9334V11.5771H98.4816V11.5231ZM95.9064 11.5501V19.5001H95.9604V11.5501H95.9064ZM95.9334 19.5271H96.0833V19.4731H95.9334V19.5271ZM89.7877 19.5271H90.9877V19.4731H89.7877V19.5271ZM91.0147 19.5001V10.5001H90.9607V19.5001H91.0147ZM90.9877 10.4731H89.7877V10.5271H90.9877V10.4731ZM89.7607 10.5001V19.5001H89.8147V10.5001H89.7607ZM82.8924 19.4731H81.6933V19.5271H82.8924V19.4731ZM81.7203 19.5001V11.5501H81.6663V19.5001H81.7203ZM81.6933 11.5231H79.1451V11.5771H81.6933V11.5231ZM79.1721 11.5501V10.5001H79.118V11.5501H79.1721ZM79.1451 10.5271H85.4407V10.4731H79.1451V10.5271ZM85.4137 10.5001V11.5501H85.4677V10.5001H85.4137ZM85.4407 11.5231H82.8924V11.5771H85.4407V11.5231ZM82.8654 11.5501V19.5001H82.9194V11.5501H82.8654ZM77.9459 11.5231H73.8987V11.5771H77.9459V11.5231ZM73.8717 11.5501V14.4001H73.9257V11.5501H73.8717ZM73.8987 14.4271H77.6461V14.3731H73.8987V14.4271ZM77.6191 14.4001V15.4501H77.6731V14.4001H77.6191ZM77.6461 15.4231H73.8987V15.4771H77.6461V15.4231ZM73.8717 15.4501V18.3001H73.9257V15.4501H73.8717ZM73.8987 18.3271H77.9459V18.2731H73.8987V18.3271ZM77.9189 18.3001V19.5001H77.9729V18.3001H77.9189ZM77.9459 19.4731H72.6995V19.5271H77.9459V19.4731ZM72.7265 19.5001V10.5001H72.6725V19.5001H72.7265ZM72.6995 10.5271H77.9459V10.4731H72.6995V10.5271ZM77.9189 10.5001V11.5501H77.9729V10.5001H77.9189ZM71.0237 15.3001C71.0237 16.4959 70.7249 17.5378 69.9823 18.281L70.0205 18.3192C70.7768 17.5623 71.0777 16.5042 71.0777 15.3001H71.0237ZM69.9823 18.281C69.088 19.1759 68.0456 19.6231 66.7037 19.6231V19.6771C68.0599 19.6771 69.116 19.2242 70.0205 18.3192L69.9823 18.281ZM66.7037 19.6231C65.3618 19.6231 64.3194 19.1759 63.4251 18.281L63.3869 18.3192C64.2913 19.2242 65.3475 19.6771 66.7037 19.6771V19.6231ZM63.4251 18.281C62.5308 17.3861 62.0839 16.3429 62.0839 15.0001H62.0299C62.0299 16.3572 62.4824 17.4141 63.3869 18.3192L63.4251 18.281ZM62.0839 15.0001C62.0839 13.6572 62.5308 12.6141 63.4251 11.7191L63.3869 11.681C62.4824 12.586 62.0299 13.6429 62.0299 15.0001H62.0839ZM63.4251 11.7191C64.3194 10.8242 65.3618 10.377 66.7037 10.377V10.323C65.3475 10.323 64.2913 10.7759 63.3869 11.681L63.4251 11.7191ZM66.7037 10.377C67.2986 10.377 67.8941 10.5258 68.4904 10.8242L68.5145 10.7759C67.9116 10.4742 67.3079 10.323 66.7037 10.323V10.377ZM68.4904 10.8242C69.0888 11.1236 69.5332 11.421 69.829 11.865L69.874 11.8351C69.5702 11.3791 69.1152 11.0765 68.5145 10.7759L68.4904 10.8242ZM69.8324 11.831L69.0829 12.581L69.1211 12.6191L69.8706 11.8691L69.8324 11.831ZM69.1231 12.5832C68.5174 11.8255 67.7594 11.523 66.7037 11.523V11.577C67.7465 11.577 68.4875 11.8746 69.0809 12.6169L69.1231 12.5832ZM66.7037 11.523C65.7986 11.523 64.8904 11.825 64.2843 12.5832L64.3264 12.6169C64.9195 11.8751 65.81 11.577 66.7037 11.577V11.523ZM64.2885 12.579C63.5304 13.1858 63.2291 14.0951 63.2291 15.1501H63.2831C63.2831 14.105 63.5813 13.2143 64.3222 12.6211L64.2885 12.579ZM63.2291 15.1501C63.2291 16.205 63.5304 17.1143 64.2885 17.7212L64.3222 17.679C63.5813 17.0858 63.2831 16.1951 63.2831 15.1501H63.2291ZM64.2885 17.7212C65.0391 18.3221 65.7947 18.7771 66.7037 18.7771V18.7231C65.8139 18.7231 65.0706 18.2781 64.3222 17.679L64.2885 17.7212ZM66.7037 18.7771C67.231 18.7771 67.6843 18.7017 68.1004 18.5313C68.5166 18.3609 68.8943 18.0961 69.271 17.7192L69.2328 17.681C68.86 18.054 68.4882 18.3142 68.08 18.4813C67.6717 18.6485 67.2257 18.7231 66.7037 18.7231V18.7771ZM69.271 17.7192C69.7252 17.2646 70.0284 16.658 70.0284 15.9001H69.9744C69.9744 16.6422 69.678 17.2355 69.2328 17.681L69.271 17.7192ZM70.0014 15.8731H66.7037V15.9271H70.0014V15.8731ZM66.7307 15.9001V14.7001H66.6767V15.9001H66.7307ZM66.7037 14.7271H71.0507V14.6731H66.7037V14.7271ZM71.0237 14.7001V15.3001H71.0777V14.7001H71.0237Z" fill="white"/>
<mask id="mask1" mask-type="alpha" maskUnits="userSpaceOnUse" x="0" y="0" width="203" height="60">
<path fill-rule="evenodd" clip-rule="evenodd" d="M0 60H202.359V0H0V60Z" fill="white"/>
</mask>
<g mask="url(#mask1)">
<path fill-rule="evenodd" clip-rule="evenodd" d="M160.239 45H163.087V26.25H160.239V45ZM185.421 33L182.273 41.1H182.124L178.826 33H175.828L180.774 44.4L177.926 50.7H180.774L188.419 33H185.421ZM169.682 42.9C168.783 42.9 167.434 42.45 167.434 41.25C167.434 39.75 169.083 39.3 170.432 39.3C171.631 39.3 172.23 39.6 172.98 39.9C172.68 41.7 171.181 42.9 169.682 42.9ZM169.982 32.55C167.883 32.55 165.785 33.45 165.035 35.4L167.584 36.45C168.183 35.4 169.083 35.1 170.132 35.1C171.631 35.1 172.98 36 173.13 37.5V37.65C172.68 37.35 171.481 36.9 170.282 36.9C167.584 36.9 164.885 38.4 164.885 41.1C164.885 43.65 167.134 45.3 169.532 45.3C171.481 45.3 172.38 44.4 173.13 43.5H173.28V45H175.978V37.8C175.678 34.5 173.13 32.55 169.982 32.55ZM152.744 35.25H148.697V28.8H152.744C154.842 28.8 156.042 30.6 156.042 31.95C155.892 33.6 154.693 35.25 152.744 35.25ZM152.594 26.25H145.849V45H148.697V37.95H152.594C155.742 37.95 158.74 35.7 158.74 32.1C158.74 28.5 155.742 26.25 152.594 26.25ZM116.019 42.9C114.071 42.9 112.422 41.25 112.422 39C112.422 36.75 114.071 35.1 116.019 35.1C117.968 35.1 119.467 36.75 119.467 39C119.467 41.25 117.968 42.9 116.019 42.9ZM119.317 34.05C118.568 33.3 117.368 32.55 115.87 32.55C112.722 32.55 109.724 35.4 109.724 39C109.724 42.6 112.572 45.3 115.87 45.3C117.368 45.3 118.568 44.55 119.167 43.8H119.317V44.7C119.317 47.1 117.968 48.45 115.87 48.45C114.221 48.45 113.021 47.25 112.722 46.2L110.323 47.25C111.073 48.9 112.872 51 116.019 51C119.317 51 122.015 49.05 122.015 44.4V33H119.317V34.05ZM123.814 45H126.662V26.25H123.814V45ZM130.859 38.85C130.859 36.45 132.808 35.1 134.157 35.1C135.206 35.1 136.255 35.7 136.555 36.45L130.859 38.85ZM139.553 36.75C138.953 35.25 137.455 32.7 134.157 32.7C130.859 32.7 128.161 35.25 128.161 39.15C128.161 42.75 130.859 45.6 134.457 45.6C137.305 45.6 139.103 43.8 139.703 42.75L137.604 41.25C136.855 42.3 135.956 43.05 134.457 43.05C132.958 43.05 132.058 42.45 131.309 41.1L139.853 37.5L139.553 36.75ZM71.5003 34.65V37.35H77.9459C77.796 38.85 77.1964 40.05 76.4469 40.8C75.5475 41.7 74.0486 42.75 71.5003 42.75C67.4531 42.75 64.4552 39.6 64.4552 35.55C64.4552 31.5 67.603 28.35 71.5003 28.35C73.5989 28.35 75.2477 29.25 76.4469 30.3L78.3956 28.35C76.7467 26.85 74.6482 25.65 71.6502 25.65C66.254 25.65 61.6072 30.15 61.6072 35.55C61.6072 40.95 66.254 45.45 71.6502 45.45C74.6482 45.45 76.7467 44.55 78.5455 42.6C80.3442 40.8 80.9438 38.25 80.9438 36.3C80.9438 35.7 80.9438 35.1 80.7939 34.65H71.5003ZM88.1388 42.9C86.1901 42.9 84.5413 41.25 84.5413 39C84.5413 36.75 86.1901 35.1 88.1388 35.1C90.0874 35.1 91.7363 36.6 91.7363 39C91.7363 41.25 90.0874 42.9 88.1388 42.9ZM88.1388 32.7C84.5413 32.7 81.6933 35.4 81.6933 39.15C81.6933 42.75 84.5413 45.6 88.1388 45.6C91.7363 45.6 94.5843 42.9 94.5843 39.15C94.5843 35.25 91.7363 32.7 88.1388 32.7ZM102.079 42.9C100.13 42.9 98.4816 41.25 98.4816 39C98.4816 36.75 100.13 35.1 102.079 35.1C104.028 35.1 105.677 36.6 105.677 39C105.677 41.25 104.028 42.9 102.079 42.9ZM102.079 32.7C98.4816 32.7 95.6336 35.4 95.6336 39.15C95.6336 42.75 98.4816 45.6 102.079 45.6C105.677 45.6 108.525 42.9 108.525 39.15C108.525 35.25 105.677 32.7 102.079 32.7Z" fill="white"/>
</g>
<mask id="mask2" mask-type="alpha" maskUnits="userSpaceOnUse" x="14" y="11" width="21" height="38">
<path fill-rule="evenodd" clip-rule="evenodd" d="M14.9896 13.35V46.4999C14.9896 47.4002 15.2894 48.1499 15.7391 48.5999L15.889 48.7502L34.476 30.1503V29.85L15.5892 11.2503C15.1395 11.7 14.9896 12.45 14.9896 13.35Z" fill="white"/>
</mask>
<g mask="url(#mask2)">
<path fill-rule="evenodd" clip-rule="evenodd" d="M14.9896 13.35V46.4999C14.9896 47.4002 15.2894 48.1499 15.7391 48.5999L15.889 48.7502L34.476 30.1503V29.85L15.5892 11.2503C15.1395 11.7 14.9896 12.45 14.9896 13.35Z" fill="#32BBFF"/>
</g>
<mask id="mask3" mask-type="alpha" maskUnits="userSpaceOnUse" x="34" y="23" width="16" height="14">
<path fill-rule="evenodd" clip-rule="evenodd" d="M34.3262 29.85V30.3L40.4719 36.45L47.9667 32.4C50.0653 31.2 50.0653 29.25 47.9667 28.0497L40.6218 23.85L40.4719 23.6997L34.3262 29.85Z" fill="white"/>
</mask>
<g mask="url(#mask3)">
<path fill-rule="evenodd" clip-rule="evenodd" d="M34.3262 29.85V30.3L40.4719 36.45L47.9667 32.4C50.0653 31.2 50.0653 29.25 47.9667 28.0497L40.6218 23.85L40.4719 23.6997L34.3262 29.85Z" fill="#FFD500"/>
</g>
<mask id="mask4" mask-type="alpha" maskUnits="userSpaceOnUse" x="15" y="30" width="26" height="20">
<path fill-rule="evenodd" clip-rule="evenodd" d="M15.5892 48.7503C16.3387 49.5 17.3879 49.5 18.737 48.9L40.6218 36.3L34.3262 30L15.5892 48.7503Z" fill="white"/>
</mask>
<g mask="url(#mask4)">
<path fill-rule="evenodd" clip-rule="evenodd" d="M15.5892 48.7503C16.3387 49.5 17.3879 49.5 18.737 48.9L40.6218 36.3L34.3262 30L15.5892 48.7503Z" fill="url(#paint0_linear)"/>
</g>
<mask id="mask5" mask-type="alpha" maskUnits="userSpaceOnUse" x="15" y="10" width="26" height="20">
<path fill-rule="evenodd" clip-rule="evenodd" d="M15.5892 11.4L34.3262 30L40.6218 23.7L18.737 11.2503C18.129 10.9122 17.5822 10.7571 17.0962 10.7571C16.5032 10.7568 16.0011 10.9878 15.5892 11.4Z" fill="white"/>
</mask>
<g mask="url(#mask5)">
<path fill-rule="evenodd" clip-rule="evenodd" d="M15.5892 11.4L34.3262 30L40.6218 23.7L18.737 11.2503C18.129 10.9122 17.5822 10.7571 17.0962 10.7571C16.5032 10.7568 16.0011 10.9878 15.5892 11.4Z" fill="#29CC5E"/>
</g>
<path fill-rule="evenodd" clip-rule="evenodd" d="M40.4719 36.15L18.737 48.45C17.5378 49.2 16.4885 49.05 15.7391 48.45L15.5892 48.6L15.7391 48.75C16.4885 49.35 17.5378 49.5 18.737 48.75L40.4719 36.15Z" fill="black"/>
<path fill-rule="evenodd" clip-rule="evenodd" d="M47.9667 31.9499L40.4719 36.1499L40.6218 36.2999L47.9667 32.0999C49.016 31.4999 49.4657 30.7499 49.4657 29.9999C49.4657 30.7499 48.8661 31.3499 47.9667 31.9499ZM15.5896 48.4499C15.1396 47.9999 14.9896 47.2499 14.9896 46.3499V46.4999C14.9896 47.3999 15.2896 48.1499 15.7396 48.5999V48.4499H15.5896Z" fill="black"/>
<path fill-rule="evenodd" clip-rule="evenodd" d="M18.737 11.3999L47.9667 28.0499C48.8661 28.6499 49.4657 29.2499 49.4657 29.9999C49.4657 29.2499 49.016 28.4999 47.9667 27.8999L18.737 11.2499C16.6384 10.0499 14.9896 10.9499 14.9896 13.3499V13.4999C14.9896 11.2499 16.6384 10.1999 18.737 11.3999Z" fill="white"/>
<defs>
<linearGradient id="paint0_linear" x1="15.0967" y1="20.2538" x2="-8.8591" y2="60.4451" gradientUnits="userSpaceOnUse">
<stop stop-color="#FF3A44"/>
<stop offset="1" stop-color="#C31162"/>
</linearGradient>
</defs>
</svg>
