<svg width="24" height="24" viewBox="0 0 24 24" fill="none" xmlns="http://www.w3.org/2000/svg">
<path d="M2.01997 7.61749C2.27965 7.43771 2.21973 7.13809 2.29963 6.89839C3.69789 2.9433 8.39205 1.74478 11.4483 4.60124C11.8877 5.02072 12.0875 5.04069 12.5269 4.60124C14.3447 2.8634 16.8216 2.52381 18.9789 3.6624C21.1362 4.80099 22.2948 7.21799 21.9352 9.71489C21.6156 11.8323 20.5969 13.5901 19.1387 15.1082C17.1412 17.2056 14.5644 18.524 12.3871 20.3817C12.1075 20.6214 11.8478 20.5614 11.5881 20.3417C9.63053 18.6837 7.33338 17.4653 5.47569 15.6875C4.55683 14.8086 3.71785 13.8697 3.05867 12.6712C3.49813 12.5713 3.85768 12.4715 4.13734 12.8909C5.5356 15.0283 7.57307 16.4665 9.63052 17.8848C10.4295 18.4241 11.1886 19.4228 11.9876 19.4228C12.7666 19.4228 13.5457 18.4441 14.3447 17.9047C15.8828 16.846 17.4009 15.7873 18.6793 14.4091C20.0576 12.9309 21.0164 11.253 21.1562 9.19554C21.336 6.91836 20.1575 4.98076 18.1599 4.16178C16.1824 3.3428 14.1849 3.84217 12.6867 5.58002C12.1874 6.17927 11.8877 6.29913 11.3284 5.61997C9.77035 3.80222 7.79281 3.32282 5.77532 4.16178C3.75782 5.02072 2.61922 6.97828 2.83895 9.33535C2.91885 10.1543 2.77903 10.414 2 9.97456C2.01998 9.2155 2.01997 8.4165 2.01997 7.61749Z" fill="#828282"/>
<path d="M12.5869 10.9933C12.0475 12.3716 11.6281 13.4902 11.1886 14.5888C11.0688 14.9084 11.0488 15.4078 10.5494 15.3479C10.1299 15.288 10.1898 14.8485 10.1299 14.5289C9.81031 12.871 9.51068 11.193 9.21106 9.5351C9.17111 9.31537 9.19109 9.0557 8.89146 8.816C8.6118 10.0944 8.3721 11.3329 8.09245 12.5713C8.03252 12.871 8.07246 13.3104 7.63301 13.3504C7.19356 13.3903 7.17358 12.9309 7.05372 12.6512C6.79405 12.1119 6.73414 11.5127 6.29468 10.9533C6.035 11.7324 5.4757 11.8522 4.79654 11.7923C4.17731 11.7324 3.5381 11.7923 2.8989 11.7723C2.63922 11.7723 2.43945 11.6325 2.45943 11.3529C2.4794 11.1331 2.6592 11.0133 2.87893 11.0133C3.1386 10.9933 3.41826 10.9933 3.67793 11.0133C4.69667 11.0732 5.65547 11.1132 5.99505 9.79479C6.13488 9.25546 6.55435 9.27543 6.81403 9.81476C7.05373 10.2742 7.09368 10.8335 7.51316 11.3129C7.85274 9.65496 8.19232 8.09689 8.51192 6.5588C8.57185 6.27915 8.55186 5.87965 8.95137 5.85967C9.43077 5.83969 9.39082 6.27914 9.45075 6.57877C9.87023 8.75607 10.2498 10.9334 10.849 13.1706C11.2285 12.1718 11.6081 11.1731 12.0276 10.1743C12.1474 9.89466 12.1674 9.4552 12.5869 9.43522C13.0263 9.43522 13.0263 9.87469 13.1662 10.1543C13.4059 10.7336 13.6256 11.3329 13.9252 12.1718C14.2848 10.8335 15.1837 10.9534 16.0626 10.9933C16.4621 11.0133 16.8416 11.0332 17.2011 10.7536C17.5807 10.454 17.9602 10.5938 18.2398 10.9733C18.4795 11.2729 18.4396 11.6125 18.1999 11.8922C17.9402 12.1918 17.6206 12.2717 17.2211 12.0919C15.7829 11.4727 15.2236 11.6525 14.3647 12.8909C14.2248 13.1107 14.125 13.4103 13.7854 13.3703C13.4458 13.3504 13.4058 13.0308 13.306 12.7911C13.0862 12.2717 12.8865 11.7324 12.5869 10.9933Z" fill="#828282"/>
</svg>
