<svg width="24" height="24" viewBox="0 0 24 24" fill="none" xmlns="http://www.w3.org/2000/svg">
<path d="M2.86574 15.6018C2.86574 15.0879 2.84339 14.5516 2.86574 14.0376C2.88809 13.2108 2.88808 12.451 2.12829 11.8476C1.63667 11.4454 1.52495 10.7526 1.52495 10.1046C1.52495 8.83084 1.5473 7.57943 1.50261 6.30568C1.48026 5.76936 1.59198 5.47885 2.21768 5.5012C3.40205 5.54589 4.60877 5.52355 5.79313 5.5012C6.28476 5.5012 6.44119 5.65763 6.44119 6.14925C6.41884 7.55708 6.4412 8.98726 6.41885 10.3951C6.41885 10.9761 6.26241 11.5795 5.81547 11.9147C5.05569 12.4733 5.05571 13.1884 5.07805 13.9705C5.1004 15.1996 5.07805 16.4287 5.07805 17.6577C5.07805 17.9482 5.07804 18.2611 5.03335 18.5516C4.92161 19.1549 4.78754 19.7807 4.00541 19.803C3.15624 19.803 2.97748 19.1326 2.93279 18.5069C2.86575 17.546 2.91042 16.5851 2.91042 15.6018C2.88808 15.6018 2.88809 15.6018 2.86574 15.6018ZM5.32386 6.4621C5.01101 7.28892 5.16744 8.16044 5.1004 9.00961C5.07805 9.36715 5.21212 9.88113 4.69815 9.90347C4.07244 9.94816 4.22888 9.36715 4.20653 8.98726C4.13949 8.13809 4.31827 7.26658 3.98307 6.43976C3.67022 7.28892 3.8043 8.16044 3.7596 9.00961C3.73726 9.36715 3.84898 9.88113 3.35735 9.90347C2.754 9.92582 2.91043 9.34481 2.86574 8.98726C2.7987 8.13809 3.02218 7.26658 2.59759 6.1269C2.28474 7.423 2.4635 8.40625 2.41881 9.36715C2.35177 10.3281 2.46349 11.2219 3.35735 11.8476C3.75959 12.1381 3.7596 12.6074 3.7596 13.0767C3.7596 14.5963 3.7596 16.1382 3.78194 17.6577C3.78194 17.9482 3.62552 18.3281 4.20653 18.5739C4.20653 16.7192 4.20653 14.9985 4.20653 13.2555C4.20653 12.8085 4.09481 12.2722 4.49705 12.004C5.45795 11.3337 5.61437 10.4174 5.54733 9.36715C5.48029 8.40625 5.65906 7.423 5.32386 6.4621Z" fill="#727272"/>
<path d="M12.9217 18.9315C9.36859 18.9315 6.44119 16.0488 6.44119 12.4957C6.41885 8.89788 9.34624 5.97048 12.9664 5.97048C16.5195 5.99282 19.4022 8.89788 19.4022 12.4733C19.3799 16.0264 16.4971 18.9315 12.9217 18.9315ZM12.9664 6.86434C9.86021 6.84199 7.3574 9.32246 7.33506 12.4286C7.33506 15.4901 9.77083 17.9929 12.81 18.0153C15.9161 18.06 18.4636 15.6018 18.486 12.4957C18.5307 9.41185 16.0725 6.88669 12.9664 6.86434Z" fill="#727272"/>
<path d="M23 10.0376C22.9553 10.3504 22.9553 10.8197 22.7765 11.1996C21.9274 12.9873 22.0614 14.8868 22.0838 16.7639C22.0838 17.5013 22.0838 18.2611 21.8827 18.9762C21.7486 19.4008 21.5475 19.7583 21.0782 19.7807C20.5642 19.803 20.2514 19.4678 20.1173 18.9985C20.0056 18.5739 19.8938 18.127 19.8938 17.6801C19.8715 13.9259 19.8715 10.1716 19.8715 6.41741C19.8715 6.1269 19.8044 5.79171 20.0949 5.61293C20.4525 5.36712 20.743 5.65763 20.9888 5.8364C22.3743 6.84199 22.8659 8.27217 23 10.0376ZM20.8547 6.95373C20.8547 10.842 20.8547 14.5292 20.8547 18.2387C21.1229 17.8365 21.1676 17.4343 21.1676 17.0097C21.1899 14.9314 21.1005 12.8979 21.905 10.8867C22.4413 9.54593 21.9721 8.20513 20.8547 6.95373Z" fill="#727272"/>
<path d="M12.944 16.6968C10.7764 16.7192 8.92166 15.0432 8.69819 12.8979C8.47473 10.7526 9.94959 8.74145 12.0725 8.29452C12.4524 8.20513 12.9887 8.04871 13.0781 8.60737C13.1675 9.12134 12.6312 9.07665 12.296 9.16604C10.5083 9.63531 9.43563 11.0431 9.59205 12.7415C9.72613 14.3504 11.0446 15.6689 12.6312 15.803C14.3072 15.9594 15.7374 14.8868 16.2066 13.099C16.296 12.7638 16.229 12.2275 16.743 12.2946C17.324 12.3839 17.1452 12.8979 17.0782 13.3002C16.6983 15.2443 14.9329 16.6745 12.944 16.6968Z" fill="#727272"/>
</svg>
