<svg width="24" height="24" viewBox="0 0 24 24" fill="none" xmlns="http://www.w3.org/2000/svg">
<path d="M21.9799 10.5605C21.0372 11.5032 20.0745 12.4459 19.1318 13.3686C18.6905 13.7898 18.2893 14.4517 17.5673 13.168C17.5673 15.254 17.5272 16.8987 17.5873 18.5635C17.6074 19.3457 17.3868 19.6265 16.5644 19.6065C13.4555 19.5664 10.3465 19.5664 7.25765 19.6065C6.55563 19.6065 6.31494 19.3858 6.335 18.6838C6.37512 16.999 6.35505 15.2941 6.35505 13.6092C6.21465 13.6293 6.13442 13.6092 6.09431 13.6494C5.11148 14.5319 5.11149 14.5319 4.2089 13.509C3.56705 12.7869 2.94526 12.0447 2.28336 11.3227C1.90226 10.9215 1.90227 10.6207 2.30342 10.2195C4.16878 8.25386 6.01407 6.28821 7.85938 4.30251C8.14018 4.00164 8.40094 3.92142 8.82215 4.08188C10.9282 4.94435 13.0543 4.96441 15.1403 4.08188C15.6819 3.86124 15.9426 4.12199 16.2435 4.44291C18.1489 6.34839 20.0745 8.25386 22 10.1593C21.9799 10.2997 21.9799 10.4201 21.9799 10.5605ZM11.9712 18.7841C13.2148 18.7841 14.4383 18.744 15.6818 18.8042C16.5042 18.8443 16.8653 18.6838 16.8051 17.7411C16.7048 16.1365 16.765 14.5319 16.785 12.9273C16.785 12.6064 16.6647 12.2052 17.0257 12.0247C17.4269 11.8442 17.6475 12.2253 17.828 12.466C18.2292 12.9674 18.53 12.9072 18.9312 12.4459C19.4126 11.8843 19.9341 11.3829 20.4957 10.8814C20.8768 10.5204 20.9971 10.2797 20.5559 9.85847C18.9914 8.35415 17.467 6.80971 15.9426 5.26528C15.5816 4.88418 15.2406 4.88418 14.7793 5.04464C12.9139 5.70654 11.0485 5.7266 9.18319 5.0647C8.62157 4.86412 8.28059 4.9243 7.87944 5.38562C6.7161 6.68937 5.51264 7.93294 4.32924 9.19657C2.84497 10.7811 2.84498 10.7811 4.26907 12.3857C5.13155 13.3485 5.13155 13.3485 6.07425 12.4459C6.29489 12.2253 6.4754 11.8442 6.89661 12.0447C7.23759 12.2052 7.11725 12.5662 7.11725 12.8671C7.11725 14.6121 7.13731 16.3371 7.11725 18.0821C7.0972 18.6638 7.2777 18.8242 7.85938 18.8042C9.22329 18.7641 10.5872 18.7841 11.9712 18.7841Z" fill="#727272"/>
</svg>
