<svg width="18" height="15" viewBox="0 0 18 15" fill="none" xmlns="http://www.w3.org/2000/svg">
<path fill-rule="evenodd" clip-rule="evenodd" d="M17.932 8.2938C17.893 8.3968 17.836 8.4948 17.752 8.5788L11.528 14.7518C11.216 15.0638 10.709 15.0638 10.397 14.7518C10.084 14.4428 10.084 13.9408 10.397 13.6308L15.317 8.7498H0.766C0.343 8.7498 0 8.4068 0 7.9838C0 7.5608 0.343 7.2178 0.766 7.2178H15.312L10.397 2.3418C10.084 2.0318 10.084 1.5298 10.397 1.2198C10.709 0.909805 11.216 0.909805 11.528 1.2198L17.752 7.3938C17.834 7.4748 17.892 7.5708 17.931 7.6728C17.974 7.7678 18 7.8718 18 7.9838C18 8.0948 17.974 8.1988 17.932 8.2938Z" fill="#1EA0C8"/>
</svg>
