<svg width="21" height="24" viewBox="0 0 21 24" fill="none" xmlns="http://www.w3.org/2000/svg">
<path fill-rule="evenodd" clip-rule="evenodd" d="M14.9579 18.9123C18.0001 17.2286 20.0727 13.8855 20.0727 10.0364C20.0727 4.49343 15.7747 0 10.4727 0C5.17081 0 0.872742 4.49343 0.872742 10.0364C0.872742 13.8634 2.92165 17.1902 5.93523 18.8831C6.22756 19.1099 6.51011 19.3233 6.78194 19.5286C8.55289 20.8658 9.86896 21.8596 10.4727 24C11.2396 21.7121 12.5968 20.6909 14.388 19.343L14.3885 19.3427C14.5737 19.2033 14.7636 19.0604 14.9579 18.9123ZM13.805 6.91514C13.805 8.81428 12.3131 10.3538 10.4727 10.3538C8.6324 10.3538 7.14051 8.81428 7.14051 6.91514C7.14051 5.016 8.6324 3.47645 10.4727 3.47645C12.3131 3.47645 13.805 5.016 13.805 6.91514ZM4.36366 15.6441C4.36366 13.3067 7.09879 11.4119 10.4727 11.4119C13.8467 11.4119 16.5818 13.3067 16.5818 15.6441H4.36366Z" fill="white"/>
</svg>
