<svg width="24" height="24" viewBox="0 0 24 24" fill="none" xmlns="http://www.w3.org/2000/svg">
<path d="M12.6082 2.74281C15.268 1.87686 17.4328 3.4232 19.2885 5.85613C19.9895 6.78394 20.8554 7.56743 21.7008 8.39215C22.0513 8.74265 22.1131 8.99007 21.7832 9.42305C18.6493 13.4229 15.536 17.4228 12.4433 21.4433C12.134 21.8557 11.9485 21.9176 11.5979 21.464C8.48463 17.4228 5.3507 13.3817 2.19615 9.34057C1.92811 9.01068 1.92811 8.8045 2.23738 8.47461C3.94868 6.70147 5.65997 4.9077 7.35064 3.11394C7.6393 2.80467 7.94856 2.7222 8.3403 2.7222C9.55677 2.76344 10.7938 2.74281 12.6082 2.74281ZM11.9897 20.2681C13.6185 16.495 15.1442 12.99 16.6906 9.42305C13.4948 9.42305 10.4433 9.42305 7.28879 9.42305C8.83514 13.0106 10.3609 16.5156 11.9897 20.2681ZM16.3813 8.47461C14.9381 6.90765 13.6185 5.50562 12.3196 4.1036C12.134 3.91803 11.9691 3.77372 11.7217 4.02113C10.3815 5.46439 9.04132 6.88703 7.57744 8.454C10.6083 8.47462 13.3711 8.47461 16.3813 8.47461ZM20.7523 9.34057C19.8451 9.34057 19.1854 9.40243 18.5462 9.31996C17.804 9.23749 17.4741 9.56737 17.206 10.2271C16.2988 12.4333 15.3298 14.6188 14.3814 16.8249C14.2577 17.1136 14.0103 17.361 14.1546 17.8352C16.3401 15.0105 18.4844 12.2683 20.7523 9.34057ZM3.2889 9.40242C5.51564 12.2683 7.65991 15.0311 9.78356 17.7733C9.12379 15.6909 8.27845 13.7322 7.41249 11.7529C6.29912 9.19625 6.29912 9.19624 3.2889 9.40242ZM17.1029 4.80461C17.0411 4.84585 16.9792 4.86647 16.9174 4.9077C17.1442 6.00046 17.371 7.07259 17.5772 8.16534C17.639 8.45399 17.8246 8.53646 18.0926 8.53646C18.8555 8.53646 19.6184 8.53646 20.6286 8.53646C19.3297 7.13444 18.2163 5.95922 17.1029 4.80461ZM7.06199 4.92832C7.00014 4.9077 6.91767 4.86647 6.85581 4.84585C5.74244 6.02108 4.62907 7.17568 3.35075 8.51585C4.36104 8.51585 5.06205 8.49523 5.78367 8.51585C6.1548 8.51585 6.34036 8.39214 6.42283 8.02101C6.6084 6.99011 6.83519 5.95922 7.06199 4.92832ZM16.3401 7.21692C16.4019 7.1963 16.4844 7.17569 16.5463 7.15507C16.3195 6.12417 16.1133 5.09327 15.9071 4.06237C15.8453 3.69125 15.6597 3.54692 15.2886 3.54692C14.5876 3.56754 13.8865 3.54692 12.9587 3.54692C14.1752 4.90771 15.2473 6.06231 16.3401 7.21692ZM7.43311 7.15507C7.49497 7.17569 7.57744 7.21692 7.63929 7.23753C8.73205 6.06231 9.80419 4.88708 11.0413 3.56753C10.0722 3.56753 9.39183 3.58815 8.71143 3.56753C8.34031 3.56753 8.15475 3.69124 8.09289 4.08298C7.88671 5.09327 7.65991 6.12417 7.43311 7.15507Z" fill="#727272"/>
</svg>
