<svg width="20" height="20" viewBox="0 0 20 20" fill="none" xmlns="http://www.w3.org/2000/svg">
<path d="M11.2344 0C12.8282 0 14.4219 0 16.0156 0C16.5735 0.796871 16.6531 1.69335 16.1551 2.49022C15.8961 2.88866 15.936 3.08787 16.0953 3.42654C16.7926 4.90076 17.3703 6.43473 17.5297 8.0484C17.6293 9.08433 17.6692 9.84135 19.0039 9.58237C19.4223 9.50268 19.6414 10.0007 20 10.1601C20 10.957 20 11.7538 20 12.5507C19.6613 12.9691 18.8645 12.9292 18.8246 13.5468C18.7449 15.3995 17.8883 17.053 17.45 18.8062C17.2309 19.6429 16.7129 19.9417 15.8364 19.9417C11.9516 19.9018 8.08678 19.9018 4.20204 19.9417C3.36532 19.9417 2.84736 19.603 2.64814 18.846C2.17002 17.0929 1.31338 15.4593 1.27354 13.5866C1.27354 13.3874 1.25361 13.248 1.03447 13.1085C0.137995 12.5507 -0.240519 11.2757 0.157917 10.3195C0.317291 9.92104 0.616117 9.58237 1.03447 9.60229C1.77158 9.64214 1.83135 9.22378 1.9708 8.68589C2.56845 6.25544 4.8993 4.96052 7.17038 5.69763C7.86764 5.91677 8.52506 6.79332 9.34185 5.87692C10.3778 6.41481 10.2981 5.51833 10.5172 4.98044C10.7563 4.40271 10.9954 3.82498 11.2543 3.24725C11.354 3.02811 11.4336 2.88866 11.2344 2.62967C10.5571 1.77304 10.6766 0.876558 11.2344 0ZM9.97935 19.1249C11.9118 19.1249 13.8243 19.105 15.7567 19.1448C16.2547 19.1448 16.5735 19.0253 16.7328 18.5272C17.1313 17.1526 17.6094 15.8179 17.968 14.4433C18.2469 13.3476 18.0875 13.1683 16.9719 13.1683C16.6133 13.1683 16.2348 13.2081 15.8762 13.1683C15.3383 13.1085 15.1989 13.3476 15.2188 13.8456C15.2586 15.0808 15.1989 16.296 15.2387 17.5312C15.2785 18.328 14.8403 18.3679 14.2426 18.3679C13.645 18.3679 13.2067 18.348 13.2266 17.5511C13.2664 16.3159 13.2465 15.1007 13.2266 13.8656C13.2266 13.5667 13.3461 13.1484 12.7883 13.1882C12.2903 13.2281 12.4496 13.5866 12.4496 13.8456C12.4297 15.0808 12.4098 16.296 12.4496 17.5312C12.4696 18.3081 12.0512 18.3679 11.4536 18.3679C10.8758 18.3679 10.3977 18.348 10.4376 17.5511C10.4774 16.3159 10.4575 15.1007 10.4376 13.8656C10.4376 13.5667 10.577 13.1484 9.99927 13.1882C9.50123 13.2081 9.64068 13.5866 9.64068 13.8456C9.62076 15.0808 9.60084 16.296 9.64068 17.5312C9.6606 18.3081 9.26217 18.3878 8.64459 18.3679C8.06686 18.348 7.58874 18.3679 7.62858 17.5511C7.66842 16.3558 7.6485 15.1605 7.62858 13.9652C7.62858 13.6663 7.86764 13.1484 7.21022 13.1882C6.65241 13.2081 6.85163 13.6663 6.85163 13.9253C6.83171 15.021 6.81179 16.1167 6.85163 17.2124C6.87155 17.9296 6.83171 18.4077 5.87547 18.3878C4.99891 18.3679 4.79969 18.0491 4.83953 17.2523C4.8993 16.4355 4.85945 15.5987 4.85945 14.762C4.85945 13.1683 4.85945 13.1683 3.24579 13.1683C1.99072 13.1683 1.83135 13.3675 2.17002 14.6027C2.50869 15.8378 2.92704 17.073 3.28563 18.3081C3.46493 18.9655 3.84344 19.1647 4.52078 19.1448C6.33367 19.0851 8.14655 19.1249 9.97935 19.1249ZM9.93951 12.3515C12.7286 12.3515 15.5176 12.3316 18.3066 12.3714C19.1234 12.3913 19.2231 12.0327 19.2231 11.3554C19.2231 10.6781 19.1035 10.3394 18.3066 10.3394C12.7883 10.3792 7.28991 10.3792 1.77158 10.3394C0.974709 10.3394 0.855179 10.6781 0.855179 11.3554C0.855179 12.0327 0.974709 12.3913 1.77158 12.3714C4.48094 12.3316 7.21022 12.3515 9.93951 12.3515ZM16.8125 8.80542C16.6133 6.99254 16.0555 5.27927 15.2785 3.60584C14.9797 2.96834 14.5813 2.76913 13.9039 2.78905C12.2305 2.82889 12.2305 2.78905 11.6129 4.34295C11.3739 4.92068 11.1946 5.53825 10.9754 6.11598C10.8559 6.43473 10.836 6.65387 11.1946 6.85309C12.7684 7.70973 14.3024 8.62613 15.8762 9.46284C16.4141 9.74175 16.932 9.66206 16.8125 8.80542ZM3.96298 9.56245C5.27781 9.56245 5.27781 9.56245 6.17429 8.70581C6.55281 8.34722 6.9114 7.94879 7.32975 7.63004C8.08678 7.05231 7.74811 6.79332 7.09069 6.53434C5.61648 5.95661 3.92313 6.4945 3.12626 7.84918C2.84736 8.3273 2.46884 8.92495 2.72783 9.40308C2.94696 9.80151 3.58446 9.48276 3.96298 9.56245ZM6.53288 9.48276C9.14264 9.48276 11.5731 9.48276 14.2426 9.48276C12.609 8.56636 11.2145 7.76949 9.80005 6.97262C9.54107 6.83317 9.34185 6.79332 9.10279 7.03238C8.286 7.82926 7.44928 8.6062 6.53288 9.48276ZM13.6051 1.99218C14.0633 1.99218 14.5414 1.97226 14.9996 1.99218C15.4578 2.03202 15.6371 1.87265 15.6371 1.3746C15.6371 0.876558 15.4379 0.757027 14.9797 0.776949C14.0832 0.796871 13.1868 0.796871 12.2903 0.776949C11.8918 0.776949 11.6129 0.796871 11.6129 1.33476C11.6129 1.89257 11.8321 2.0121 12.3102 1.97226C12.7286 1.97226 13.1668 1.99218 13.6051 1.99218ZM6.13445 13.1882C5.93523 13.1882 5.75593 13.1882 5.55672 13.1882C5.55672 14.6226 5.55672 16.037 5.55672 17.4714C5.75593 17.4714 5.93523 17.4714 6.13445 17.4714C6.13445 16.0569 6.13445 14.6226 6.13445 13.1882ZM8.38561 17.4714C8.5649 17.4714 8.7442 17.4714 8.90357 17.4714C8.90357 16.037 8.90357 14.6226 8.90357 13.1882C8.72428 13.1882 8.54498 13.1882 8.38561 13.1882C8.38561 14.6226 8.38561 16.0569 8.38561 17.4714ZM11.1348 17.4913C11.334 17.4913 11.5133 17.4913 11.7125 17.4913C11.7125 16.0569 11.7125 14.6425 11.7125 13.2081C11.5133 13.2081 11.334 13.2081 11.1348 13.2081C11.1348 14.6226 11.1348 16.0569 11.1348 17.4913ZM13.9039 17.4913C14.0832 17.4913 14.2625 17.4913 14.4418 17.4913C14.4418 16.0569 14.4418 14.6226 14.4418 13.2081C14.2625 13.2081 14.0832 13.2081 13.9039 13.2081C13.9039 14.6226 13.9039 16.0569 13.9039 17.4913Z" fill="#727272"/>
</svg>
