<svg width="96" height="16" viewBox="0 0 96 16" fill="none" xmlns="http://www.w3.org/2000/svg">
<path d="M67.9999 1.33325L70.0599 5.50658L74.6666 6.17992L71.3333 9.42658L72.1199 14.0132L67.9999 11.8466L63.8799 14.0132L64.6666 9.42658L61.3333 6.17992L65.9399 5.50658L67.9999 1.33325Z" fill="white"/>
<path d="M47.9999 1.33325L50.0599 5.50658L54.6666 6.17992L51.3333 9.42658L52.1199 14.0132L47.9999 11.8466L43.8799 14.0132L44.6666 9.42658L41.3333 6.17992L45.9399 5.50658L47.9999 1.33325Z" fill="white"/>
<path d="M27.9999 2.46288L29.6116 5.7279C29.6843 5.87532 29.8249 5.97755 29.9876 6.00133L33.5924 6.52822L30.9844 9.0684C30.8665 9.18327 30.8126 9.34884 30.8405 9.5111L31.4558 13.0991L28.2326 11.404C28.087 11.3274 27.9129 11.3274 27.7672 11.404L24.544 13.0991L25.1594 9.5111C25.1872 9.34884 25.1334 9.18327 25.0155 9.0684L22.4075 6.52822L26.0122 6.00133C26.1749 5.97755 26.3155 5.87532 26.3883 5.7279L27.9999 2.46288Z" stroke="white" stroke-linecap="round" stroke-linejoin="round"/>
<path d="M7.99992 2.46288L9.61157 5.7279C9.68434 5.87532 9.82493 5.97755 9.98761 6.00133L13.5924 6.52822L10.9844 9.0684C10.8665 9.18327 10.8126 9.34884 10.8405 9.5111L11.4558 13.0991L8.23265 11.404C8.08696 11.3274 7.91289 11.3274 7.7672 11.404L4.54401 13.0991L5.15939 9.5111C5.18722 9.34884 5.13339 9.18327 5.01545 9.0684L2.40746 6.52822L6.01224 6.00133C6.17491 5.97755 6.31551 5.87532 6.38828 5.7279L7.99992 2.46288Z" stroke="white" stroke-linecap="round" stroke-linejoin="round"/>
<path d="M87.9999 1.33325L90.0599 5.50658L94.6666 6.17992L91.3333 9.42658L92.1199 14.0132L87.9999 11.8466L83.8799 14.0132L84.6666 9.42658L81.3333 6.17992L85.9399 5.50658L87.9999 1.33325Z" fill="white"/>
</svg>
