<svg width="76" height="78" viewBox="0 0 76 78" fill="none" xmlns="http://www.w3.org/2000/svg">
<path fill-rule="evenodd" clip-rule="evenodd" d="M60.6522 10.2318C42.6522 -7.54863 27.32 0.537678 24.6522 14.0838C21.9843 27.63 -2.79876 30.3347 0.261187 46.3347C3.32114 62.3347 36.6522 52.8347 36.6522 67.3347C36.6522 81.8347 75.1896 81.3347 75.1896 62.3347C75.1896 43.3347 78.6522 28.0122 60.6522 10.2318Z" fill="white" fill-opacity="0.2"/>
<mask id="mask0" mask-type="alpha" maskUnits="userSpaceOnUse" x="0" y="0" width="76" height="78">
<path fill-rule="evenodd" clip-rule="evenodd" d="M60.6522 10.2318C42.6522 -7.54863 27.32 0.537678 24.6522 14.0838C21.9843 27.63 -2.79876 30.3347 0.261187 46.3347C3.32114 62.3347 36.6522 52.8347 36.6522 67.3347C36.6522 81.8347 75.1896 81.3347 75.1896 62.3347C75.1896 43.3347 78.6522 28.0122 60.6522 10.2318Z" fill="white"/>
</mask>
<g mask="url(#mask0)">
<g opacity="0.2">
<rect width="76" height="78" fill="#1EA0C8"/>
</g>
</g>
<path d="M50.5 44V62C50.5 64.208 48.708 66 46.5 66H18.5C16.292 66 14.5 64.208 14.5 62V14C14.5 11.792 16.292 10 18.5 10H46.5C48.708 10 50.5 11.792 50.5 14V25.314" stroke="#333333" stroke-width="3" stroke-linecap="round" stroke-linejoin="round"/>
<path d="M14.5 60H50.5" stroke="#333333" stroke-width="3" stroke-linecap="round" stroke-linejoin="round"/>
<path d="M28.5 16H36.5" stroke="#333333" stroke-width="3" stroke-linecap="round" stroke-linejoin="round"/>
<path fill-rule="evenodd" clip-rule="evenodd" d="M56.5 26H36.5C34.292 26 32.5 27.792 32.5 30V40C32.5 42.208 34.292 44 36.5 44H38.5V52L46.5 44H56.5C58.708 44 60.5 42.208 60.5 40V30C60.5 27.792 58.708 26 56.5 26Z" stroke="#1EA0C8" stroke-width="3" stroke-linecap="round" stroke-linejoin="round"/>
</svg>
