<svg width="83" height="65" viewBox="0 0 83 65" fill="none" xmlns="http://www.w3.org/2000/svg">
<path d="M7.82668 42.7547V47.9482C7.82668 48.0501 7.86738 48.1315 7.94879 48.1926C8.00985 48.2334 8.07091 48.2537 8.15232 48.2537C8.19303 48.2537 8.21338 48.2537 8.25408 48.2334L9.16995 47.989C9.35313 47.9482 9.4956 47.7649 9.4956 47.602V45.3616L10.5539 47.3372C10.5743 47.3983 10.6964 47.5816 11.022 47.5001L12.1007 47.215C12.2839 47.1743 12.4264 46.991 12.4264 46.828V41.6345C12.4264 41.5327 12.3857 41.4512 12.3043 41.3901C12.2229 41.329 12.1211 41.3086 11.999 41.329L11.0831 41.5734C10.8999 41.6141 10.7575 41.7974 10.7575 41.9604V44.4044L9.69912 42.2659C9.63807 42.1233 9.4956 42.0215 9.25136 42.0826L8.17267 42.3677C7.94879 42.4085 7.82668 42.5918 7.82668 42.7547ZM2.37216 48.6407V49.3943C2.37216 49.4961 2.41287 49.5776 2.49428 49.6387C2.55534 49.6794 2.6164 49.6998 2.69781 49.6998C2.73851 49.6998 2.75886 49.6998 2.79957 49.6794L6.60552 48.6814C6.78869 48.6407 6.93116 48.4574 6.93116 48.2945V47.5409C6.93116 47.439 6.89046 47.3576 6.80904 47.2965C6.72763 47.2354 6.60552 47.215 6.50375 47.2354L5.50647 47.5001V44.5062L6.50375 44.2415C6.68693 44.2007 6.8294 44.0174 6.8294 43.8545V43.1009C6.8294 42.9991 6.78869 42.9176 6.70728 42.8565C6.62587 42.7954 6.50375 42.7751 6.40199 42.7954L2.79957 43.773C2.6164 43.8138 2.47393 43.9971 2.47393 44.16V44.9136C2.47393 45.0154 2.51463 45.0969 2.59604 45.158C2.67745 45.2191 2.79957 45.2394 2.90133 45.2191L3.79685 44.9747V47.9686L2.69781 48.2537C2.51463 48.2945 2.37216 48.4574 2.37216 48.6407ZM5.46577 27.1945C5.46577 26.1354 6.01529 25.4633 7.17539 25.1578C7.66386 25.0356 8.11162 25.0763 8.39655 25.3003C8.70184 25.5244 8.84431 25.9113 8.84431 26.4001V26.5427C8.84431 26.7668 8.92572 26.9501 9.08854 27.0723C9.23101 27.1741 9.41419 27.2148 9.59736 27.1741L12.1007 26.502C12.4467 26.4001 12.7317 26.0335 12.7317 25.6262V25.4836C12.7317 23.7932 12.1618 22.4286 11.1442 21.6547C10.1265 20.8604 8.70184 20.6771 7.05328 21.1251C3.73579 22.0213 1.33418 24.9337 1.33418 28.0702C1.33418 31.0438 2.90133 32.6731 5.87282 32.7546C8.92572 32.8564 8.92572 33.4063 8.92572 34.4247C8.92572 35.5245 8.19303 36.3595 6.93116 36.7057C6.32058 36.8687 5.79141 36.8076 5.42506 36.5428C5.09942 36.2984 4.9366 35.8911 4.9366 35.3412V34.8116C4.9366 34.5876 4.85519 34.4043 4.69237 34.2821C4.5499 34.1803 4.36672 34.1395 4.18355 34.1803L1.55806 34.8931C1.21206 34.9949 0.927124 35.3615 0.927124 35.7689V36.2984C0.927124 38.0092 1.497 39.3331 2.57569 40.1681C3.30839 40.718 4.22426 41.0031 5.26224 41.0031C5.81176 41.0031 6.40199 40.9217 7.01257 40.7587C10.615 39.8015 13.0166 36.7465 13.0166 33.1619C13.0166 30.1476 11.4902 28.6405 8.33549 28.5387C5.68965 28.4572 5.46577 27.948 5.46577 27.1945ZM28.7899 34.6487V8.21259C28.7899 7.82563 28.505 7.43866 28.1386 7.35719L24.7397 6.44068C24.3937 6.33885 24.0885 6.58325 24.0885 6.94985V20.4938C24.0885 20.6974 23.9663 20.7993 23.7628 20.7585L20.1604 19.8013C19.9772 19.7402 19.8347 19.5773 19.8347 19.3736V12.0008C19.8347 11.6139 19.5498 11.2269 19.1835 11.1454L15.7846 10.2289C15.4386 10.1271 15.1333 10.3715 15.1333 10.7381V31.003C15.1333 31.39 15.4182 31.777 15.7846 31.8584L19.0206 32.7342C19.3666 32.8361 19.8144 32.6324 19.8144 32.2658V25.3003C19.8144 25.0967 19.9365 24.9948 20.14 25.0356L23.7425 25.9928C23.9256 26.0539 24.0681 26.2168 24.0681 26.4205V33.386C24.0681 33.7729 24.353 34.1599 24.7194 34.2414L28.1183 35.1579C28.505 35.2597 28.7899 35.0357 28.7899 34.6487ZM24.8212 43.4472C24.8212 44.8525 23.8849 45.606 22.5824 45.2598L20.0383 44.5877C19.8551 44.5266 19.7126 44.3637 19.7126 44.16V40.0255C19.7126 39.8219 19.8347 39.72 20.0383 39.7608L22.5824 40.4329C23.8849 40.7791 24.8212 42.0418 24.8212 43.4472ZM29.4616 44.6895C29.4616 40.3921 26.7343 36.7261 22.7248 35.6467L15.8456 33.8137C15.4996 33.7118 15.1943 33.9562 15.1943 34.3228V54.4452C15.1943 54.8322 15.4793 55.2192 15.8456 55.3006L19.0613 56.156C19.4073 56.2579 19.7126 56.0135 19.7126 55.6469V49.6387C19.7126 49.435 19.8347 49.3332 20.0383 49.3739L22.7452 50.1071C26.775 51.2069 29.4616 49.0073 29.4616 44.6895ZM40.5945 52.5104C40.5945 54.4452 40.5538 56.6041 40.3299 57.5002C40.0653 58.5797 39.76 59.2111 38.9256 59.4351C38.0911 59.6591 37.7654 59.1907 37.5212 58.2742C37.3177 57.5206 37.277 55.545 37.2566 53.6917C37.2566 53.3862 37.2566 12.5915 37.2566 12.3063C37.2566 10.4326 37.2973 8.3959 37.5212 7.52012C37.7858 6.44068 38.0911 5.80931 38.9256 5.58528C39.76 5.36124 40.0857 5.82968 40.3299 6.74619C40.5334 7.49976 40.5741 9.51607 40.5945 11.3898C40.5945 11.675 40.5945 52.3067 40.5945 52.5104ZM45.7233 51.8383C45.7233 51.5328 45.7233 9.7401 45.7233 9.39387C45.703 6.72582 45.5809 4.60767 44.9092 3.08016C43.8916 0.758347 42.0802 -0.585862 38.9256 0.249177C35.7709 1.10458 33.9391 3.4264 32.9215 6.29812C32.2499 8.17186 32.1278 10.3511 32.1074 12.9988C32.1074 13.3654 32.1074 55.1988 32.1074 55.4839C32.1278 58.2131 32.2295 60.372 32.9215 61.9198C33.9391 64.2417 35.7505 65.5859 38.9052 64.7508C42.0599 63.8954 43.8713 61.594 44.8889 58.7223C45.6012 56.8078 45.703 54.5674 45.7233 51.8383ZM53.5591 35.1171C53.5591 34.9135 53.6812 34.8116 53.8848 34.8524L56.612 35.5856C57.9349 35.9318 58.8508 37.1945 58.8508 38.5999C58.8508 40.0052 57.9146 40.7587 56.612 40.4125L53.8848 39.6793C53.7016 39.6182 53.5591 39.4553 53.5591 39.2516V35.1171ZM49.0612 29.4348V56.4615C49.0612 56.8485 49.3461 57.2355 49.7125 57.3169L52.9282 58.1724C53.2742 58.2742 53.5795 58.0298 53.5795 57.6632V44.7506C53.5795 44.547 53.7016 44.4451 53.9051 44.4859L54.7396 44.7099C55.0042 44.771 55.228 45.0154 55.3095 45.3209L58.0774 55.8302C58.2606 56.3597 58.4641 56.543 58.8712 56.6652L62.0869 57.5206C62.5753 57.6428 62.8806 57.3984 62.8806 56.9503C62.8806 56.7467 62.8399 56.6245 62.7178 56.2579L59.9906 46.1356C59.8684 45.7486 59.8277 45.5857 59.8277 45.4431C59.8277 45.2394 59.9499 45.1376 60.1737 45.0561C62.4532 44.2618 63.5116 42.551 63.5116 39.8626C63.5116 35.5652 60.7843 31.8992 56.7748 30.8197L49.7125 28.9256C49.3461 28.8238 49.0612 29.0682 49.0612 29.4348ZM59.9702 16.1149C59.9702 16.1556 59.9702 16.1964 59.9702 16.2371C59.9092 17.561 58.9933 18.2738 57.7314 17.9276L53.8848 16.9092C53.7016 16.8481 53.5591 16.6852 53.5591 16.4815V12.3471C53.5591 12.1434 53.6812 12.0416 53.8848 12.0823L57.7314 13.1006C59.034 13.4672 59.9702 14.7096 59.9702 16.1149ZM64.6106 17.4999C64.6106 17.4591 64.6106 17.4184 64.6106 17.3777C64.6106 13.0803 61.8834 9.41424 57.8739 8.3348L49.6921 6.15555C49.3461 6.05371 49.0408 6.29812 49.0408 6.66472V26.0946C49.0408 26.4816 49.3258 26.8686 49.6921 26.9501L52.9078 27.8055C53.2538 27.9073 53.5591 27.6629 53.5591 27.2963V21.9806C53.5591 21.7769 53.6812 21.675 53.8848 21.7158L57.8942 22.7952C61.8834 23.8747 64.5699 21.7158 64.6106 17.4999ZM77.1479 25.0763V21.6343C77.1479 21.2473 76.8629 21.0233 76.4966 21.1251L60.4383 25.4225C60.0923 25.5244 59.787 25.9113 59.787 26.2779V29.7199C59.787 30.1069 60.072 30.3309 60.4383 30.2291L65.6079 28.8442C65.7911 28.7831 65.9335 28.9053 65.9335 29.1089V51.268C65.9335 51.655 66.2185 51.879 66.5848 51.7772L69.8006 50.9218C70.1465 50.8199 70.4518 50.433 70.4518 50.0664V27.9073C70.4518 27.7036 70.574 27.5203 70.7775 27.4796L76.5169 25.9317C76.8629 25.8502 77.1479 25.4633 77.1479 25.0763ZM79.061 37.1742C79.061 37.1945 79.061 37.2353 79.061 37.2556C79.0407 38.9054 78.9796 39.9237 78.8575 40.3514C78.7557 40.7384 78.5725 41.0031 78.3487 41.1253C78.1859 41.2068 77.9823 41.2272 77.7381 41.1661C77.1479 41.0235 76.7408 40.5347 76.5373 39.72C76.4152 39.2516 76.3541 38.274 76.3338 36.7261C76.3338 36.5224 76.3338 36.4817 76.3338 36.441C76.3338 36.4206 76.3338 36.3799 76.3338 36.1558C76.3541 34.6283 76.4152 33.6915 76.5373 33.2841C76.639 32.8972 76.8222 32.6324 77.0461 32.5102C77.1479 32.4491 77.2496 32.4287 77.3921 32.4287C77.4735 32.4287 77.5753 32.4491 77.6567 32.4695C78.2469 32.612 78.654 33.1008 78.8575 33.9155C78.9796 34.4043 79.0407 35.443 79.061 37.0723C79.061 37.1131 79.061 37.1538 79.061 37.1742ZM82.7448 37.6426V37.4797C82.7245 36.0947 82.6227 34.4858 82.1953 33.1008C81.4219 30.6568 79.7937 28.9664 77.7381 28.4572C75.6418 27.948 73.9932 28.8849 73.1994 31.003C72.772 32.1843 72.6703 33.7118 72.6499 35.1782V35.4023C72.6499 35.6263 72.6499 35.6263 72.6499 35.8707V36.054C72.6703 37.5612 72.772 39.1498 73.1994 40.5347C73.9728 42.9787 75.6011 44.6692 77.6567 45.1783C78.023 45.2598 78.3894 45.3209 78.7354 45.3209C80.3229 45.3209 81.544 44.384 82.1953 42.6325C82.6227 41.4512 82.7245 39.9237 82.7448 38.4573V38.3351C82.7652 37.9685 82.7652 37.9685 82.7448 37.6426Z" fill="white"/>
</svg>
