<svg width="25" height="24" viewBox="0 0 25 24" fill="none" xmlns="http://www.w3.org/2000/svg">
<path d="M16.1065 14H15.3165L15.0365 13.73C16.0165 12.59 16.6065 11.11 16.6065 9.5C16.6065 5.91 13.6965 3 10.1065 3C6.51651 3 3.60651 5.91 3.60651 9.5C3.60651 13.09 6.51651 16 10.1065 16C11.7165 16 13.1965 15.41 14.3365 14.43L14.6065 14.71V15.5L19.6065 20.49L21.0965 19L16.1065 14ZM10.1065 14C7.61651 14 5.60651 11.99 5.60651 9.5C5.60651 7.01 7.61651 5 10.1065 5C12.5965 5 14.6065 7.01 14.6065 9.5C14.6065 11.99 12.5965 14 10.1065 14Z" fill="white"/>
</svg>
