<svg width="48" height="48" viewBox="0 0 48 48" fill="none" xmlns="http://www.w3.org/2000/svg">
<path d="M24.9373 38.9004C24.9373 33.9991 24.9373 34.0899 20.036 33.5453C17.903 33.3184 16.7684 33.5907 15.4523 35.6329C14.2724 37.4482 12.6386 38.1289 15.3616 40.035C16.8592 41.0788 15.4977 43.711 13.4555 43.9833C12.2756 44.1194 11.0502 43.9379 9.82489 44.074C7.73729 44.301 6.37581 43.8471 6.82964 41.3511C6.96579 40.5342 6.4212 40.2165 5.74046 39.9442C3.60747 39.082 2.56367 37.4028 2.83596 35.0883C3.15364 32.3199 3.56209 29.5516 4.10668 26.7833C4.96895 22.5173 8.05497 19.7943 12.3663 19.2497C13.864 19.0682 15.407 19.0228 16.9046 19.0228C23.4851 18.9774 27.6149 15.3014 30.474 9.81014C31.3817 8.04022 32.5162 6.45183 33.7869 4.9542C34.6946 3.9104 35.5569 3.68349 36.0561 5.27188C36.6914 7.17795 37.4629 8.81173 39.5505 9.58323C40.322 9.85553 40.549 10.8539 40.912 11.5801C41.2297 12.17 41.4566 12.8508 42.2281 13.0323C44.0434 13.4408 45.0872 14.6661 44.8603 16.436C44.6334 18.4782 43.1812 19.9305 41.1843 20.2482C39.5959 20.4751 39.2782 21.1558 39.0967 22.4719C38.5067 26.9648 36.6007 30.8223 33.1062 33.8176C31.3363 35.3152 31.3363 37.7659 33.0154 39.2181C33.8323 39.8988 34.1954 40.8065 33.9685 41.8503C33.7416 42.8941 33.0608 43.6202 32.0624 43.8925C31.5178 44.0741 30.8824 44.0287 30.2471 44.0287C24.9373 44.1648 24.9373 44.1648 24.9373 38.9004ZM34.74 7.08719C33.6508 7.72254 33.0608 8.49405 32.7885 9.31094C31.3363 13.5315 28.2049 16.2545 24.7558 18.7959C23.2582 19.8851 23.9843 21.065 25.1189 21.9273C28.7495 24.7864 29.7025 26.8286 27.8872 31.0038C26.4349 34.3622 26.9795 37.6297 26.7526 40.988C26.7072 41.8957 26.9342 42.3949 27.978 42.3495C28.9764 42.2587 29.9294 42.3495 30.9278 42.3041C31.5178 42.3041 32.017 42.1226 32.0624 41.4872C32.1078 40.8065 31.654 40.5796 31.064 40.5342C30.474 40.4888 29.8386 40.5342 29.5664 39.8081C29.1579 38.7643 30.5648 33.636 31.5178 32.9099C35.0577 30.1416 36.7368 26.3748 37.3268 22.0181C37.4176 21.4735 37.826 20.7927 36.873 20.5658C36.3284 20.4297 35.8292 20.2028 35.9199 19.522C36.0561 18.7505 36.7368 18.7505 37.3268 18.7505C38.4614 18.7505 39.5959 18.7959 40.7305 18.6598C41.9558 18.5236 42.8635 17.7067 42.9996 16.4814C43.1358 15.3014 42.1373 15.0292 41.2297 14.8022C40.1859 14.5753 39.8682 13.7131 39.4144 12.9415C39.0059 12.2154 38.8244 11.0355 38.0529 10.9447C35.8292 10.627 35.4207 8.81173 34.74 7.08719ZM5.51354 30.6862C8.59956 30.3685 8.59956 30.3685 8.59956 33.4999C8.59956 34.0445 8.59956 34.5437 8.59956 35.0883C8.59956 35.4513 8.69033 35.769 9.14415 35.9506C11.5494 36.9036 14.3632 35.6329 14.817 33.0914C15.0893 31.5031 15.8608 31.3215 17.1315 31.5031C19.4006 31.7754 21.6244 31.9569 23.8935 32.1838C24.4835 32.2292 25.0735 32.4107 25.6181 31.9115C26.9342 30.6408 27.0703 25.921 25.845 24.6503C22.1236 20.7474 22.1236 20.7474 16.6323 20.9743C15.7246 21.0197 14.817 21.0197 13.9093 21.065C8.19112 21.292 5.15048 24.741 5.51354 30.6862ZM10.9595 42.3041C11.4133 42.3041 11.8217 42.3041 12.1848 42.3041C12.9109 42.2587 13.864 42.4857 13.9547 41.3965C14.0001 40.4434 13.1378 40.5342 12.4571 40.4434C11.2771 40.3527 11.3225 39.445 11.3225 38.5828C11.3225 37.8566 10.9141 37.6751 10.3241 37.7205C9.77951 37.7659 8.82648 37.4028 8.73571 38.0835C8.55418 39.3089 8.41803 40.7157 8.78109 41.8503C9.00801 42.758 10.2787 42.1226 10.9595 42.3041ZM6.87502 35.406C6.37581 34.5437 7.465 32.9099 6.1489 32.8192C4.74204 32.7284 4.56051 34.3622 4.56051 35.5875C4.51512 36.8128 5.05971 38.2197 6.23966 38.0835C7.55576 37.902 6.37581 36.2682 6.87502 35.406Z" fill="#2E2E2E"/>
</svg>
