<svg width="48" height="48" viewBox="0 0 48 48" fill="none" xmlns="http://www.w3.org/2000/svg">
<path d="M4 25.84C5.11616 23.8868 6.6708 22.8504 9.0227 23.0098C10.2186 23.0895 11.2949 22.9699 11.2151 24.7239C11.1753 25.9596 12.2914 25.3617 12.8894 25.4016C13.8062 25.4414 13.4475 24.7239 13.4076 24.2455C13.0887 21.9335 12.4509 21.3754 10.2186 21.3754C7.18902 21.3754 4.51821 17.15 5.7141 14.3197C5.87355 13.9211 6.15259 13.6421 6.55121 13.5623C9.54092 13.0043 14.2447 14.6785 13.3677 18.9837C13.1684 20.0201 13.5272 20.618 14.2048 21.216C15.0818 19.7012 15.4805 18.2263 15.2413 16.3926C14.7231 12.2867 16.6763 9.57607 20.5829 8.18088C21.8186 7.74239 22.2173 8.10116 22.5362 9.25717C23.8118 13.6421 22.297 16.8709 18.1114 18.8242C16.6365 19.5019 14.8028 23.4483 15.2811 24.9631C15.5203 25.7603 16.1183 25.4016 16.5966 25.4414C17.1946 25.5211 17.6729 25.4016 17.5932 24.6043C17.4337 23.1693 18.3107 23.0098 19.4667 23.0497C22.5362 23.0895 25.5657 23.0895 28.6351 23.0497C29.7114 23.0497 30.4688 23.249 30.3891 24.5644C30.3094 25.84 31.3059 25.4016 31.9437 25.4414C32.9403 25.5211 32.7011 24.8036 32.6214 24.2455C32.2627 21.9335 31.7046 21.4153 29.3925 21.4153C26.4028 21.4153 23.6922 17.1101 24.9279 14.3197C25.0874 13.9211 25.3664 13.6421 25.8049 13.6022C28.954 13.0441 33.4984 14.8379 32.5816 19.0634C32.3822 20.06 32.741 20.6579 33.4187 21.2558C34.2558 19.7809 34.6943 18.3857 34.4551 16.5919C33.897 12.5259 35.651 9.93482 39.4379 8.34031C41.0324 7.66265 41.5507 8.22073 41.8696 9.69565C42.8263 14.1603 41.4709 16.9507 37.2854 18.8641C35.8104 19.5417 33.9767 23.6077 34.495 25.0428C34.774 25.8002 35.3719 25.4414 35.8503 25.4813C36.4482 25.561 36.8867 25.3617 36.807 24.6442C36.6475 23.1692 37.6043 23.1294 38.7204 23.0895C42.5871 23.0496 43.9823 24.4448 43.9823 28.3514C43.9823 30.5438 44.0221 32.7363 43.9823 34.9287C43.9026 37.4401 42.3479 39.0346 39.8366 39.0346C29.3527 39.0745 18.8688 39.0346 8.3849 39.0745C6.31204 39.0745 5.15602 37.8387 4.15945 36.2841C4 32.7363 4 29.3081 4 25.84ZM5.59451 28.8696C5.59451 32.0586 6.19245 32.537 8.78352 31.381C9.10243 31.2614 9.42133 31.1019 9.6605 30.9026C10.4179 30.2249 11.0557 30.2648 11.9327 30.8627C14.0454 32.2978 16.3176 32.2978 18.4303 30.8627C19.3073 30.2648 19.8654 30.3047 20.7025 30.9026C22.6956 32.2579 24.8482 32.3775 26.8812 31.062C28.0372 30.3047 28.8345 30.3445 29.8709 31.1418C30.9073 31.939 32.3822 32.3377 33.4585 31.8194C35.9699 30.5837 38.2819 30.4641 40.7135 31.8194C41.1122 32.0188 42.1885 32.3377 42.2283 31.2215C42.3081 29.627 42.3479 28.0325 42.1087 26.4778C41.9094 25.2421 40.8331 24.8036 39.5974 24.684C38.2819 24.5644 38.2819 25.282 38.2421 26.2387C38.2022 27.1555 37.4049 27.1157 36.7273 27.1157C34.6145 27.1157 32.5018 27.0758 30.3492 27.1157C29.3527 27.1157 28.5953 26.9163 28.7149 25.7205C28.8345 24.7239 28.1967 24.7239 27.4791 24.7239C25.2867 24.7239 23.0942 24.7638 20.9018 24.7239C19.8255 24.684 18.9485 24.6442 19.0681 26.1988C19.1478 27.1157 18.3107 27.1157 17.633 27.1157C15.4406 27.1157 13.2481 27.1157 11.0557 27.1157C10.099 27.1157 9.46119 26.8366 9.58078 25.7603C9.6605 24.8036 9.18215 24.684 8.3849 24.684C6.23231 24.6442 5.59451 25.6009 5.59451 28.8696ZM23.9313 37.4002C28.8345 37.4002 33.7376 37.4002 38.6407 37.4002C39.2386 37.4002 39.8764 37.4401 40.4345 37.3205C41.8696 36.9219 42.308 35.8057 42.308 34.4105C42.308 32.8559 41.0723 33.693 40.4744 33.3741C38.2421 32.2181 36.0097 32.3377 33.7376 33.3342C33.1396 33.6133 32.1829 33.6133 31.585 33.3342C29.3527 32.2579 27.2798 32.5768 25.0475 33.3342C23.2138 33.972 21.4599 32.4971 19.7059 32.3775C17.9519 32.2579 16.0784 34.0119 14.2048 33.3342C11.853 32.4572 9.74023 32.2579 7.46805 33.3741C6.79039 33.693 5.51478 32.9755 5.59451 34.6497C5.67423 36.0847 6.19245 37.0813 7.6275 37.4002C8.14572 37.5198 8.66393 37.4401 9.22201 37.4401C14.1251 37.4002 19.0282 37.4002 23.9313 37.4002ZM21.2207 12.0476C20.6227 11.6888 22.1774 9.57608 20.0248 10.2537C17.5135 11.051 16.1183 14.0806 16.7561 16.552C16.9554 17.3892 17.354 17.2297 17.9121 17.0304C20.0248 16.3129 21.1808 14.6386 21.2207 12.0476ZM40.3548 12.1273C40.1953 11.5293 40.6737 10.453 39.8764 10.0943C39.1589 9.77538 38.4414 10.5726 37.8036 11.051C35.8503 12.4063 35.651 14.3994 35.8503 16.5122C35.9699 17.5486 36.528 17.2297 37.1259 16.9905C39.3183 16.1534 40.3149 14.6386 40.3548 12.1273ZM11.8928 18.3459C11.8928 16.3926 9.26188 14.5589 7.74709 15.1568C7.46806 15.2764 7.34847 15.4359 7.26874 15.7149C6.71066 17.3891 8.50448 19.8208 10.2584 19.8208C11.4145 19.7809 11.9327 19.2627 11.8928 18.3459ZM27.519 15.117C26.4826 15.0771 26.363 15.1967 26.363 16.1933C26.363 18.1067 27.7183 19.741 29.3128 19.7809C30.429 19.8208 31.0269 19.3424 31.0269 18.1466C31.0269 16.5122 29.4723 15.1967 27.519 15.117Z" fill="#2E2E2E"/>
</svg>
