<svg width="48" height="48" viewBox="0 0 48 48" fill="none" xmlns="http://www.w3.org/2000/svg">
<path d="M4 16.0307C4.95832 14.713 5.717 13.1957 7.39406 12.5968C7.51385 12.5568 7.7135 12.477 7.7135 12.3971C8.99126 8.44402 12.1857 11.279 14.3419 10.4804C15.1804 12.0377 16.6179 12.1974 18.2151 12.0776C19.0537 12.0377 19.5328 11.8381 19.8523 10.9995C20.6109 8.84332 22.1682 7.92493 24.4842 8.00479C26.88 8.08465 29.2758 8.08465 31.6716 8.00479C33.7879 7.92493 35.2653 8.84332 36.024 10.7999C36.3833 11.7582 36.9423 12.0377 37.9406 12.0377C41.8138 12.1176 43.9701 14.3137 43.9701 18.147C44.01 23.4178 44.01 28.6486 43.9701 33.9194C43.9301 37.6329 41.694 39.9489 38.0205 39.9489C28.7167 39.9888 19.413 39.9089 10.1093 39.9888C7.11455 39.9888 5.39755 38.3117 4.03993 35.9958C4 29.3275 4 22.6991 4 16.0307ZM23.9251 38.3916C28.4372 38.3916 32.9893 38.3916 37.5014 38.3916C40.8954 38.3916 42.3329 36.9541 42.3329 33.4802C42.3329 28.6087 42.3329 23.7772 42.3329 18.9057C42.3329 14.9127 41.0951 13.6349 37.1021 13.6349C35.8243 13.6349 35.1056 13.2756 34.7861 12.0377C34.267 10.2409 33.1091 9.4822 31.2323 9.60199C28.9563 9.72178 26.7202 9.68185 24.4442 9.60199C22.8869 9.56206 21.729 10.161 21.3696 11.5985C20.8904 13.4353 19.8123 13.8346 18.1353 13.6349C17.2169 13.5151 16.2585 13.6349 15.3402 13.595C14.8211 13.595 14.262 13.6749 13.8228 13.2356C12.1058 11.4388 10.9478 11.4787 9.35064 13.2755C9.15099 13.5151 8.79161 13.6349 8.5121 13.7148C6.39581 14.4735 5.5972 16.0307 5.5972 18.187C5.63713 23.298 5.5972 28.449 5.5972 33.5601C5.5972 36.8343 7.07462 38.3117 10.3489 38.3117C14.9009 38.3916 19.413 38.3916 23.9251 38.3916Z" fill="#2E2E2E"/>
<path d="M38.3399 25.5341C38.3798 31.2441 33.708 35.9958 27.998 35.9958C22.288 35.9958 17.5762 31.324 17.5762 25.614C17.5762 19.9838 22.1682 15.312 27.7984 15.2322C33.5483 15.1523 38.3 19.8241 38.3399 25.5341ZM27.8782 34.3986C32.7098 34.4385 36.6628 30.5653 36.7427 25.7737C36.8226 20.9422 32.9493 16.9491 28.1577 16.8693C23.2463 16.7894 19.2134 20.7026 19.1734 25.614C19.1734 30.4056 23.0467 34.3587 27.8782 34.3986Z" fill="#2E2E2E"/>
<path d="M9.67008 19.2251C8.79161 19.1453 8.15273 18.7061 8.07287 17.7877C7.99301 16.7894 8.55203 16.1505 9.55029 16.0707C10.5485 16.0307 11.1475 16.6696 11.1475 17.6679C11.1475 18.5463 10.5086 19.0654 9.67008 19.2251Z" fill="#2E2E2E"/>
</svg>
