<svg width="48" height="48" viewBox="0 0 48 48" fill="none" xmlns="http://www.w3.org/2000/svg">
<path d="M24.3532 5C26.1845 6.6232 27.9741 8.20478 29.8054 9.82798C30.8876 10.7853 32.053 11.035 33.4681 10.5772C35.0497 10.0777 36.6312 9.53664 38.2544 9.28692C42.1668 8.62099 44.5391 11.1598 43.7483 15.0722C43.7067 15.2803 43.6651 15.4884 43.5819 15.6549C42.2084 18.4851 42.1668 21.2736 43.6235 24.1455C44.4559 25.727 43.7484 27.4335 43.0408 28.9318C42.2084 30.6799 42.0835 32.3447 43.0408 34.0928C43.124 34.2593 43.1657 34.4674 43.2489 34.6755C43.9148 36.8397 44.5808 39.004 42.8327 40.9602C41.0846 42.958 38.7539 42.7499 36.6728 41.9174C33.5097 40.6688 30.5546 40.8353 27.4331 41.9174C24.3532 42.958 21.2733 42.3336 18.2766 41.3348C16.4869 40.7521 14.8221 40.7104 13.0324 41.4596C11.5756 42.0423 9.99407 42.4585 8.37087 42.4169C5.74877 42.3753 3.95909 40.5856 4.00071 37.9219C4.00071 36.5068 4.33367 35.1333 4.95798 33.9263C5.74877 32.3031 5.70715 30.7631 4.91636 29.1816C3.70936 26.8508 3.75098 24.52 4.95798 22.1893C5.70715 20.7326 5.74877 19.3591 5.04123 17.8191C4.41692 16.4873 4.04233 15.0722 4.04233 13.6155C4.00071 10.9934 5.79039 9.16206 8.4541 9.16206C10.4103 9.16206 12.2832 9.78636 14.1145 10.4523C15.8209 11.035 17.1944 10.7853 18.4847 9.53664C20.1495 7.95506 21.8976 6.49834 23.604 5C23.8121 5 24.0618 5 24.3532 5ZM38.9204 40.7521C41.2511 40.7937 42.3749 39.7116 42.1668 37.7138C42.0835 36.7565 41.8754 35.7576 41.4592 34.9252C40.3355 32.6361 40.4187 30.3885 41.5008 28.141C42.2084 26.7259 42.5413 25.2276 41.7506 23.7709C40.4187 21.2736 40.3771 18.8596 41.6257 16.2376C42.2916 14.8641 42.7911 13.116 41.5841 11.7009C40.3355 10.2442 38.6706 10.8269 37.1307 11.1598C36.7145 11.2431 36.2983 11.3263 35.9237 11.4928C33.4681 12.6582 31.0125 12.5333 28.4736 11.6177C25.4353 10.4939 22.3554 10.5355 19.3171 11.6177C16.7782 12.5333 14.4058 12.4501 11.867 11.4928C10.1189 10.8269 8.0379 9.91123 6.37308 11.5761C4.70825 13.2825 5.91525 15.197 6.45632 17.0283C6.49794 17.2364 6.58119 17.4029 6.70605 17.611C7.4136 19.151 7.49684 20.691 6.66442 22.1893C5.41581 24.4368 5.45743 26.6427 6.6228 28.9318C7.49683 30.6383 7.45522 32.3447 6.66442 34.1344C6.2066 35.1749 5.87364 36.3819 5.70716 37.5057C5.45743 39.6283 6.58118 40.7937 8.70383 40.7104C10.1189 40.6688 11.4508 40.2942 12.741 39.7532C14.6556 38.9624 16.4869 38.8791 18.4014 39.5867C22.1473 41.0018 25.8515 40.9602 29.5557 39.5867C31.4703 38.8791 33.3016 38.9624 35.2161 39.7532C36.4647 40.3775 37.8382 40.7104 38.9204 40.7521ZM21.523 9.12044C23.2294 9.12044 24.6861 9.12044 26.2677 9.12044C23.9786 6.83131 23.9786 6.83131 21.523 9.12044Z" fill="#2E2E2E"/>
<path d="M23.7289 37.464C19.8998 37.464 16.1123 37.464 12.2832 37.464C9.74435 37.464 8.95356 36.6316 8.95356 34.0928C8.95356 28.5572 8.95356 23.0217 8.95356 17.4445C8.95356 15.0306 9.78597 14.1565 12.1583 14.1565C19.983 14.1565 27.8077 14.1565 35.674 14.1565C38.0463 14.1565 38.9204 15.0306 38.9204 17.4029C38.9204 22.9385 38.9204 28.474 38.9204 34.0512C38.9204 36.6733 38.088 37.464 35.3826 37.464C31.5119 37.464 27.6412 37.464 23.7289 37.464ZM23.7289 35.7992C27.5996 35.7992 31.4703 35.7576 35.341 35.8408C36.7561 35.8825 37.2972 35.383 37.2555 33.9263C37.1723 28.5156 37.1723 23.1466 37.2555 17.7359C37.2555 16.2792 36.7977 15.8213 35.341 15.8213C27.7244 15.863 20.1079 15.863 12.4913 15.8213C11.0762 15.8213 10.5351 16.2792 10.5768 17.7359C10.66 23.1466 10.66 28.5156 10.5768 33.9263C10.5768 35.383 11.0346 35.8825 12.4913 35.8408C16.2372 35.7576 19.983 35.7992 23.7289 35.7992Z" fill="#2E2E2E"/>
<path d="M24.478 17.6527C26.018 19.4007 29.5974 19.5672 30.6795 21.7315C31.8449 24.0206 31.9281 27.6832 30.6379 29.8059C29.4309 31.8036 26.2261 33.6766 23.937 33.6349C21.5646 33.5933 18.3182 31.7204 17.1112 29.681C15.9458 27.6416 16.8198 24.3952 16.9031 21.6898C16.9031 21.2736 17.6939 20.5245 17.9852 20.6077C20.7738 21.0239 21.523 17.611 24.478 17.6527ZM21.2316 29.1399C22.1889 29.3064 22.3138 29.9723 22.3554 30.8047C22.397 31.6372 22.9797 32.2198 23.8537 32.2198C24.811 32.2198 25.4353 31.6372 25.4353 30.6799C25.4769 29.2648 25.9347 28.7653 27.2666 29.5561C28.1406 30.0556 28.8898 29.8059 29.3892 29.0151C29.8887 28.2659 29.6806 27.4751 28.9314 27.0173C27.5163 26.1849 27.6828 25.4773 28.8898 24.6033C29.5557 24.1038 29.8887 23.3963 29.4309 22.6055C29.0147 21.8563 28.2655 21.3985 27.5163 21.8563C25.8931 22.8552 25.5186 22.1477 25.3521 20.6077C25.2688 19.7753 24.6445 19.2342 23.7705 19.2759C22.9381 19.3175 22.2721 19.8585 22.2721 20.7326C22.2721 22.3142 21.8143 22.8136 20.316 21.8979C19.5252 21.3985 18.8176 21.7315 18.3182 22.3974C17.7771 23.1466 17.902 23.979 18.6095 24.3952C20.1495 25.2692 20.0246 26.0184 18.6511 26.934C17.9436 27.3919 17.7355 28.1827 18.2349 28.9318C18.776 29.7226 19.4836 29.9723 20.3992 29.4729C20.7738 29.4729 21.0235 29.3064 21.2316 29.1399Z" fill="#2E2E2E"/>
<path d="M27.2666 25.8935C27.225 27.6832 25.6434 29.1815 23.8537 29.0983C22.064 29.0567 20.5657 27.4751 20.6489 25.6854C20.6906 23.8957 22.2721 22.3974 24.0618 22.4806C25.8515 22.5639 27.3082 24.1038 27.2666 25.8935ZM25.6018 25.8103C25.5185 24.9779 25.0607 24.2703 24.1035 24.1871C23.0629 24.1038 22.3554 24.6865 22.3138 25.727C22.2721 26.7676 22.8965 27.4335 23.937 27.4335C24.8942 27.4335 25.4353 26.8092 25.6018 25.8103Z" fill="#2E2E2E"/>
</svg>
