<svg width="48" height="48" viewBox="0 0 48 48" fill="none" xmlns="http://www.w3.org/2000/svg">
<path d="M37.1142 18.5398C37.1142 22.6902 37.1142 26.7532 37.1142 30.8163C37.1142 38.1559 31.4783 43.6607 24.0076 43.6607C16.4932 43.6607 10.901 38.1997 10.901 30.86C10.901 27.2775 10.8573 23.7387 10.901 20.1563C10.901 19.0204 10.8136 18.234 9.4156 18.7145C6.96904 19.5446 6.00789 18.4087 5.61469 16.1806C5.30887 14.6078 4.78461 13.0787 4.21666 11.5933C3.73609 10.3263 4.0419 9.71468 5.26518 9.2778C8.97871 8.01083 12.6049 6.52542 16.3621 5.4332C18.7213 4.73419 21.2989 5.4769 23.7455 5.17108C30.6483 4.25362 36.6773 7.22444 42.8811 9.36518C43.8859 9.71469 44.2354 10.2826 43.8422 11.3748C43.2306 13.0787 42.6626 14.8263 42.2694 16.5738C41.8325 18.6272 40.8714 19.4572 38.7743 18.7582C38.3374 18.5835 37.8132 18.6272 37.1142 18.5398ZM35.3666 24.2193C35.3666 22.2533 35.4103 20.2873 35.3666 18.3213C35.3229 16.8359 35.9783 16.2243 37.3326 16.7049C39.7355 17.5349 40.8277 16.7049 41.1335 14.302C41.2209 13.603 41.5267 12.9039 41.7888 12.2486C42.182 11.2438 41.7888 10.8069 40.8714 10.5011C38.3374 9.6273 35.7598 8.79724 33.2696 7.7924C31.9589 7.26814 31.1288 7.39918 30.0803 8.53508C27.0221 11.8554 22.3474 12.6418 19.3766 9.671C16.8427 7.09338 14.7456 7.66131 12.168 8.75353C11.2505 9.14672 10.2457 9.45257 9.28453 9.75839C5.87682 10.9817 5.9642 10.938 6.92535 14.4767C7.44961 16.4864 8.10494 17.6223 10.4204 16.7922C12.168 16.1369 12.7359 17.0107 12.6922 18.7582C12.6049 22.5591 12.6486 26.3164 12.6922 30.1173C12.6922 30.86 12.5175 31.6027 13.6097 31.9959C17.2359 33.2628 19.2019 36.1026 20.0319 39.6851C20.4251 41.4326 21.3863 41.9132 22.8717 41.9132C23.6581 41.9132 24.4882 41.9132 25.2746 41.9132C26.7163 41.8695 27.6337 41.3889 27.8522 39.6851C28.2454 36.8453 29.4687 33.9182 32.221 33.0444C35.6287 31.9085 35.6287 29.7677 35.4103 27.1027C35.3229 26.1416 35.3666 25.1804 35.3666 24.2193ZM19.1145 7.04969C22.5659 10.4137 26.4978 10.2826 28.5512 7.04969C25.493 7.04969 22.4785 7.04969 19.1145 7.04969ZM29.7745 40.0783C32.5706 39.1608 34.7113 36.4084 34.7113 33.656C31.6531 34.5735 29.8619 36.8453 29.7745 40.0783ZM18.197 40.253C17.4106 36.5395 15.7504 34.5298 13.1728 33.8308C13.6097 36.7142 15.1825 38.7239 18.197 40.253Z" fill="#2E2E2E"/>
</svg>
