<svg width="48" height="48" viewBox="0 0 48 48" fill="none" xmlns="http://www.w3.org/2000/svg">
<path d="M19.671 30.71C19.094 29.1566 18.1175 28.9346 16.8303 28.8903C13.7234 28.8459 10.4833 29.5116 7.64261 27.2924C7.0656 26.8485 5.91163 27.1592 5.02393 27.1149C4.44692 27.1149 4.00305 27.0705 4.00305 26.3159C3.95867 25.4726 4.40253 25.2951 5.0683 25.3395C6.66617 25.4282 8.30838 24.94 9.63993 26.3603C10.2169 26.9373 11.0603 27.1149 11.9036 27.1149C15.2325 27.1149 18.5614 27.1149 21.8903 27.1149C22.556 27.1149 23.3993 27.1592 23.3993 26.2272C23.3993 25.2951 22.6004 25.3395 21.9346 25.3395C21.8459 25.3395 21.7571 25.3838 21.7127 25.3395C20.8694 24.94 19.094 26.2715 19.1827 24.363C19.2715 22.8983 20.825 23.6972 21.7127 23.6084C23.0886 23.4753 24.509 23.5641 25.9293 23.5641C26.5063 23.5641 26.9945 23.3421 26.9945 22.6763C26.9945 22.055 26.5063 21.833 25.9293 21.833C24.0651 21.833 22.2453 21.833 20.3812 21.7886C19.8485 21.7886 19.1827 21.9662 19.094 21.0341C19.0496 20.0133 19.671 20.0576 20.3812 20.0576C22.6892 20.0576 24.9528 20.0576 27.2608 20.0576C27.9266 20.0576 28.7699 20.102 28.7255 19.1699C28.7255 18.2378 27.8822 18.2822 27.2165 18.2822C24.9084 18.2822 22.6448 18.2822 20.3368 18.2822C19.7598 18.2822 19.1384 18.4154 19.094 17.4833C19.0496 16.4181 19.7154 16.5068 20.3812 16.5068C22.0678 16.5068 23.7988 16.5068 25.4854 16.5068C26.1512 16.5068 26.9945 16.5068 26.9501 15.6191C26.9057 14.7314 26.1068 14.7758 25.4411 14.7758C21.5352 14.7758 17.5849 14.7758 13.679 14.7758C13.4127 14.7758 13.1464 14.7314 12.3918 14.6426C13.7678 13.3111 14.7886 12.3346 15.8538 11.3138C16.2977 10.8699 16.7416 10.4261 16.1202 9.80468C15.4988 9.18329 15.0106 9.62714 14.6111 10.071C12.3475 12.6009 9.46242 14.5539 7.77578 17.5721C7.37632 18.2822 4.75759 18.7261 4.26935 18.1491C4.09181 17.9272 4.0918 17.4833 4.0918 17.1282C4.0918 16.64 4.4913 16.5068 4.84638 16.5956C6.17793 16.8619 6.53302 15.7967 7.24318 15.0421C9.19613 12.956 11.2822 10.9143 13.2795 8.87259C14.4779 7.67419 15.8095 7.18596 17.1854 8.33998C18.5613 9.49399 18.4726 10.8699 17.4073 12.2459C17.2742 12.4234 17.2742 12.6453 17.0966 13.0004C17.8068 13.0004 18.3838 13.0892 18.9164 13.0004C19.8041 12.8673 20.9582 13.5774 21.4908 12.379C22.0234 11.225 21.7127 9.98222 20.9581 9.00575C20.3367 8.20682 19.5378 7.54105 18.7833 6.83089C18.4726 6.52019 18.1175 6.20949 18.295 5.67687C18.4726 5.18864 18.8277 5.01109 19.3159 5.01109C24.509 5.01109 29.6576 4.96671 34.8507 5.05548C36.0047 5.05548 36.1822 5.85441 35.3833 6.69772C35.2057 6.91965 34.9394 7.0972 34.7175 7.27474C31.6105 10.1598 31.5218 12.1127 34.4068 15.0865C38.4903 19.3475 38.7566 24.8956 35.0726 29.5116C34.8507 29.778 34.6288 30.0443 34.1405 30.6657C36.9812 30.6657 39.4667 30.71 41.9523 30.6657C43.3726 30.6213 43.9052 31.1095 43.9496 32.5742C44.1272 38.6994 44.1715 38.6994 38.002 38.6994C35.2057 38.6994 32.3651 38.7437 29.5688 38.655C28.3704 38.6106 27.8379 38.9213 27.8822 40.2528C27.9266 40.9186 28.548 42.2502 26.9945 42.2058C25.6186 42.1614 26.1512 40.963 26.24 40.3416C26.3731 38.8769 25.7074 38.655 24.4202 38.655C20.3368 38.7437 16.2977 38.6106 12.2143 38.6994C10.6608 38.7437 10.0838 38.2111 10.1726 36.6576C10.2614 35.3261 10.2614 33.9945 10.1726 32.663C10.0394 31.0651 10.794 30.6213 12.2587 30.6657C14.6998 30.7544 17.0967 30.71 19.671 30.71ZM32.1876 6.91965C28.6812 6.91965 25.3523 6.91965 21.8458 6.91965C22.6891 8.29558 23.6213 9.53837 23.4437 10.9143C23.1774 12.8229 24.0207 13.0448 25.6186 13.0004C27.8378 12.956 31.2111 17.9271 30.5009 20.0132C30.4121 20.2352 30.3678 20.5015 30.1902 20.5903C28.2817 21.8774 29.1694 25.8277 25.5298 25.5614C25.4854 25.5614 25.3523 25.7833 25.3523 25.9165C25.3523 28.624 23.4881 29.0234 21.0913 29.1122C22.2009 30.2662 23.1774 30.8876 24.5534 30.7988C25.9293 30.7101 27.394 30.6657 28.7699 30.7988C31.2111 31.0651 32.8534 29.8667 34.1849 28.0469C36.8036 24.5405 36.4929 19.9689 33.5191 16.6844C30.1015 12.8672 29.8796 11.3582 32.1876 6.91965ZM26.8614 36.924C31.3886 36.924 35.8715 36.8352 40.3988 36.9683C42.1742 37.0127 42.3517 36.2138 42.2186 34.8822C42.1298 33.7282 42.7069 32.4411 40.532 32.4411C31.6106 32.5742 22.6448 32.5742 13.7234 32.4411C11.5485 32.3967 12.1255 33.7282 12.0367 34.8822C11.9036 36.2582 12.0811 37.0571 13.8565 36.9683C18.1175 36.8352 22.5116 36.924 26.8614 36.924Z" fill="#2E2E2E"/>
</svg>
