<svg width="48" height="48" viewBox="0 0 48 48" fill="none" xmlns="http://www.w3.org/2000/svg">
<path d="M44 36.4033C42.7588 38.2851 41.0372 39.1259 38.8351 39.246C37.6339 39.3261 36.4328 39.4862 35.2717 39.7665C32.9895 40.287 30.9075 39.8065 28.9056 38.7655C22.8198 35.5625 16.7741 32.3594 10.6883 29.1564C8.36605 27.9152 6.32406 26.3537 4.64246 24.2717C4.20204 23.7512 3.88173 23.2307 4.04189 22.47C5.16295 17.6654 6.84459 13.1411 10.9285 9.93806C11.6492 9.37753 12.4499 8.85702 13.2507 8.37657C14.3717 7.73596 15.0924 7.81603 15.2125 9.37752C15.3727 11.6197 16.774 12.981 18.776 13.7417C21.1382 14.6225 21.6186 14.4624 22.8598 12.3003C23.2602 11.6197 23.7006 11.1392 24.4614 10.939C26.143 10.5386 27.7846 9.9781 29.5062 9.65779C31.388 9.29745 32.1887 10.1382 31.7884 11.98C31.5081 13.3013 31.428 14.6225 31.5081 15.9438C31.5882 16.7446 31.4681 17.7455 32.7093 17.9457C33.3098 18.0258 33.47 18.5463 33.1497 18.9867C32.5891 19.8675 33.3098 20.1478 33.5901 20.7884C34.1506 22.0296 34.9113 23.3108 35.0314 24.7121C35.0314 24.8723 34.7912 25.1926 34.8312 25.1926C35.7922 25.9533 36.4328 26.5139 36.0324 28.1154C35.7922 29.1564 37.754 29.8771 39.0753 30.2374C39.796 30.4376 40.4366 30.7979 41.1573 30.9181C42.6788 31.1983 43.6397 31.9991 44 33.5205C44 34.5215 44 35.4824 44 36.4033ZM33.1096 35.082C35.592 34.0811 38.1544 34.5215 40.6368 34.4014C41.1973 34.3613 41.958 34.4414 42.0381 33.6406C42.1182 32.7998 41.3174 32.7198 40.7969 32.6397C37.674 32.2393 35.592 29.8771 33.0295 28.4757C32.509 28.1955 32.5891 27.675 32.9495 27.2746C33.8303 26.3937 33.7903 25.9533 32.3889 25.8733C31.4681 25.8332 31.2678 25.1926 31.8684 24.5119C32.6692 23.6711 32.7092 23.1507 31.388 23.0706C30.1868 22.9905 29.9466 22.5501 30.7874 21.6292C31.6682 20.7083 31.6282 20.2679 30.1868 20.3079C29.3861 20.348 29.1458 19.8275 29.5462 19.0668C30.4271 17.3451 29.9866 16.2241 28.225 15.5434C26.143 14.7426 24.2612 15.4233 22.4594 16.2641C17.9351 18.3461 13.8913 17.9857 10.6883 13.8217C10.0076 12.9409 9.48708 13.3813 9.24685 14.0219C8.92654 14.7827 7.24495 15.6235 8.60625 16.3842C11.7693 18.1459 13.6511 20.8284 15.3727 23.8313C17.0143 26.674 19.8169 28.3556 22.8198 28.6759C25.8227 29.0363 27.9447 30.0773 29.6663 32.4796C30.5071 33.6807 31.6683 34.6016 33.1096 35.082ZM41.7979 35.9228C39.3956 36.2431 36.8732 35.5625 34.4709 36.4033C33.0295 36.9238 31.9085 36.6035 30.7874 35.7226C29.8265 35.0019 28.8255 34.2813 28.1849 33.2803C26.9037 31.2784 25.2622 30.1173 22.6997 30.3575C22.0191 30.4376 21.2983 30.0372 20.6177 29.757C17.2145 28.3957 14.572 26.2336 12.9304 22.8704C11.9695 20.8685 10.3679 19.347 8.44608 18.1859C7.64532 17.7055 7.24494 17.7855 6.84456 18.7064C5.28307 22.3098 5.56337 23.511 8.72638 25.9533C9.44707 26.5139 10.2478 27.0344 11.0486 27.4748C17.3346 30.838 23.5805 34.2412 29.9466 37.4042C33.8303 39.3261 37.714 37.8847 41.5577 36.7636C41.7178 36.7236 41.9581 36.5234 41.7979 35.9228ZM18.9361 15.6635C16.4938 14.6225 14.652 13.5415 14.0514 11.2593C13.8913 10.6187 13.6911 9.93805 12.9304 10.5787C12.3699 11.0591 10.8885 11.1792 11.6892 12.5405C12.9704 14.7827 15.8532 16.184 18.9361 15.6635ZM24.1411 13.5815C26.0229 13.5815 27.6244 13.5815 29.1058 14.102C29.7865 14.3422 30.0267 13.9819 29.9066 13.4614C29.7865 12.7407 30.6673 11.8999 29.8265 11.3394C29.1859 10.899 25.062 12.5005 24.1411 13.5815Z" fill="#2E2E2E"/>
</svg>
