<svg width="48" height="48" viewBox="0 0 48 48" fill="none" xmlns="http://www.w3.org/2000/svg">
<path d="M4.03994 15.235C4.5593 14.8754 4.43945 14.2762 4.59926 13.7968C7.39579 5.88659 16.7841 3.48957 22.8965 9.20248C23.7754 10.0414 24.1749 10.0814 25.0538 9.20248C28.6893 5.72679 33.6432 5.04763 37.9579 7.3248C42.2725 9.60198 44.5896 14.436 43.8705 19.4298C43.2313 23.6645 41.1938 27.1802 38.2774 30.2164C34.2824 34.4112 29.1288 37.0479 24.7742 40.7633C24.2149 41.2427 23.6956 41.1228 23.1762 40.6834C19.2611 37.3675 14.6668 34.9305 10.9514 31.375C9.11366 29.6171 7.43571 27.7395 6.11734 25.3424C6.99625 25.1427 7.71537 24.9429 8.27467 25.7819C11.0712 30.0566 15.1461 32.933 19.261 35.7695C20.8591 36.8482 22.3772 38.8457 23.9752 38.8457C25.5333 38.8457 27.0913 36.8881 28.6893 35.8094C31.7655 33.6921 34.8018 31.5747 37.3586 28.8181C40.1152 25.8618 42.0328 22.506 42.3125 18.3911C42.672 13.8367 40.3149 9.96153 36.3199 8.32356C32.3648 6.6856 28.3698 7.68435 25.3735 11.16C24.3747 12.3585 23.7754 12.5983 22.6568 11.2399C19.5407 7.60445 15.5856 6.64565 11.5506 8.32356C7.51565 10.0414 5.23844 13.9566 5.6779 18.6707C5.8377 20.3087 5.55807 20.828 4 19.9491C4.03995 18.431 4.03994 16.833 4.03994 15.235Z" fill="#2E2E2E"/>
<path d="M25.1737 21.9866C24.0951 24.7432 23.2561 26.9804 22.3772 29.1777C22.1375 29.8169 22.0975 30.8156 21.0988 30.6958C20.2598 30.5759 20.3797 29.697 20.2598 29.0578C19.6206 25.7419 19.0214 22.3861 18.4221 19.0702C18.3422 18.6307 18.3822 18.1114 17.7829 17.632C17.2236 20.1888 16.7442 22.6657 16.1849 25.1427C16.065 25.7419 16.1449 26.6208 15.266 26.7007C14.3871 26.7806 14.3472 25.8618 14.1074 25.3025C13.5881 24.2238 13.4683 23.0253 12.5894 21.9067C12.07 23.4648 10.9514 23.7045 9.59308 23.5846C8.35462 23.4648 7.07621 23.5846 5.79779 23.5447C5.27844 23.5447 4.8789 23.265 4.91885 22.7057C4.9588 22.2662 5.3184 22.0265 5.75785 22.0265C6.27721 21.9866 6.83651 21.9866 7.35587 22.0265C9.39334 22.1464 11.3109 22.2263 11.9901 19.5896C12.2698 18.5109 13.1087 18.5509 13.6281 19.6295C14.1075 20.5484 14.1874 21.667 15.0263 22.6258C15.7055 19.3099 16.3846 16.1938 17.0238 13.1176C17.1437 12.5583 17.1037 11.7593 17.9027 11.7193C18.8615 11.6794 18.7816 12.5583 18.9015 13.1575C19.7405 17.5121 20.4995 21.8667 21.698 26.3412C22.4571 24.3437 23.2162 22.3461 24.0551 20.3486C24.2948 19.7893 24.3348 18.9104 25.1737 18.8704C26.0527 18.8704 26.0527 19.7494 26.3323 20.3087C26.8117 21.4672 27.2511 22.6657 27.8504 24.3437C28.5695 21.667 30.3673 21.9067 32.1251 21.9866C32.9241 22.0266 33.6832 22.0665 34.4023 21.5072C35.1613 20.9079 35.9204 21.1876 36.4797 21.9466C36.9591 22.5459 36.8792 23.2251 36.3998 23.7844C35.8804 24.3836 35.2412 24.5434 34.4422 24.1839C31.5658 22.9454 30.4472 23.305 28.7293 25.7819C28.4497 26.2213 28.2499 26.8206 27.5708 26.7407C26.8916 26.7007 26.8117 26.0615 26.6119 25.5821C26.1725 24.5434 25.773 23.4648 25.1737 21.9866Z" fill="#2E2E2E"/>
</svg>
