<svg width="48" height="48" viewBox="0 0 48 48" fill="none" xmlns="http://www.w3.org/2000/svg">
<path d="M43.9992 24.0861C43.9557 35.1296 34.8687 44.0861 23.8687 43.9992C12.8253 43.8687 3.91221 34.8253 3.99917 23.7818C4.08612 12.7818 13.1731 3.91221 24.2166 3.99917C35.1296 4.08613 44.0426 13.1296 43.9992 24.0861ZM26.6513 41.8687C25.7383 41.1296 25.7383 40.2166 25.7383 39.3035C25.6948 36.7818 24.7818 36.0861 22.3905 36.7383C20.0426 37.347 18.1296 36.2166 17.5209 33.9122C16.7818 31.0426 17.9122 28.5209 20.6948 26.6948C19.3035 26.26 19.6513 25.1296 19.6948 24.1731C19.7383 22.9992 20.6948 23.1296 21.4774 23.0861C22.1296 23.0861 22.5209 22.5644 22.8687 22.1296C23.7383 21.0426 24.5209 19.9122 25.347 18.7818C25.4774 18.7818 24.9557 18.26 24.4774 17.7383C24.0861 17.347 23.9992 16.9557 24.3035 16.3905C25.6079 13.9992 28.5209 12.347 31.26 12.7818C32.4774 12.9557 32.9992 12.3035 33.1296 11.5209C33.6948 8.7383 33.0861 7.7383 30.1731 6.78178C28.7383 6.30352 27.26 5.91221 25.7383 5.78178C23.0426 5.52091 20.3905 5.69482 17.3035 7.17308C19.7818 7.60786 20.6513 8.86873 20.26 10.5209C19.9992 11.5644 19.0861 13.0861 18.3035 13.2166C16.26 13.5209 14.5644 14.6948 12.6513 15.1731C12.4774 15.2166 12.1296 14.9122 11.9992 14.6948C11.1296 13.3035 10.9557 14.3905 10.8253 15.0426C10.5644 16.3035 10.3905 17.6079 10.2166 18.9122C10.0861 20.2166 9.65134 20.8253 8.26004 20.1296C6.78177 19.3905 6.1296 20.1731 5.91221 21.6079C5.60786 23.6948 5.7383 25.7818 6.17308 27.8687C8.04264 37.0426 17.6948 43.8253 26.6513 41.8687ZM25.347 22.3905C25.9557 22.6948 26.5209 22.0426 27.1731 22.4774C28.7818 23.6079 30.4339 23.1731 31.6948 21.3905C32.0861 20.8253 32.4774 20.26 33.2166 20.6948C33.9557 21.0861 35.0426 21.1731 35.1731 22.1731C35.3035 23.1296 34.26 23.1731 33.6513 23.4774C33.1296 23.7383 32.5644 23.8687 32.0426 24.1296C31.6513 24.3035 31.26 24.5209 31.347 25.0861C31.4339 25.6513 31.8687 25.7818 32.3035 25.7383C33.7383 25.5644 34.347 26.1296 34.6079 27.6079C34.7383 28.4774 35.3035 29.347 35.8253 30.1296C36.1296 30.5644 36.1731 31.7818 36.9992 31.1731C37.6948 30.6513 38.5644 29.6948 37.9557 28.6079C36.5644 26.1731 36.6079 26.0426 39.347 25.3905C42.5644 24.6079 42.5644 24.6079 41.9557 21.26C41.8687 20.8253 41.8253 20.3905 41.7383 19.9992C40.6513 15.7818 38.5209 12.26 34.8253 9.56439C34.3035 10.7818 35.8253 11.6513 34.8687 12.6079C33.9557 13.5209 33.1296 14.5209 32.5209 15.6948C32.2166 16.3035 31.5209 16.5209 31.1296 15.8687C30.5644 14.9122 29.9122 14.0861 28.7818 14.6513C27.9122 15.0861 27.26 15.9557 26.5209 16.6513C25.9557 17.1731 26.347 17.5644 26.7383 17.9122C27.2166 18.3035 27.434 19.0861 28.2166 18.9122C28.5644 18.8253 28.7818 18.3905 28.5644 17.9992C28.3035 17.4774 27.9992 16.9122 28.6948 16.4774C29.347 16.0861 29.7383 16.6513 30.1731 17.0426C30.6948 17.5209 31.0426 18.0426 30.5644 18.7383C29.6079 20.0861 29.0426 21.9992 26.7383 21.5644C26.1296 21.26 25.6079 21.6079 25.347 22.3905ZM18.9122 32.3035C18.9992 34.3905 20.2166 35.4774 22.0426 35.0426C25.4774 34.26 27.26 35.6079 27.434 39.0861C27.5209 41.0861 28.6079 41.8687 30.3905 41.0426C33.3035 39.7383 33.7383 36.5209 35.347 34.2166C36.1296 33.0861 34.6513 32.2166 34.347 31.1296C34.1731 30.5644 33.7818 30.1296 33.6079 29.5644C33.26 28.6513 32.6948 28.3905 31.7383 28.6948C29.347 29.434 27.1296 28.9557 24.8253 27.9557C22.6079 26.9557 18.8253 29.8253 18.9122 32.3035ZM35.6079 37.5644C38.3905 35.6513 40.1296 33.0426 41.2166 30.0426C41.4774 29.3905 41.6513 28.6513 41.7818 27.9557C41.8687 27.4774 41.5644 27.0426 41.1296 26.9557C40.7383 26.8687 40.2166 26.9122 39.9122 27.1731C39.4774 27.5209 40.1296 27.6948 40.3035 27.9122C40.6948 28.6513 40.2166 29.1731 39.9122 29.6948C38.5209 32.3035 37.0426 34.9122 35.6079 37.5644ZM13.6513 12.6948C17.8687 11.3035 17.8687 11.3035 18.26 9.82526C17.6079 9.69482 16.8687 10.4774 16.3035 9.60786C16.0426 9.21656 16.4339 8.26004 15.4339 8.43395C14.6079 8.60786 14.7383 9.43395 14.4774 9.99917C14.1731 10.7818 13.9992 11.6079 13.6513 12.6948ZM23.6948 25.5209C24.3905 25.8253 24.8687 25.9992 25.347 26.1731C26.4774 26.5644 27.6079 27.0426 28.7818 27.347C29.2166 27.434 29.8687 27.347 29.9992 26.7818C30.0426 26.5644 29.9122 26.1731 29.7383 25.9992C29.2166 25.4774 29.0861 26.26 28.7818 26.3905C27.9122 26.7818 27.5209 26.1731 27.26 25.6513C26.2166 23.6948 25.0861 24.26 23.6948 25.5209ZM9.1296 13.8253C7.99917 14.7383 7.69482 15.8687 7.17308 16.8687C6.95569 17.347 6.82525 17.8253 7.60786 17.9557C8.21656 18.0426 8.60786 17.9557 8.69482 17.3035C8.82525 16.26 8.95569 15.2166 9.1296 13.8253Z" fill="#2E2E2E"/>
<path d="M21.1305 20.5217C20.087 20.4348 18.9131 20.3044 20.2174 18.6957C20.3913 18.4783 20.6087 18.2174 20.6087 17.9565C20.6087 17.1739 20.3479 15.9565 21.5218 16.3043C22.7826 16.6957 22.7826 18.3044 23 19.4348C23.2174 20.5652 22.1305 20.4783 21.1305 20.5217Z" fill="#2E2E2E"/>
</svg>
