<svg width="48" height="48" viewBox="0 0 48 48" fill="none" xmlns="http://www.w3.org/2000/svg">
<path d="M40.6899 30.89C40.6899 32.476 40.7316 34.1037 40.6899 35.6896C40.6482 37.3173 39.7717 38.2773 38.1023 38.3607C36.9754 38.4442 35.8903 38.4025 34.7634 38.3607C33.5948 38.319 32.5932 37.6512 32.5097 36.5661C32.4262 35.0219 31.6332 35.0219 30.5063 35.0219C26.0823 35.0636 21.6166 35.0636 17.1926 35.0219C16.3161 35.0219 15.6901 34.9801 15.5649 36.2322C15.4397 37.6512 14.3546 38.319 12.9356 38.3607C12.6017 38.3607 12.226 38.3607 11.8922 38.3607C7.76031 38.3607 7.25947 37.9434 7.34294 33.895C7.38468 30.9317 6.92561 27.9268 7.63512 25.0053C7.88554 24.0036 7.13428 24.2123 6.63345 24.2123C5.13096 24.1705 3.9206 23.7114 4.00407 22.0003C4.08754 20.2891 5.2979 19.1205 6.88386 19.3292C9.63843 19.6631 10.5566 18.244 11.0992 16.032C11.8504 12.8601 14.0207 11.2324 17.0674 10.6899C22.034 9.77167 27.0005 9.68818 31.9254 10.9403C34.2626 11.5246 35.932 12.7766 36.558 15.1973C36.8085 16.1155 37.351 16.992 37.6014 17.9102C37.8936 18.9536 38.4779 19.3709 39.5631 19.2457C40.523 19.1622 41.5246 19.1622 42.4011 19.6213C43.5697 20.2474 44.1957 21.2073 43.9453 22.5011C43.7366 23.7114 42.7767 24.2123 41.6499 24.1705C40.356 24.1288 40.3143 24.5044 40.523 25.7148C40.8151 27.3842 40.6065 29.1788 40.6065 30.89C40.6482 30.89 40.6482 30.89 40.6899 30.89ZM23.8703 22.5011C27.4179 22.5011 30.9654 22.5428 34.4713 22.4594C36.7667 22.4176 37.1841 21.6664 36.4329 19.6213C36.0155 18.4527 35.3894 17.3259 35.0973 16.1155C34.513 13.7366 32.8018 12.7766 30.6733 12.2758C27.6683 11.608 24.6216 11.5663 21.5749 11.6915C15.1475 11.9419 13.6033 13.1105 11.5583 19.204C10.6818 21.7916 11.0992 22.4594 13.8537 22.5011C17.2343 22.5428 20.5315 22.5011 23.8703 22.5011ZM23.7869 33.3524C28.2526 33.3524 32.6766 33.3524 37.1424 33.3524C37.8519 33.3524 38.937 33.6446 38.9787 32.5177C39.0205 30.097 39.3544 27.6764 38.7283 25.2974C38.311 23.7949 37.8101 23.0019 36.0572 23.8784C35.306 24.254 34.3043 24.1705 33.3861 24.1705C27.1258 24.1705 20.8654 24.1705 14.6467 24.1705C13.4781 24.1705 12.2261 24.2123 11.1827 23.6697C10.3062 23.2106 10.0558 23.5445 9.68014 24.2957C8.55327 26.6329 9.17933 29.0954 8.97065 31.4743C8.84544 32.9351 9.42974 33.3942 10.8905 33.3942C15.1475 33.3107 19.4881 33.3524 23.7869 33.3524ZM11.7669 35.0219C11.2661 35.0219 10.8905 34.9384 10.5984 35.0219C10.0558 35.1471 9.0541 34.4793 9.0541 35.6896C9.0541 36.8165 10.014 36.6496 10.7235 36.6913C11.0157 36.6913 11.2661 36.733 11.5583 36.6913C12.393 36.5244 13.8955 37.1921 13.8955 35.7731C13.8538 34.2706 12.3095 35.481 11.7669 35.0219ZM36.725 35.0219C36.2242 35.0219 35.7651 34.9801 35.2642 35.0219C34.8052 35.0636 34.0539 34.7297 34.0539 35.6479C34.0539 36.4409 34.5965 36.6913 35.306 36.6913C36.1824 36.6913 37.1006 36.6913 37.9771 36.6913C38.6449 36.6913 38.9787 36.3157 38.9787 35.6479C38.9787 34.8549 38.3527 35.0636 37.9354 35.0636C37.518 34.9801 37.1424 35.0219 36.725 35.0219ZM8.97065 20.8734C8.05246 20.8734 7.17599 20.6647 6.34127 21.0821C6.09086 21.2073 5.88222 21.5829 5.75701 21.8751C5.6318 22.1672 5.88221 22.4176 6.21609 22.4176C7.30123 22.4176 8.84544 23.1271 8.97065 20.8734ZM40.8569 22.4594C41.2325 22.3342 42.1507 22.835 42.1924 22.0003C42.2341 20.9151 41.2325 20.7899 40.3978 20.8734C39.9387 20.9151 39.0205 20.4143 39.0205 21.4577C39.1039 22.4176 39.8552 22.5846 40.8569 22.4594Z" fill="#2E2E2E"/>
<path d="M13.6033 25.0053C14.3545 25.0053 14.5632 25.0053 14.7719 25.0053C16.5248 24.9218 17.9439 25.3809 18.6951 27.0921C19.2794 28.4693 18.9455 29.7214 17.9021 30.7231C16.4831 32.0586 14.8971 31.8499 13.2694 31.1404C13.0608 31.057 12.8938 30.9318 12.7269 30.8483C11.2244 29.9718 9.42974 29.1788 9.93058 27.0086C10.4314 24.7131 12.4347 24.9635 13.6033 25.0053ZM14.3546 26.7164C12.0174 26.6747 11.6 26.7582 11.6 27.4259C11.6 28.7615 12.8938 28.9284 13.6868 29.471C14.1876 29.8049 14.8554 29.9718 15.4397 30.0136C16.4831 30.097 17.1926 29.5127 17.2761 28.4693C17.3178 27.5094 16.7335 26.9251 15.8153 26.7582C15.3145 26.633 14.8137 26.7164 14.3546 26.7164Z" fill="#2E2E2E"/>
<path d="M38.1858 27.8016C37.7684 29.9718 35.7651 30.6396 33.9287 31.3908C32.301 32.0586 30.7568 31.7247 29.6299 30.264C28.2944 28.4693 29.0873 25.84 31.2993 25.2139C32.927 24.7548 34.6382 24.88 36.2659 25.1305C37.4763 25.3391 38.1023 26.2991 38.1858 27.8016ZM32.6766 30.0136C34.0122 29.9718 36.725 28.2189 36.4329 27.5094C35.7651 25.8817 34.2626 26.9668 33.1357 26.6747C32.8853 26.5912 32.5932 26.633 32.301 26.6747C31.2576 26.8416 30.6315 27.4259 30.7568 28.5111C30.8402 29.5962 31.6332 30.0136 32.6766 30.0136Z" fill="#2E2E2E"/>
</svg>
