<svg width="19" height="11" viewBox="0 0 19 11" fill="none" xmlns="http://www.w3.org/2000/svg">
<path fill-rule="evenodd" clip-rule="evenodd" d="M17.828 5.95294C17.688 6.09294 17.514 6.16394 17.334 6.20394L13.586 9.95194C13.195 10.3439 12.562 10.3439 12.172 9.95194C11.781 9.56194 11.781 8.92894 12.172 8.53794L14.585 6.12494H1C0.448 6.12494 0 5.67694 0 5.12494C0 4.57294 0.448 4.12494 1 4.12494H14.587L12.172 1.70994C11.781 1.31894 11.781 0.685935 12.172 0.295936C12.562 -0.0950645 13.195 -0.0950645 13.586 0.295936L17.327 4.03694C17.51 4.07194 17.685 4.15294 17.828 4.29494C18.055 4.52194 18.134 4.82894 18.098 5.12394C18.134 5.41894 18.055 5.72594 17.828 5.95294Z" fill="white"/>
</svg>
