<svg width="163" height="48" viewBox="0 0 163 48" fill="none" xmlns="http://www.w3.org/2000/svg">
<path d="M11.3382 46.9976C10.9222 46.9976 10.5163 46.9929 10.1035 46.9847C9.24853 46.9749 8.39552 46.9094 7.55151 46.7886C6.7645 46.6692 6.00211 46.4471 5.28947 46.1297C4.58336 45.8149 3.93934 45.4021 3.38207 44.9072C2.81673 44.4181 2.34606 43.8508 1.98871 43.2278C1.62742 42.6008 1.37739 41.9287 1.24732 41.235C1.10686 40.4895 1.03086 39.7358 1.01999 38.9802C1.01133 38.7266 1 37.8821 1 37.8821V10.1025C1 10.1025 1.01207 9.27106 1.02006 9.02679C1.03047 8.27241 1.10602 7.51982 1.24606 6.77553C1.37637 6.07988 1.6266 5.40585 1.98808 4.77677C2.34412 4.15423 2.81217 3.58652 3.37411 3.09566C3.93541 2.60014 4.58149 2.18524 5.2888 1.86609C5.9998 1.54968 6.76075 1.32918 7.54617 1.21197C8.39296 1.08999 9.24893 1.02405 10.1069 1.01468L11.3389 1H151.654L152.901 1.01527C153.751 1.02417 154.6 1.08953 155.439 1.2108C156.232 1.32947 157.001 1.55151 157.72 1.86961C159.137 2.51279 160.29 3.53036 161.017 4.7797C161.373 5.40444 161.619 6.07297 161.748 6.76261C161.89 7.51301 161.969 8.27151 161.985 9.03208C161.989 9.37264 161.989 9.73846 161.989 10.1025C162 10.5535 162 10.9827 162 11.4155V36.5833C162 37.0201 162 37.4465 161.989 37.8762C161.989 38.2673 161.989 38.6256 161.984 38.9943C161.968 39.7412 161.89 40.4862 161.751 41.2232C161.623 41.9219 161.374 42.5993 161.013 43.2314C160.653 43.8477 160.185 44.41 159.627 44.8978C159.069 45.3954 158.424 45.8106 157.716 46.1274C156.999 46.4473 156.231 46.6702 155.439 46.7886C154.595 46.91 153.741 46.9756 152.886 46.9847C152.486 46.9929 152.068 46.9976 151.661 46.9976L150.181 47L11.3382 46.9976Z" stroke="white"/>
<path fill-rule="evenodd" clip-rule="evenodd" d="M99.484 34.8914C97.4851 34.8914 96.0223 33.9211 95.8539 32.4434L93.5277 32.4433C93.6746 35.1386 95.9482 36.8437 99.3156 36.8437C102.915 36.8437 105.178 35.0976 105.178 32.3097C105.178 30.13 103.883 28.9019 100.768 28.1789L99.0947 27.7757C97.1376 27.3012 96.3375 26.6812 96.3375 25.6277C96.3375 24.3059 97.5901 23.3977 99.4207 23.3977C101.251 23.3977 102.504 24.2953 102.641 25.7824H104.935C104.861 23.2113 102.662 21.4453 99.453 21.4453C96.2109 21.4453 93.9278 23.2113 93.9278 25.7824C93.9278 27.859 95.2222 29.1387 98.0105 29.7996L99.9784 30.2648C101.946 30.7395 102.777 31.432 102.777 32.5886C102.777 33.9211 101.399 34.8914 99.484 34.8914ZM59.8941 32.5676H54.1062L52.7163 36.5953H50.2647L55.7469 21.6937H58.294L63.7762 36.5953H61.2829L59.8941 32.5676ZM54.7057 30.7091H59.2935L57.0319 24.1724H56.9686L54.7057 30.7091ZM70.9959 36.709C73.7746 36.709 75.6159 34.5399 75.6159 31.1637C75.6159 27.7969 73.7638 25.6173 70.9541 25.6172C69.5083 25.5715 68.1539 26.3094 67.429 27.5379H67.3873V25.7309H65.1876V40.1895H67.4601V34.8082H67.5126C68.2067 36.0445 69.5596 36.7827 70.9959 36.709ZM73.2802 31.1638C73.2802 28.9642 72.1219 27.5181 70.3546 27.5181C68.6184 27.5181 67.4505 28.9946 67.4505 31.1638C67.4505 33.3528 68.6184 34.8188 70.3546 34.8188C72.122 34.8188 73.2802 33.3833 73.2802 31.1638ZM83.1807 36.709C85.9594 36.709 87.8008 34.5399 87.8008 31.1637C87.8008 27.7969 85.9487 25.6172 83.1389 25.6172C81.6931 25.5715 80.3387 26.3094 79.6138 27.5379H79.572V25.7309H77.3725V40.1894H79.6449V34.8082H79.6974C80.3915 36.0445 81.7444 36.7827 83.1807 36.709ZM85.465 31.1638C85.465 28.9642 84.3067 27.5181 82.5394 27.5181C80.8032 27.5181 79.6353 28.9946 79.6353 31.1638C79.6353 33.3528 80.8032 34.8188 82.5394 34.8188C84.3067 34.8188 85.465 33.3833 85.465 31.1638ZM110.082 23.1597V25.7308H112.187V27.4968H110.082V33.4862C110.082 34.4167 110.503 34.8503 111.429 34.8503C111.679 34.846 111.928 34.8288 112.176 34.7987V36.5541C111.76 36.6304 111.337 36.665 110.914 36.6572C108.673 36.6572 107.799 35.8311 107.799 33.724V27.4968H106.189V25.7308H107.799V23.1597H110.082ZM118.657 25.5972C115.458 25.5972 113.406 27.7452 113.406 31.1636C113.406 34.5913 115.438 36.7299 118.657 36.7299C121.877 36.7299 123.909 34.5913 123.909 31.1636C123.909 27.7452 121.867 25.5972 118.657 25.5972ZM121.593 31.1635C121.593 28.8185 120.498 27.4346 118.657 27.4346C116.816 27.4346 115.722 28.8291 115.722 31.1635C115.722 33.5177 116.816 34.8912 118.657 34.8912C120.498 34.8912 121.593 33.5177 121.593 31.1635ZM127.95 25.7308H125.782L125.782 36.5952H128.055V30.1511C127.979 29.4992 128.197 28.8473 128.653 28.3668C129.108 27.8862 129.754 27.6249 130.423 27.6515C130.768 27.6416 131.113 27.6871 131.444 27.7863V25.7003C131.188 25.6442 130.927 25.6162 130.665 25.6171C129.416 25.5703 128.304 26.3896 128.002 27.58H127.95V25.7308ZM141.921 33.4042C141.615 35.3764 139.658 36.7299 137.154 36.7299C133.933 36.7299 131.934 34.6124 131.934 31.2151C131.934 27.8073 133.944 25.5972 137.058 25.5972C140.121 25.5972 142.047 27.662 142.047 30.9561V31.7202H134.228V31.855C134.155 32.6638 134.44 33.4644 135.01 34.0532C135.579 34.642 136.38 34.9622 137.206 34.9323C138.309 35.0337 139.349 34.4123 139.763 33.4042L141.921 33.4042ZM139.774 30.1618H134.239C134.237 29.4283 134.534 28.7244 135.063 28.2066C135.593 27.6888 136.311 27.4 137.058 27.4044C137.8 27.3888 138.514 27.6774 139.03 28.2009C139.545 28.7243 139.815 29.435 139.774 30.1618Z" fill="white"/>
<path fill-rule="evenodd" clip-rule="evenodd" d="M80.4264 10.1245H81.5131V17.6374H80.4264V10.1245ZM56.9955 11.4587C56.3305 10.7695 55.3856 10.4093 54.4208 10.4773H51.7854V17.6375H54.4208C56.5942 17.6375 57.854 16.3226 57.854 14.0351C57.9756 13.0934 57.6605 12.1479 56.9955 11.4587ZM54.2943 16.625H52.9186V11.4893H54.2943C54.98 11.452 55.6469 11.7173 56.1125 12.2128C56.5782 12.7083 56.7938 13.3821 56.7004 14.0499C56.8011 14.7204 56.5885 15.3998 56.1218 15.8993C55.655 16.3989 54.9837 16.6655 54.2943 16.625ZM59.134 14.9335C59.0396 13.965 59.5129 13.0277 60.3553 12.5146C61.1977 12.0016 62.2636 12.0016 63.106 12.5146C63.9485 13.0277 64.4217 13.965 64.3273 14.9335C64.4235 15.9031 63.9507 16.8423 63.1075 17.3564C62.2644 17.8705 61.197 17.8705 60.3538 17.3564C59.5106 16.8423 59.0378 15.9031 59.134 14.9335ZM61.7325 13.0771C62.6734 13.0771 63.2096 13.7621 63.2096 14.9334H63.2096C63.2096 16.1094 62.6734 16.7937 61.7325 16.7937C60.7879 16.7937 60.2566 16.1141 60.2566 14.9334C60.2566 13.7621 60.7879 13.0771 61.7325 13.0771ZM71.2305 17.6374H70.1033L68.9653 13.6577H68.8793L67.7461 17.6374H66.6296L65.1118 12.2339H66.214L67.2004 16.3571H67.2816L68.4136 12.2339H69.4561L70.5881 16.3571H70.6741L71.6556 12.2339H72.7423L71.2305 17.6374ZM75.0648 12.2337H74.0188L74.0188 17.6372H75.1054V14.476C75.0664 14.1164 75.1894 13.7581 75.4421 13.4949C75.6948 13.2317 76.0521 13.0899 76.4202 13.1067C77.2238 13.1067 77.6083 13.5386 77.6083 14.4069V17.6371H78.695V14.1391C78.7746 13.6108 78.6052 13.0756 78.2344 12.6846C77.8636 12.2936 77.3318 12.0893 76.7892 12.1294C76.0883 12.0735 75.4284 12.4601 75.146 13.0921H75.0648V12.2337ZM84.2451 12.5147C83.4026 13.0277 82.9293 13.965 83.0237 14.9336C82.9276 15.9032 83.4005 16.8424 84.2437 17.3565C85.0869 17.8706 86.1543 17.8706 86.9975 17.3565C87.8407 16.8424 88.3136 15.9032 88.2175 14.9336C88.3118 13.965 87.8385 13.0277 86.9961 12.5147C86.1536 12.0016 85.0876 12.0016 84.2451 12.5147ZM87.0992 14.9334C87.0992 13.7621 86.563 13.0771 85.6221 13.0771C84.6775 13.0771 84.1462 13.7621 84.1462 14.9334C84.1462 16.1141 84.6776 16.7937 85.6221 16.7937C86.5631 16.7937 87.0992 16.1094 87.0992 14.9334ZM91.4093 14.4965C90.0994 14.5762 89.3614 15.1369 89.3614 16.1095C89.3633 16.5707 89.5638 17.0096 89.9135 17.3177C90.2632 17.6259 90.7294 17.7744 91.1968 17.7267C91.8636 17.757 92.4954 17.4329 92.8507 16.8783H92.9366V17.6377H93.9827V13.9457C93.9827 12.8043 93.2041 12.1299 91.8237 12.1299C90.5747 12.1299 89.685 12.7252 89.574 13.6533H90.626C90.7466 13.2713 91.167 13.0527 91.7736 13.0527C92.5163 13.0527 92.9008 13.375 92.9008 13.9457V14.4121L91.4093 14.4965ZM92.9008 15.6476V15.1958L91.5562 15.2802C90.798 15.33 90.4541 15.5831 90.4541 16.0595C90.4541 16.5458 90.8839 16.8288 91.4751 16.8288C91.825 16.8636 92.1744 16.7575 92.4431 16.5348C92.7119 16.3121 92.8771 15.9919 92.9008 15.6476ZM97.6964 12.1442C96.3053 12.1442 95.4109 13.2259 95.4109 14.9333C95.4109 16.6448 96.2957 17.7265 97.6964 17.7264C98.4066 17.7521 99.0726 17.389 99.4255 16.7837H99.5115V17.6374H100.553V10.1245H99.4661V13.0922H99.3849C99.0568 12.4819 98.3989 12.1125 97.6964 12.1442ZM96.5334 14.9336C96.5334 16.0797 97.0839 16.7693 98.0046 16.7693C98.9204 16.7693 99.4865 16.0697 99.4865 14.9383C99.4865 13.8121 98.9145 13.1025 98.0046 13.1025C97.0898 13.1025 96.5334 13.7969 96.5334 14.9336H96.5334ZM106.27 12.5146C105.427 13.0277 104.954 13.965 105.049 14.9335C104.952 15.9031 105.425 16.8423 106.268 17.3564C107.112 17.8705 108.179 17.8705 109.022 17.3564C109.865 16.8423 110.338 15.9031 110.242 14.9335C110.336 13.965 109.863 13.0277 109.021 12.5146C108.178 12.0016 107.112 12.0016 106.27 12.5146ZM109.124 14.9334C109.124 13.7621 108.588 13.0771 107.647 13.0771C106.702 13.0771 106.171 13.7621 106.171 14.9334C106.171 16.1141 106.703 16.7937 107.647 16.7937C108.588 16.7937 109.124 16.1094 109.124 14.9334ZM112.746 12.2337H111.7V17.6372H112.787V14.476C112.748 14.1164 112.871 13.7581 113.123 13.4949C113.376 13.2317 113.733 13.0899 114.101 13.1067C114.905 13.1067 115.289 13.5386 115.289 14.4069V17.6371H116.376V14.1391C116.456 13.6108 116.286 13.0756 115.916 12.6846C115.545 12.2936 115.013 12.0893 114.47 12.1294C113.769 12.0735 113.11 12.4601 112.827 13.0921H112.746V12.2337ZM122.516 10.8887V12.2586H123.709V13.1568H122.516V15.9353C122.516 16.5014 122.754 16.7492 123.295 16.7492C123.433 16.7488 123.572 16.7405 123.709 16.7246V17.6129C123.514 17.6471 123.316 17.6653 123.118 17.6674C121.91 17.6674 121.428 17.2502 121.428 16.2084V13.1568H120.554V12.2585H121.428V10.8887H122.516ZM126.271 10.1245H125.193L125.194 17.6374H126.28V14.4815C126.247 14.1107 126.381 13.7443 126.649 13.4802C126.916 13.2161 127.288 13.0812 127.667 13.1116C128.434 13.1116 128.844 13.5487 128.844 14.4118V17.6374H129.932V14.1487C130.004 13.6231 129.833 13.0934 129.466 12.7038C129.1 12.3143 128.575 12.1055 128.035 12.1343C127.324 12.0776 126.652 12.4647 126.357 13.1022H126.271V10.1245ZM136.268 16.1788C135.963 17.198 134.958 17.8566 133.882 17.7421C133.148 17.7611 132.442 17.4624 131.952 16.9253C131.462 16.3882 131.238 15.667 131.338 14.953C131.241 14.237 131.464 13.5146 131.951 12.973C132.438 12.4314 133.141 12.1238 133.877 12.13C135.409 12.13 136.333 13.1572 136.333 14.854V15.2261H132.445V15.2858C132.411 15.6868 132.55 16.0834 132.83 16.3781C133.109 16.6728 133.502 16.8383 133.912 16.8338C134.443 16.8965 134.961 16.6377 135.222 16.1787L136.268 16.1788ZM135.226 14.4372H132.445C132.44 14.0646 132.589 13.7059 132.857 13.4423C133.126 13.1788 133.491 13.0328 133.871 13.0375C134.246 13.029 134.607 13.1762 134.865 13.4428C135.123 13.7094 135.254 14.0705 135.226 14.4372Z" fill="white"/>
<path fill-rule="evenodd" clip-rule="evenodd" d="M36.4772 10.4644C36.5956 11.9814 36.1068 13.484 35.1144 14.6531C34.1517 15.8282 32.6929 16.5051 31.1566 16.4895C31.0589 15.0161 31.562 13.565 32.5551 12.4559C33.5608 11.3317 34.9612 10.6206 36.4772 10.4644ZM41.3362 19.3783C39.5689 20.4446 38.4813 22.325 38.4546 24.3608C38.4571 26.664 39.8627 28.7425 42.0242 29.6397C41.6085 30.9651 40.9819 32.2175 40.1675 33.3507C39.0739 34.9562 37.9272 36.5247 36.1073 36.5537C35.2417 36.5733 34.6574 36.329 34.0486 36.0745C33.4136 35.809 32.7518 35.5324 31.7163 35.5324C30.618 35.5324 29.9266 35.8179 29.2598 36.0933C28.6836 36.3313 28.1257 36.5618 27.3394 36.5938C25.6062 36.6568 24.2816 34.8802 23.1482 33.2898C20.8829 30.0419 19.1189 24.1366 21.4837 20.1186C22.5942 18.1602 24.6706 16.9175 26.9531 16.8451C27.9362 16.8253 28.8794 17.1971 29.7064 17.5231C30.3389 17.7724 30.9033 17.9949 31.3656 17.9949C31.7719 17.9949 32.3206 17.7812 32.96 17.5321C33.9673 17.1398 35.1999 16.6597 36.4559 16.7891C38.4076 16.849 40.2162 17.8086 41.3362 19.3783Z" fill="white"/>
</svg>
