<svg width="163" height="48" viewBox="0 0 163 48" fill="none" xmlns="http://www.w3.org/2000/svg">
<path d="M11.3382 46.9976C10.9222 46.9976 10.5163 46.9929 10.1035 46.9847C9.24853 46.9749 8.39552 46.9094 7.55151 46.7886C6.7645 46.6692 6.00211 46.4471 5.28947 46.1297C4.58336 45.8149 3.93934 45.4021 3.38207 44.9072C2.81673 44.4181 2.34606 43.8508 1.98871 43.2278C1.62742 42.6008 1.37739 41.9287 1.24732 41.235C1.10686 40.4895 1.03086 39.7358 1.01999 38.9802C1.01133 38.7266 1 37.8821 1 37.8821V10.1025C1 10.1025 1.01207 9.27106 1.02006 9.02679C1.03047 8.27241 1.10602 7.51982 1.24606 6.77553C1.37637 6.07988 1.6266 5.40585 1.98808 4.77677C2.34412 4.15423 2.81217 3.58652 3.37411 3.09566C3.93541 2.60014 4.58149 2.18524 5.2888 1.86609C5.9998 1.54968 6.76075 1.32918 7.54617 1.21197C8.39296 1.08999 9.24893 1.02405 10.1069 1.01468L11.3389 1H151.654L152.901 1.01527C153.751 1.02417 154.6 1.08953 155.439 1.2108C156.232 1.32947 157.001 1.55151 157.72 1.86961C159.137 2.51279 160.29 3.53036 161.017 4.7797C161.373 5.40444 161.619 6.07297 161.748 6.76261C161.89 7.51301 161.969 8.27151 161.985 9.03208C161.989 9.37264 161.989 9.73846 161.989 10.1025C162 10.5535 162 10.9827 162 11.4155V36.5833C162 37.0201 162 37.4465 161.989 37.8762C161.989 38.2673 161.989 38.6256 161.984 38.9943C161.968 39.7412 161.89 40.4862 161.751 41.2232C161.623 41.9219 161.374 42.5993 161.013 43.2314C160.653 43.8477 160.185 44.41 159.627 44.8978C159.069 45.3954 158.424 45.8106 157.716 46.1274C156.999 46.4473 156.231 46.6702 155.439 46.7886C154.595 46.91 153.741 46.9756 152.886 46.9847C152.486 46.9929 152.068 46.9976 151.661 46.9976L150.181 47L11.3382 46.9976Z" stroke="white"/>
<path fill-rule="evenodd" clip-rule="evenodd" d="M58.288 27.6721V29.8321H63.472C63.3907 30.8494 62.9678 31.8094 62.272 32.5561C61.2232 33.6243 59.7718 34.1997 58.276 34.1401C55.0948 34.1401 52.516 31.5612 52.516 28.3801C52.516 25.1989 55.0948 22.6201 58.276 22.6201C59.7373 22.5962 61.1485 23.1529 62.2 24.1681L63.724 22.6441C62.2899 21.1919 60.3289 20.3824 58.288 20.4001C55.3827 20.287 52.6485 21.7725 51.1622 24.2713C49.676 26.7702 49.676 29.8819 51.1622 32.3808C52.6485 34.8797 55.3827 36.3651 58.288 36.2521C60.3661 36.346 62.3833 35.5365 63.82 34.0321C65.0772 32.6508 65.7484 30.835 65.692 28.9681C65.6959 28.5133 65.6557 28.0591 65.572 27.6121L58.288 27.6721ZM71.596 26.1001C68.7809 26.1068 66.5036 28.393 66.508 31.2081C66.5124 34.0232 68.7969 36.3023 71.612 36.3001C74.4271 36.2979 76.708 34.0152 76.708 31.2001C76.7278 29.8374 76.1935 28.525 75.2275 27.5636C74.2615 26.6021 72.9466 26.074 71.584 26.1001H71.596ZM77.692 31.2161C77.6832 28.4026 79.9545 26.1134 82.768 26.1001C84.1306 26.074 85.4455 26.6021 86.4115 27.5636C87.3775 28.525 87.9118 29.8374 87.892 31.2001C87.892 34.0137 85.6135 36.2957 82.8 36.3001C79.9864 36.3045 77.7008 34.0296 77.692 31.2161ZM79.7584 32.5424C80.3064 33.6895 81.4999 34.385 82.768 34.2963C83.5639 34.2778 84.3187 33.9386 84.861 33.3557C85.4032 32.7728 85.687 31.9955 85.648 31.2003C85.6449 29.9291 84.865 28.7889 83.6814 28.3252C82.4978 27.8615 81.151 28.1684 80.2851 29.0991C79.4193 30.0299 79.2104 31.3954 79.7584 32.5424ZM68.5784 32.5515C69.1303 33.6979 70.3272 34.3899 71.596 34.2962H71.584C72.3799 34.2778 73.1347 33.9386 73.677 33.3556C74.2192 32.7727 74.503 31.9954 74.464 31.2002C74.4605 29.928 73.6791 28.7874 72.494 28.3246C71.3089 27.8619 69.9614 28.1713 69.0968 29.1046C68.2322 30.038 68.0266 31.4052 68.5784 32.5515ZM108.292 26.1C110.282 26.1733 112.019 27.4671 112.66 29.352L112.912 29.892L106.084 32.712C106.512 33.6866 107.492 34.3006 108.556 34.26C109.583 34.2626 110.536 33.7247 111.064 32.844L112.804 34.044C111.857 35.4617 110.261 36.3092 108.556 36.3C107.201 36.3199 105.896 35.7878 104.94 34.8259C103.985 33.864 103.463 32.5552 103.492 31.2C103.409 29.8758 103.878 28.5764 104.787 27.6102C105.697 26.6441 106.965 26.0974 108.292 26.1ZM105.7 31.0561C105.651 30.3063 105.906 29.5683 106.407 29.0084C106.908 28.4485 107.613 28.114 108.364 28.0801C109.155 28.0279 109.901 28.4529 110.26 29.1601L105.7 31.0561ZM102.4 36H100.156V21H102.4V36ZM96.484 27.2402H96.4C95.716 26.4755 94.7381 26.0389 93.712 26.0402C90.9882 26.1723 88.8476 28.4192 88.8476 31.1462C88.8476 33.8733 90.9882 36.1202 93.712 36.2522C94.7414 36.2695 95.7256 35.8302 96.4 35.0522H96.472V35.7842C96.472 37.7402 95.428 38.7842 93.748 38.7842C92.6036 38.7575 91.5889 38.0415 91.18 36.9722L89.224 37.7882C89.9772 39.6204 91.7671 40.8121 93.748 40.8002C96.376 40.8002 98.548 39.2522 98.548 35.4842V26.4002H96.484V27.2402ZM93.9123 34.296L93.916 34.2963H93.904L93.9123 34.296ZM95.9344 33.3336C95.4194 33.9164 94.6891 34.2638 93.9123 34.296C92.3096 34.1528 91.0809 32.8098 91.0809 31.2003C91.0809 29.5895 92.3115 28.2457 93.916 28.1043C94.6914 28.1441 95.4178 28.4952 95.9306 29.0781C96.4435 29.661 96.6993 30.4262 96.64 31.2003C96.7062 31.978 96.4512 32.7488 95.9344 33.3336ZM123.172 21.0003H117.808V36.0003H120.052V30.3123H123.184C124.927 30.4376 126.594 29.5785 127.504 28.0863C128.414 26.594 128.414 24.7186 127.504 23.2264C126.594 21.7341 124.927 20.8751 123.184 21.0003H123.172ZM120.04 28.2003H123.172L123.22 28.2363C124.642 28.2363 125.794 27.0839 125.794 25.6623C125.794 24.2407 124.642 23.0883 123.22 23.0883H120.04V28.2003ZM137.008 26.0403C135.338 25.9405 133.769 26.8408 133.012 28.3323L135.004 29.1603C135.405 28.4207 136.205 27.9878 137.044 28.0563C137.619 27.9891 138.198 28.1559 138.649 28.5192C139.1 28.8825 139.387 29.4118 139.444 29.9883V30.1443C138.723 29.7627 137.919 29.5649 137.104 29.5683C134.956 29.5683 132.784 30.7683 132.784 32.9403C132.827 33.876 133.246 34.7545 133.947 35.3761C134.648 35.9977 135.57 36.3094 136.504 36.2403C137.655 36.323 138.759 35.7708 139.384 34.8003H139.456V36.0003H141.616V30.2283C141.616 27.6003 139.624 26.0763 137.068 26.0763L137.008 26.0403ZM134.98 32.9882C134.98 33.8882 136 34.2602 136.732 34.2602L136.792 34.2962C138.144 34.2633 139.265 33.2395 139.42 31.8962C138.797 31.5487 138.093 31.3746 137.38 31.3922C136.252 31.3922 134.98 31.7882 134.98 32.9882ZM149.488 26.4L146.92 32.904H146.848L144.184 26.4H141.784L145.78 35.496L143.5 40.548H145.84L151.984 26.4H149.488ZM131.56 36H129.316V21H131.56V36Z" fill="white"/>
<path fill-rule="evenodd" clip-rule="evenodd" d="M84.052 9.32416C82.6363 10.8227 82.6363 13.1656 84.052 14.6642C85.5124 16.1164 87.8716 16.1164 89.332 14.6642C90.7537 13.168 90.7537 10.8203 89.332 9.32416C88.6336 8.62066 87.6833 8.225 86.692 8.225C85.7007 8.225 84.7504 8.62066 84.052 9.32416ZM57.004 14.6881C57.6199 14.0451 57.9452 13.1776 57.904 12.2881C57.9041 12.1071 57.888 11.9264 57.856 11.7481H54.364V12.6121H56.968C56.9502 13.1563 56.7373 13.676 56.368 14.0761C55.5455 14.8712 54.3255 15.0934 53.2755 14.6393C52.2256 14.1852 51.5519 13.144 51.568 12.0001C51.5419 11.2432 51.8253 10.5083 52.3528 9.96487C52.8804 9.42145 53.6066 9.11643 54.364 9.12014C55.1175 9.07897 55.8464 9.39456 56.332 9.97215L56.968 9.33615C56.6608 8.98281 56.2742 8.70729 55.84 8.53214C55.3736 8.33255 54.8713 8.23045 54.364 8.23214C53.3687 8.20996 52.4086 8.60094 51.712 9.31214C50.6398 10.3913 50.3191 12.0081 50.898 13.4148C51.477 14.8216 52.8428 15.7442 54.364 15.7561C55.3558 15.7915 56.3157 15.4031 57.004 14.6881ZM60.16 9.288H63.4V8.4H59.2V15.6H63.4V14.712H60.16V12.432H63.112V11.568H60.16V9.288ZM67.336 15.6H66.412V9.288H64.396V8.4H69.4V9.288H67.336V15.6ZM72.928 8.4V15.6H73.852V8.4H72.928ZM77.956 15.6H77.032V9.288H75.016V8.4H79.96V9.288H77.956V15.6ZM84.736 14.0643C85.8176 15.1414 87.5664 15.1414 88.648 14.0643C89.7102 12.8933 89.7102 11.1073 88.648 9.93632C87.5664 8.85925 85.8176 8.85925 84.736 9.93632C83.6738 11.1073 83.6738 12.8933 84.736 14.0643ZM91.696 8.4V15.6H92.632V9.732L96.292 15.6H97.252V8.4H96.328V14.004L92.824 8.4H91.696Z" fill="white"/>
<path d="M84.052 14.6642L83.9793 14.7329L83.9815 14.7351L84.052 14.6642ZM84.052 9.32416L83.981 9.25369L83.9793 9.25549L84.052 9.32416ZM89.332 14.6642L89.4025 14.7351L89.4045 14.733L89.332 14.6642ZM89.332 9.32416L89.4045 9.25526L89.403 9.25371L89.332 9.32416ZM57.904 12.2881L57.8039 12.2881L57.8041 12.2928L57.904 12.2881ZM57.004 14.6881L57.076 14.7575L57.0762 14.7573L57.004 14.6881ZM57.856 11.7481L57.9544 11.7305L57.9396 11.6481H57.856V11.7481ZM54.364 11.7481V11.6481H54.264V11.7481H54.364ZM54.364 12.6121H54.264V12.7121H54.364V12.6121ZM56.968 12.6121L57.0679 12.6154L57.0713 12.5121H56.968V12.6121ZM56.368 14.0761L56.4376 14.1482L56.4415 14.144L56.368 14.0761ZM53.2755 14.6393L53.3152 14.5475L53.2755 14.6393ZM51.568 12.0001L51.6681 12.0016L51.6679 11.9967L51.568 12.0001ZM52.3528 9.96487L52.4246 10.0345L52.3528 9.96487ZM54.364 9.12014L54.3635 9.22032L54.3695 9.22L54.364 9.12014ZM56.332 9.97215L56.2555 10.0365L56.3256 10.1199L56.4027 10.0429L56.332 9.97215ZM56.968 9.33615L57.0387 9.40686L57.1047 9.34091L57.0435 9.27053L56.968 9.33615ZM55.84 8.53214L55.8006 8.6241L55.8026 8.62489L55.84 8.53214ZM54.364 8.23214L54.3618 8.33215L54.3643 8.33214L54.364 8.23214ZM51.712 9.31214L51.7829 9.38263L51.7834 9.38212L51.712 9.31214ZM50.898 13.4148L50.8056 13.4529L50.898 13.4148ZM54.364 15.7561L54.3676 15.6562L54.3648 15.6561L54.364 15.7561ZM63.4 9.288V9.388H63.5V9.288H63.4ZM60.16 9.288V9.188H60.06V9.288H60.16ZM63.4 8.4H63.5V8.3H63.4V8.4ZM59.2 8.4V8.3H59.1V8.4H59.2ZM59.2 15.6H59.1V15.7H59.2V15.6ZM63.4 15.6V15.7H63.5V15.6H63.4ZM63.4 14.712H63.5V14.612H63.4V14.712ZM60.16 14.712H60.06V14.812H60.16V14.712ZM60.16 12.432V12.332H60.06V12.432H60.16ZM63.112 12.432V12.532H63.212V12.432H63.112ZM63.112 11.568H63.212V11.468H63.112V11.568ZM60.16 11.568H60.06V11.668H60.16V11.568ZM66.412 15.6H66.312V15.7H66.412V15.6ZM67.336 15.6V15.7H67.436V15.6H67.336ZM66.412 9.288H66.512V9.188H66.412V9.288ZM64.396 9.288H64.296V9.388H64.396V9.288ZM64.396 8.4V8.3H64.296V8.4H64.396ZM69.4 8.4H69.5V8.3H69.4V8.4ZM69.4 9.288V9.388H69.5V9.288H69.4ZM67.336 9.288V9.188H67.236V9.288H67.336ZM72.928 15.6H72.828V15.7H72.928V15.6ZM72.928 8.4V8.3H72.828V8.4H72.928ZM73.852 15.6V15.7H73.952V15.6H73.852ZM73.852 8.4H73.952V8.3H73.852V8.4ZM77.032 15.6H76.932V15.7H77.032V15.6ZM77.956 15.6V15.7H78.056V15.6H77.956ZM77.032 9.288H77.132V9.188H77.032V9.288ZM75.016 9.288H74.916V9.388H75.016V9.288ZM75.016 8.4V8.3H74.916V8.4H75.016ZM79.96 8.4H80.06V8.3H79.96V8.4ZM79.96 9.288V9.388H80.06V9.288H79.96ZM77.956 9.288V9.188H77.856V9.288H77.956ZM88.648 14.0643L88.7187 14.1353L88.7221 14.1315L88.648 14.0643ZM84.736 14.0643L84.6618 14.1316L84.6654 14.1352L84.736 14.0643ZM88.648 9.93632L88.7222 9.86905L88.7186 9.86547L88.648 9.93632ZM84.736 9.93632L84.6654 9.86537L84.6619 9.86914L84.736 9.93632ZM91.696 15.6H91.596V15.7H91.696V15.6ZM91.696 8.4V8.3H91.596V8.4H91.696ZM92.632 15.6V15.7H92.732V15.6H92.632ZM92.632 9.732L92.7168 9.67908L92.532 9.38271V9.732H92.632ZM96.292 15.6L96.2071 15.6529L96.2365 15.7H96.292V15.6ZM97.252 15.6V15.7H97.352V15.6H97.252ZM97.252 8.4H97.352V8.3H97.252V8.4ZM96.328 8.4V8.3H96.228V8.4H96.328ZM96.328 14.004L96.2432 14.057L96.428 14.3526V14.004H96.328ZM92.824 8.4L92.9088 8.34698L92.8794 8.3H92.824V8.4ZM84.1247 14.5955C82.7454 13.1355 82.7454 10.8528 84.1247 9.39283L83.9793 9.25549C82.5272 10.7925 82.5272 13.1958 83.9793 14.7328L84.1247 14.5955ZM89.2615 14.5933C87.8401 16.0067 85.5439 16.0067 84.1225 14.5933L83.9815 14.7351C85.4809 16.2261 87.9031 16.2261 89.4025 14.7351L89.2615 14.5933ZM89.2595 9.39305C90.6445 10.8506 90.6445 13.1378 89.2595 14.5953L89.4045 14.733C90.8629 13.1983 90.8629 10.79 89.4045 9.25527L89.2595 9.39305ZM86.692 8.325C87.6566 8.325 88.5814 8.71002 89.261 9.39461L89.403 9.25371C88.6858 8.53129 87.7099 8.125 86.692 8.125V8.325ZM84.123 9.39461C84.8026 8.71002 85.7273 8.325 86.692 8.325V8.125C85.674 8.125 84.6982 8.53129 83.981 9.25371L84.123 9.39461ZM57.8041 12.2928C57.8441 13.1549 57.5288 13.9957 56.9318 14.619L57.0762 14.7573C57.7111 14.0945 58.0464 13.2003 58.0039 12.2835L57.8041 12.2928ZM57.7576 11.7658C57.7885 11.9382 57.8041 12.113 57.804 12.2881L58.004 12.2882C58.0041 12.1012 57.9875 11.9145 57.9544 11.7305L57.7576 11.7658ZM54.364 11.8481H57.856V11.6481H54.364V11.8481ZM54.464 12.6121V11.7481H54.264V12.6121H54.464ZM56.968 12.5121H54.364V12.7121H56.968V12.5121ZM56.4415 14.144C56.827 13.7262 57.0494 13.1836 57.0679 12.6154L56.8681 12.6089C56.8511 13.1291 56.6475 13.6258 56.2945 14.0083L56.4415 14.144ZM53.2358 14.731C54.3228 15.2012 55.586 14.9712 56.4375 14.148L56.2985 14.0042C55.5051 14.7712 54.3281 14.9855 53.3152 14.5475L53.2358 14.731ZM51.468 11.9987C51.4514 13.183 52.1488 14.2609 53.2358 14.731L53.3152 14.5475C52.3023 14.1094 51.6525 13.105 51.668 12.0016L51.468 11.9987ZM52.2811 9.89522C51.7346 10.4582 51.441 11.2195 51.4681 12.0036L51.6679 11.9967C51.6428 11.2669 51.916 10.5584 52.4246 10.0345L52.2811 9.89522ZM54.3645 9.02015C53.5799 9.0163 52.8276 9.33227 52.2811 9.89522L52.4246 10.0345C52.9332 9.51063 53.6333 9.21656 54.3635 9.22014L54.3645 9.02015ZM56.4085 9.90779C55.9027 9.30614 55.1434 8.97741 54.3585 9.02029L54.3695 9.22C55.0915 9.18054 55.7901 9.48297 56.2555 10.0365L56.4085 9.90779ZM56.8973 9.26543L56.2613 9.90143L56.4027 10.0429L57.0387 9.40686L56.8973 9.26543ZM55.8026 8.62489C56.2222 8.79412 56.5957 9.06035 56.8925 9.40176L57.0435 9.27053C56.7259 8.90528 56.3263 8.62046 55.8774 8.4394L55.8026 8.62489ZM54.3643 8.33214C54.858 8.3305 55.3468 8.42985 55.8007 8.62408L55.8793 8.44021C55.4004 8.23525 54.8846 8.13041 54.3637 8.13215L54.3643 8.33214ZM51.7834 9.38212C52.4607 8.69067 53.3941 8.31055 54.3618 8.33212L54.3662 8.13217C53.3433 8.10937 52.3566 8.51121 51.6406 9.24217L51.7834 9.38212ZM50.9905 13.3768C50.4269 12.0072 50.7391 10.4333 51.7829 9.38262L51.6411 9.24167C50.5405 10.3494 50.2113 12.0089 50.8056 13.4529L50.9905 13.3768ZM54.3648 15.6561C52.8838 15.6446 51.5541 14.7463 50.9905 13.3768L50.8056 13.4529C51.3998 14.8969 52.8018 15.8439 54.3632 15.8561L54.3648 15.6561ZM56.932 14.6188C56.2634 15.3133 55.3309 15.6905 54.3676 15.6562L54.3604 15.8561C55.3806 15.8924 56.3681 15.4929 57.076 14.7575L56.932 14.6188ZM63.4 9.188H60.16V9.388H63.4V9.188ZM63.3 8.4V9.288H63.5V8.4H63.3ZM59.2 8.5H63.4V8.3H59.2V8.5ZM59.3 15.6V8.4H59.1V15.6H59.3ZM63.4 15.5H59.2V15.7H63.4V15.5ZM63.3 14.712V15.6H63.5V14.712H63.3ZM60.16 14.812H63.4V14.612H60.16V14.812ZM60.06 12.432V14.712H60.26V12.432H60.06ZM63.112 12.332H60.16V12.532H63.112V12.332ZM63.012 11.568V12.432H63.212V11.568H63.012ZM60.16 11.668H63.112V11.468H60.16V11.668ZM60.06 9.288V11.568H60.26V9.288H60.06ZM66.412 15.7H67.336V15.5H66.412V15.7ZM66.312 9.288V15.6H66.512V9.288H66.312ZM64.396 9.388H66.412V9.188H64.396V9.388ZM64.296 8.4V9.288H64.496V8.4H64.296ZM69.4 8.3H64.396V8.5H69.4V8.3ZM69.5 9.288V8.4H69.3V9.288H69.5ZM67.336 9.388H69.4V9.188H67.336V9.388ZM67.436 15.6V9.288H67.236V15.6H67.436ZM73.028 15.6V8.4H72.828V15.6H73.028ZM73.852 15.5H72.928V15.7H73.852V15.5ZM73.752 8.4V15.6H73.952V8.4H73.752ZM72.928 8.5H73.852V8.3H72.928V8.5ZM77.032 15.7H77.956V15.5H77.032V15.7ZM76.932 9.288V15.6H77.132V9.288H76.932ZM75.016 9.388H77.032V9.188H75.016V9.388ZM74.916 8.4V9.288H75.116V8.4H74.916ZM79.96 8.3H75.016V8.5H79.96V8.3ZM80.06 9.288V8.4H79.86V9.288H80.06ZM77.956 9.388H79.96V9.188H77.956V9.388ZM78.056 15.6V9.288H77.856V15.6H78.056ZM88.5774 13.9935C87.5349 15.0317 85.8491 15.0317 84.8066 13.9935L84.6654 14.1352C85.7861 15.2511 87.598 15.2511 88.7186 14.1352L88.5774 13.9935ZM88.5739 10.0035C89.6016 11.1364 89.6016 12.8643 88.5739 13.9971L88.7221 14.1315C89.8189 12.9224 89.8189 11.0782 88.7221 9.86914L88.5739 10.0035ZM84.8066 10.0072C85.8491 8.96896 87.5349 8.96896 88.5774 10.0072L88.7186 9.86547C87.598 8.74953 85.7861 8.74953 84.6654 9.86547L84.8066 10.0072ZM84.8101 13.9971C83.7824 12.8643 83.7824 11.1364 84.8101 10.0035L84.6619 9.86914C83.5651 11.0782 83.5651 12.9224 84.6619 14.1315L84.8101 13.9971ZM91.796 15.6V8.4H91.596V15.6H91.796ZM92.632 15.5H91.696V15.7H92.632V15.5ZM92.532 9.732V15.6H92.732V9.732H92.532ZM96.3768 15.5471L92.7168 9.67908L92.5471 9.78492L96.2071 15.6529L96.3768 15.5471ZM97.252 15.5H96.292V15.7H97.252V15.5ZM97.152 8.4V15.6H97.352V8.4H97.152ZM96.328 8.5H97.252V8.3H96.328V8.5ZM96.428 14.004V8.4H96.228V14.004H96.428ZM92.7392 8.45302L96.2432 14.057L96.4128 13.951L92.9088 8.34698L92.7392 8.45302ZM91.696 8.5H92.824V8.3H91.696V8.5Z" fill="white"/>
<path d="M13.528 9.04787C13.1369 9.5172 12.9395 10.118 12.976 10.7279V37.2719C12.9395 37.8817 13.1369 38.4825 13.528 38.9519L13.612 39.0359L28.48 24.1799V23.8319L13.612 8.96387L13.528 9.04787Z" fill="url(#paint0_linear)"/>
<path d="M33.4 29.1363L28.48 24.1803V23.8323L33.4 18.8643L33.508 18.9243L39.4 22.2723C41.08 23.2203 41.08 24.7803 39.4 25.7403L33.532 29.0763L33.4 29.1363Z" fill="url(#paint1_linear)"/>
<path d="M33.544 29.064L28.48 24L13.528 38.952C14.2345 39.573 15.2829 39.6033 16.024 39.024L33.556 29.064" fill="url(#paint2_linear)"/>
<path d="M33.544 18.936L16.012 8.97596C15.2709 8.39669 14.2225 8.42694 13.516 9.04796L28.48 24L33.544 18.936Z" fill="url(#paint3_linear)"/>
<path opacity="0.2" d="M33.4 28.9561L16.012 38.8561C15.3004 39.3881 14.3236 39.3881 13.612 38.8561L13.528 38.9401L13.612 39.0241C14.3222 39.5601 15.3018 39.5601 16.012 39.0241L33.544 29.0641L33.4 28.9561Z" fill="black"/>
<path opacity="0.12" fill-rule="evenodd" clip-rule="evenodd" d="M33.4 28.956L39.4 25.56C40.02 25.254 40.4632 24.6778 40.6 24C40.5382 24.7493 40.0805 25.4083 39.4 25.728L33.508 29.064L33.4 28.956ZM12.9734 37.3375C12.9932 37.8655 13.187 38.3747 13.528 38.7839L13.612 38.8799L13.528 38.9639C13.1483 38.5083 12.9512 37.9289 12.9734 37.3375ZM12.9734 37.3375C12.9741 37.3196 12.9749 37.3018 12.976 37.2839V37.1039C12.9713 37.182 12.9705 37.26 12.9734 37.3375Z" fill="black"/>
<path opacity="0.25" d="M16.012 9.14392L39.4 22.4399C40.0201 22.746 40.4632 23.3221 40.6 23.9999C40.5382 23.2506 40.0805 22.5916 39.4 22.2719L16.012 8.97592C14.332 8.02792 12.964 8.81992 12.964 10.7399V10.9199C13 8.98792 14.344 8.19592 16.012 9.14392Z" fill="white"/>
<defs>
<linearGradient id="paint0_linear" x1="21.9679" y1="-9.0709" x2="-1.83942" y2="-2.73929" gradientUnits="userSpaceOnUse">
<stop stop-color="#00A0FF"/>
<stop offset="0.01" stop-color="#00A1FF"/>
<stop offset="0.26" stop-color="#00BEFF"/>
<stop offset="0.51" stop-color="#00D2FF"/>
<stop offset="0.76" stop-color="#00DFFF"/>
<stop offset="1" stop-color="#00E3FF"/>
</linearGradient>
<linearGradient id="paint1_linear" x1="41.596" y1="11.7599" x2="12.568" y2="11.7599" gradientUnits="userSpaceOnUse">
<stop stop-color="#FFE000"/>
<stop offset="0.41" stop-color="#FFBD00"/>
<stop offset="0.78" stop-color="#FFA500"/>
<stop offset="1" stop-color="#FF9C00"/>
</linearGradient>
<linearGradient id="paint2_linear" x1="13.0887" y1="16.233" x2="-6.03507" y2="48.4009" gradientUnits="userSpaceOnUse">
<stop stop-color="#FF3A44"/>
<stop offset="1" stop-color="#C31162"/>
</linearGradient>
<linearGradient id="paint3_linear" x1="1.85203" y1="4.91517" x2="10.388" y2="19.2797" gradientUnits="userSpaceOnUse">
<stop stop-color="#32A071"/>
<stop offset="0.07" stop-color="#2DA771"/>
<stop offset="0.48" stop-color="#15CF74"/>
<stop offset="0.8" stop-color="#06E775"/>
<stop offset="1" stop-color="#00F076"/>
</linearGradient>
</defs>
</svg>
