<svg width="583" height="313" viewBox="0 0 583 313" fill="none" xmlns="http://www.w3.org/2000/svg">
<path fill-rule="evenodd" clip-rule="evenodd" d="M571.142 308.013C542.274 312.4 512.883 312.621 483.774 311.028C472.254 310.165 460.699 310.01 449.189 311.112C442.388 311.619 412.566 313.899 410.129 307.805C411.663 275.354 414.768 242.626 424.297 211.416C428.215 200.333 431.58 191.136 439.228 181.965C441.639 179.461 446.836 174.21 449.815 172.497C452.395 171.014 453.473 171.543 454.955 169.037C456.428 166.268 457.513 161.645 459.604 159.693C461.733 157.703 464.887 158.415 468.798 159.056C468.079 149.345 472.56 146.871 478.733 145.025C489.583 140.882 500.299 142.963 503.03 156.177C508.093 156.177 510.938 158.357 514.013 160.452C515.27 161.308 514.396 163.489 515.897 164.162C518.675 165.151 523.584 164.91 526.259 166.127C538.421 171.664 549.254 179.695 556.368 191.421C572.318 216.459 583.274 269.201 581.378 298.876C582.208 300.179 581.06 302.049 580.768 303.449C580.399 304.669 579.206 305.479 577.96 305.34C576.222 307.21 573.534 307.626 571.142 308.013Z" fill="white"/>
<path fill-rule="evenodd" clip-rule="evenodd" d="M451.653 171.762C451.83 171.664 451.674 171.411 451.496 171.494C442.935 175.512 436.367 182.561 431.746 190.706C426.961 199.14 424.233 208.714 421.882 218.073L421.797 218.412C419.29 228.423 417.157 238.538 415.238 248.677C413.295 258.946 411.734 269.277 410.479 279.651C409.858 284.78 409.305 289.92 408.873 295.068C408.657 297.642 408.462 300.217 408.285 302.793C408.215 303.823 408.149 304.853 408.091 305.885L408.051 306.658C408.016 307.359 407.932 308.063 408.106 308.755C408.256 309.352 408.572 309.892 408.849 310.44C409.399 311.522 410.904 311.344 411.496 310.44L411.668 310.176C412.061 309.569 412.387 309.006 412.51 308.25C412.629 307.518 412.634 306.752 412.687 306.013C412.785 304.654 412.869 303.294 412.964 301.934C413.165 299.072 413.39 296.211 413.639 293.353C414.133 287.71 414.661 282.073 415.31 276.446C416.464 266.446 417.912 256.472 419.619 246.551C421.288 236.859 423.395 227.266 425.595 217.686L425.823 216.694C429.674 199.966 435.61 180.703 451.653 171.762ZM542.842 237.265C542.779 237.098 542.509 237.059 542.463 237.265C541.886 239.863 541.829 242.538 541.741 245.197C541.654 247.821 541.658 250.456 541.696 253.081C541.837 262.729 542.101 272.368 542.33 282.014C542.445 286.839 542.552 291.665 542.635 296.49C542.666 298.3 542.692 300.109 542.714 301.92L542.74 304.306C542.754 305.362 542.781 306.404 542.91 307.459C542.995 308.152 543.176 308.814 543.558 309.408C543.83 309.83 544.217 310.044 544.594 310.331L544.665 310.385C545.146 310.766 545.653 310.769 546.13 310.385L546.268 310.276C546.723 309.92 547.117 309.642 547.408 309.079C547.812 308.295 547.877 307.444 547.945 306.581C548.05 305.273 547.98 303.945 547.967 302.633C547.94 299.999 547.904 297.368 547.857 294.735C547.688 285.082 547.353 275.426 546.742 265.79C546.455 261.251 546.065 256.697 545.542 252.176L545.442 251.329C545.283 249.999 545.139 248.646 544.976 247.287C547.41 245.575 549.55 243.495 551.375 241.138C551.509 240.964 551.288 240.722 551.126 240.889C549.261 242.821 547.123 244.36 544.756 245.571C544.369 242.728 543.835 239.901 542.842 237.265ZM502.173 151.212C502.14 151.187 502.088 151.176 502.055 151.212C501.532 151.823 501.638 152.756 501.621 153.529L501.619 153.601C501.583 154.732 501.575 155.859 501.578 156.991L501.591 160.592C501.592 161.087 501.632 161.602 501.607 162.1L501.594 162.294C501.319 162.575 501.191 162.982 501.285 163.391C501.301 163.915 501.575 164.352 501.975 164.627L501.118 165.843L500.261 167.059C498.493 169.566 496.706 172.052 494.844 174.491C492.945 176.977 490.919 179.37 488.799 181.671C487.763 182.795 486.71 183.904 485.633 184.988C485.194 185.428 484.746 185.858 484.301 186.292L483.86 186.728C483.598 186.99 483.27 187.248 483.097 187.578C482.995 187.774 482.972 188.255 482.935 188.335C482.609 189.053 483.166 190.2 484.094 189.842L484.051 189.813C483.883 189.696 483.991 189.694 484.377 189.808C484.619 189.807 484.847 189.752 485.061 189.641L485.123 189.606C485.423 189.454 485.691 189.159 485.935 188.922L485.996 188.865C486.552 188.343 487.083 187.79 487.617 187.244C488.732 186.105 489.82 184.942 490.875 183.747C492.978 181.365 494.973 178.886 496.861 176.33C498.785 173.726 500.573 170.989 502.111 168.14C502.694 167.059 503.229 165.956 503.742 164.841C504.74 164.521 504.972 163.459 504.902 162.262C505.271 161.405 505.603 160.528 505.799 159.634C505.826 159.512 505.668 159.395 505.574 159.503C505.255 159.866 504.959 160.252 504.674 160.648C504.503 159.81 504.286 159.038 504.184 158.545L503.741 156.373C506.236 156.243 508.969 157.268 510.688 159.062C510.78 159.529 511.14 159.864 511.491 160.3C511.891 160.8 512.24 161.361 512.501 161.946C513.078 163.245 512.752 165.159 513.874 166.112C513.99 166.212 514.121 166.281 514.256 166.324C513.724 168.933 513.965 171.809 513.977 174.457L513.978 174.691C513.975 177.654 514.074 180.62 514.188 183.581L514.304 186.513C514.456 190.421 514.553 194.331 514.173 198.218C512.44 196.683 510.648 195.217 508.793 193.82C507.575 192.902 506.331 192.016 505.064 191.164L504.036 190.476C502.803 189.649 501.541 188.798 500.191 188.206C498.425 187.432 496.746 187.698 495.042 188.491C493.344 189.283 491.697 190.201 490.033 191.059C488.338 191.931 486.642 192.795 484.945 193.662C483.822 194.237 482.176 194.755 481.353 195.812C481.299 195.578 481.239 195.345 481.167 195.113C481.248 194.758 481.217 194.376 481.018 194.011C478.25 188.921 475.688 183.711 473.145 178.506C471.857 175.873 470.632 173.208 469.343 170.575L468.089 168.012C467.879 167.584 467.669 167.157 467.458 166.731C467.141 166.093 466.812 165.462 466.492 164.825C466.357 164.556 466.187 164.289 466.055 164.017L465.993 163.881C465.99 163.875 465.686 162.919 465.921 163.01L465.941 163.02C466.061 163.087 466.157 162.937 466.079 162.841C465.747 162.43 465.285 162.794 465.095 163.173C464.574 164.219 465.53 165.861 465.897 166.862L465.918 166.919C467.059 170.149 468.351 173.321 469.675 176.48C472.214 182.539 474.941 188.504 477.663 194.48L477.694 194.583C477.115 194.138 476.495 193.735 475.964 193.341C474.626 192.349 473.248 191.406 471.873 190.466C469.351 188.742 466.76 187.133 464.127 185.586L463.6 185.277C462.285 184.511 460.982 183.889 459.42 184.12C457.97 184.333 456.621 185.112 455.311 185.746L455.175 185.811L451.126 187.736C451.559 186.009 452.028 184.291 452.516 182.579C453.47 179.239 454.52 175.928 455.658 172.647C456.721 169.58 457.869 166.547 459.084 163.539L459.451 162.636C459.946 161.397 460.439 160.046 461.855 159.665C463.27 159.284 464.893 159.849 466.187 159.042C466.304 158.969 466.291 158.775 466.147 158.74L465.349 158.538C463.851 158.165 462.094 157.79 460.676 158.153C459.135 158.547 457.859 159.842 457.111 161.188C456.278 162.686 455.693 164.361 455.061 165.958L454.96 166.209C454.237 168.016 453.539 169.834 452.873 171.663C451.539 175.319 450.325 179.02 449.227 182.754C448.698 184.553 448.196 186.361 447.712 188.172C447.573 188.694 447.344 189.326 447.157 189.985C446.942 190.195 446.738 190.429 446.547 190.697C446.229 191.141 446.457 191.661 446.852 191.926C446.866 192.379 446.968 192.806 447.208 193.172C448.149 194.599 450.635 194.231 450.533 192.312C450.517 192.018 450.403 191.738 450.23 191.5L450.235 191.463L450.255 191.392C450.686 191.185 451.12 190.955 451.576 190.729L455.826 188.628C457.056 188.02 458.421 187.079 459.789 186.847C461.065 186.632 462.412 187.583 463.509 188.157L463.58 188.193C466.23 189.552 468.861 190.957 471.482 192.372C472.761 193.063 474.023 193.783 475.297 194.482C476.363 195.067 477.512 195.907 478.71 196.237C479.222 196.635 479.83 196.581 480.317 196.281C480.095 197.664 480.108 199.082 480.04 200.496C479.948 202.386 479.934 204.281 479.903 206.173L479.891 206.883C479.81 211.066 479.767 215.251 479.752 219.436C479.695 234.336 479.859 249.242 479.898 264.143C479.918 271.629 480.065 279.122 480.26 286.606C480.342 289.777 480.515 292.944 480.701 296.111L480.804 297.837C481.02 301.481 481.148 305.166 481.822 308.761C481.91 309.229 482.704 309.241 482.781 308.761C483.402 304.909 483.436 300.972 483.557 297.075L483.582 296.296C483.725 292.111 483.793 287.93 483.778 283.743C483.725 268.836 483.338 253.939 483.021 239.036C482.862 231.549 482.754 224.058 482.506 216.573C482.383 212.827 482.243 209.085 482.077 205.341C482.002 203.67 481.931 201.999 481.82 200.331L481.77 199.616C481.736 199.149 481.707 198.688 481.674 198.231C483.182 198.782 484.561 197.762 485.917 197.065C487.48 196.259 489.042 195.454 490.606 194.651L492.172 193.85L495.303 192.251C496.713 191.531 497.8 190.814 499.304 191.659C504.722 194.7 509.702 198.747 514.215 202.993C515.08 203.808 516.909 203.589 517.128 202.224C518.064 196.393 517.495 190.479 517.017 184.631L516.84 182.46C516.627 179.866 516.394 177.273 516.084 174.691C515.946 173.535 515.808 172.38 515.655 171.228L515.537 170.363C515.347 168.996 515.222 167.637 514.815 166.327C514.943 166.285 515.066 166.217 515.177 166.112C516.401 164.951 515.811 162.936 515.253 161.554C514.701 160.19 513.861 159 512.807 157.976C512.578 157.752 512.254 157.608 511.929 157.601C509.377 155.908 506.576 155.064 503.661 155.988C503.579 155.597 503.496 155.206 503.408 154.815L503.318 154.425C503.092 153.458 503.007 151.86 502.173 151.212ZM476.009 304.008C475.218 303.79 474.35 304.02 473.77 304.6C473.19 305.181 472.959 306.049 473.178 306.841C473.287 307.231 473.484 307.57 473.77 307.857C474.037 308.123 474.347 308.311 474.703 308.425L474.786 308.449L474.915 308.504C475.312 308.61 475.709 308.61 476.107 308.504C476.486 308.397 476.816 308.204 477.095 307.927C477.373 307.647 477.565 307.318 477.671 306.938C477.778 306.54 477.778 306.143 477.671 305.747L477.617 305.617C477.508 305.227 477.31 304.888 477.026 304.6C476.738 304.315 476.399 304.117 476.009 304.008ZM428.973 225.039C428.842 224.89 428.632 225.081 428.712 225.24C429.947 227.66 431.322 230.063 432.673 232.421C432.565 233.075 432.458 233.724 432.334 234.355C431.807 237.05 431.163 239.695 430.743 242.414C429.23 252.188 428.446 262.07 427.772 271.931C427.098 281.83 427.011 291.731 426.909 301.649C426.901 302.508 427.562 303.507 428.447 303.669C428.853 303.744 429.156 303.729 429.561 303.669C430.482 303.533 431.058 302.477 431.098 301.649C431.363 296.106 431.718 290.571 432.131 285.037C432.861 275.226 433.306 265.388 433.896 255.567L434.104 252.135C434.327 248.415 434.531 244.693 434.597 240.969C434.642 238.5 434.509 236.034 434.59 233.569C434.666 231.293 434.896 228.818 434.395 226.582C434.376 226.499 434.243 226.478 434.206 226.558C433.684 227.656 433.353 228.85 433.099 230.068C431.755 228.368 430.386 226.664 428.973 225.039ZM517.005 164.925C516.816 164.912 516.824 165.195 517.005 165.216C519.642 165.522 522.19 166.595 524.68 167.509L524.894 167.586C527.41 168.499 529.863 169.562 532.223 170.827C536.838 173.302 541.076 176.493 544.824 180.146C559.784 194.729 566.602 215.759 571.598 235.522C574.374 246.501 576.347 257.667 577.627 268.918C578.259 274.482 578.707 280.068 578.967 285.662C579.101 288.529 579.185 291.399 579.22 294.269C579.238 295.738 579.244 297.209 579.242 298.679C579.241 299.353 579.121 300.201 579.301 300.855C579.468 301.462 579.939 301.995 580.288 302.5C580.701 303.098 581.443 303.067 581.861 302.5L582.016 302.293C582.462 301.7 582.899 301.134 582.963 300.359C583.031 299.529 582.983 298.673 582.986 297.84C582.993 296.159 582.973 294.478 582.939 292.798C582.874 289.579 582.747 286.361 582.559 283.146C582.176 276.621 581.546 270.11 580.644 263.636C579.041 252.131 576.638 240.735 573.49 229.554C570.52 219.006 567.002 208.488 561.99 198.717C557.337 189.645 551.232 181.206 543.176 174.865C539.43 171.917 535.352 169.46 530.956 167.609C528.738 166.676 526.41 165.915 524.042 165.479C521.7 165.051 519.368 165.11 517.005 164.925ZM475.555 285.363C475.137 285.36 474.672 285.452 474.312 285.683L473.833 286.054C473.703 286.221 473.573 286.389 473.445 286.556C473.145 286.948 473.105 287.58 473.168 288.046C473.182 288.356 473.274 288.646 473.445 288.914L473.81 289.387C474.16 289.673 474.453 289.877 474.878 290.015C475.1 290.086 475.314 290.102 475.527 290.09L475.598 290.086L475.555 290.093L475.631 290.084C475.7 290.078 475.77 290.071 475.839 290.061C475.887 290.055 475.935 290.051 475.982 290.044C476.028 290.041 476.072 290.039 476.118 290.043C476.658 290.094 477.202 289.788 477.584 289.436C477.93 289.119 478.24 288.446 478.192 287.969L478.171 287.77C478.135 287.434 478.105 287.301 477.963 286.964C477.824 286.635 477.63 286.345 477.368 286.1C476.864 285.632 476.247 285.368 475.555 285.363ZM477.228 260.763C476.51 259.982 475.279 259.925 474.39 260.397C474.174 260.512 473.975 260.697 473.785 260.852C473.304 261.241 473.114 261.943 473.088 262.534C473.062 263.119 473.369 263.813 473.785 264.217L473.885 264.314C474.133 264.556 474.487 264.765 474.834 264.829C475.392 264.931 475.862 264.928 476.383 264.708C476.829 264.52 477.215 264.217 477.477 263.805L477.52 263.736C477.537 263.707 477.554 263.677 477.571 263.647L477.594 263.602C478.092 262.644 477.958 261.559 477.228 260.763ZM476.856 236.035C476.533 235.934 476.21 235.919 475.887 235.991C475.667 235.992 475.462 236.048 475.273 236.157C475.067 236.215 474.888 236.32 474.736 236.47C474.554 236.578 474.408 236.723 474.3 236.906C474.085 237.142 473.94 237.417 473.865 237.734L473.778 238.38L473.865 239.027L474.11 239.608C474.178 239.696 474.246 239.784 474.314 239.871C474.423 240.054 474.568 240.201 474.751 240.31C474.87 240.428 475.007 240.517 475.16 240.577C475.701 240.966 476.422 241.093 477.064 240.916C477.444 240.81 477.776 240.616 478.056 240.338C478.334 240.057 478.528 239.726 478.633 239.345L478.677 239.041C478.735 238.633 478.743 238.407 478.628 237.888C478.577 237.66 478.431 237.338 478.353 237.203C478.025 236.625 477.487 236.229 476.856 236.035ZM448.787 218.244C447.858 218.238 446.93 218.239 446.001 218.249L445.306 218.259C444.14 218.278 443.142 218.157 442.226 218.966C441.56 219.553 441.853 220.538 442.485 220.98C443.441 221.651 444.641 221.313 445.741 221.24C446.9 221.161 448.061 221.097 449.222 221.045C451.469 220.945 453.718 220.88 455.969 220.871C458.213 220.861 460.462 220.882 462.707 220.919C464.992 220.955 467.37 221.169 469.642 220.932C469.954 220.9 470.024 220.489 469.716 220.382C467.575 219.642 465.167 219.401 462.924 219.119C460.61 218.826 458.297 218.619 455.969 218.485C453.577 218.348 451.182 218.261 448.787 218.244ZM476.86 210.968L476.783 210.97C476.375 210.971 475.993 211.067 475.636 211.259L475.56 211.3L475.069 211.679C474.769 211.982 474.562 212.339 474.447 212.75L474.36 213.394C474.347 213.728 474.416 214.04 474.568 214.328C474.666 214.63 474.834 214.889 475.069 215.109C475.289 215.345 475.549 215.512 475.849 215.611C476.116 215.75 476.401 215.821 476.707 215.821L476.783 215.819C477.22 215.818 477.628 215.707 478.007 215.488L478.497 215.109C478.798 214.806 479.006 214.45 479.121 214.039L479.208 213.394C479.219 213.061 479.15 212.749 478.998 212.46C478.9 212.159 478.734 211.9 478.497 211.679C478.278 211.444 478.017 211.276 477.717 211.178C477.451 211.038 477.165 210.968 476.86 210.968ZM469.674 154.01C469.152 153.253 468.206 153.926 468.342 154.534C468.306 156.243 468.218 157.901 467.83 159.574C467.653 160.341 467.419 161.108 467.059 161.809L466.909 162.105C466.443 163.025 466.082 163.892 466.708 164.901C467.004 165.377 467.537 165.735 468.117 165.71C470.682 165.599 471.036 162.025 471.192 160.029C471.353 157.975 470.852 155.717 469.674 154.01Z" fill="#4A4A4A"/>
<path fill-rule="evenodd" clip-rule="evenodd" d="M450.454 91.0819C458.228 70.622 472.241 55.642 495.865 65.0509C496.542 64.5893 497.426 64.4655 498.273 65.006C511.142 73.0896 520.41 86.0497 524.426 100.664C526.87 101.128 529.245 101.939 531.366 103.269C535.976 106.159 539.078 110.757 541.985 115.236C542.86 116.582 542.05 118.811 540.407 119.117C539.693 119.25 538.986 119.329 538.283 119.349C538.454 119.972 538.679 120.572 538.966 121.123C540.006 123.118 538.042 125.236 536.202 124.691C535.998 124.799 535.784 124.887 535.563 124.954C535.537 126.085 534.957 127.597 533.808 127.825C531.95 128.224 529.481 126.802 529.92 124.723C529.358 124.822 528.799 124.834 528.254 124.766C528.193 125.849 528.212 126.978 528.063 127.976C527.574 132.683 522.874 135.843 518.392 134.411C518.117 135.878 517.795 137.938 516.351 138.733C514.664 143.47 511.749 148.875 506.975 151.033C507.401 152.123 507.17 153.448 505.891 154.176C497.153 159.16 486.666 160.846 476.788 158.993C472.84 158.758 468.994 157.866 465.302 155.964C462.61 154.578 460.135 152.817 457.718 151.002C455.301 149.186 452.717 147.418 450.787 145.061C448.691 142.501 447.717 139.488 447.083 136.282C444.182 121.728 445.184 107.437 450.454 93.5734C456.977 76.412 443.932 108.244 450.454 91.0819Z" fill="white"/>
<path fill-rule="evenodd" clip-rule="evenodd" d="M488.036 61.0636C484.058 60.7827 480.007 61.4536 476.219 62.6537C470.175 64.5671 464.626 67.9439 460.067 72.3399C455.368 76.8705 451.893 82.4562 449.78 88.6255C447.231 96.0657 446.851 104.01 446.133 111.777C445.771 115.7 445.174 119.565 444.553 123.45L444.454 124.064C443.849 127.85 443.508 131.68 444.345 135.46C445.738 141.743 449.912 147.076 454.867 151.017C465.046 159.112 480.893 164.048 492.745 156.598C494.578 155.446 492.841 152.498 491.05 153.7C489.791 154.545 488.457 155.287 487.025 155.798C481.045 157.936 474.478 157.174 468.568 155.185C462.744 153.226 457.156 149.915 452.858 145.497C448.344 140.855 445.843 135.123 446.204 128.6C446.42 124.719 447.303 120.91 447.794 117.061C448.229 113.651 448.49 110.223 448.79 106.8L448.9 105.569C449.536 98.5946 450.451 91.4289 453.623 85.0982C456.291 79.7722 460.198 75.034 464.896 71.3747C469.814 67.5436 475.688 64.8642 481.852 63.8649C489.1 62.6897 496.038 64.8267 502.085 68.8047C507.447 72.3327 512.057 77.0472 515.593 82.3967C517.307 84.9905 518.767 87.7605 520.028 90.6013C521.216 93.2777 522.036 96.083 522.991 98.8416C522.205 98.8182 521.405 98.8485 520.594 98.9383C516.43 99.3998 512.55 101.559 510.081 104.963C507.062 109.122 507.878 114.228 506.699 118.958C506.608 119.325 506.763 119.685 507.078 119.888C508.865 121.044 511.257 121.082 512.987 119.781C514.488 118.652 515.193 116.61 514.585 114.826C514.506 114.594 514.168 114.634 514.159 114.883C514.044 117.92 511.228 120.258 508.468 118.813C509.652 114.734 509.028 110.178 511.451 106.494C515.737 99.9728 524.606 99.7034 530.836 103.379C534.114 105.314 536.709 108.222 538.642 111.476L539.199 112.42C539.939 113.683 540.724 115.109 540.877 116.499C540.966 117.301 540.67 118.054 539.75 117.651C539.006 117.324 538.43 116.562 537.989 115.906C537.235 114.788 535.503 115.755 536.125 116.945L536.146 116.983C537.053 118.589 537.61 120.359 537.713 122.203L537.739 122.713C537.756 123.085 537.768 123.614 537.689 123.633C537.595 123.656 536.94 122.899 536.83 122.794C536.304 122.289 535.763 121.876 535.031 121.741C534.068 121.566 533.098 122.757 533.933 123.537L533.968 123.568C534.713 124.217 534.68 125.51 533.857 126.116C532.694 126.972 531.263 125.576 531.095 124.425L531.089 124.383C530.94 123.141 529.215 123.097 529.121 124.383C528.918 127.175 532.24 129.514 534.768 128.107C535.768 127.549 536.403 126.53 536.603 125.437C536.922 125.607 537.266 125.724 537.63 125.755C538.815 125.861 539.657 125.027 539.849 123.909C540.072 122.606 539.939 121.211 539.596 119.858C540.24 120.012 540.917 119.953 541.597 119.561C543.655 118.372 543.064 115.729 542.287 113.945C538.969 106.329 532.095 99.4181 523.579 98.8695C523.533 97.5257 523.351 96.2553 523.053 94.9098C520.14 81.7485 510.704 69.5616 498.419 63.8655C495.137 62.3433 491.655 61.3194 488.036 61.0636ZM520.252 113.638L520.135 113.611C518.808 113.325 515.315 112.989 515.736 115.223C515.756 115.329 515.908 115.316 515.936 115.223C516.348 113.819 519.149 114.942 519.967 115.281C521.094 115.746 522.207 116.434 523.127 117.233C525.143 118.983 526.494 121.448 526.699 124.127C526.903 126.784 526.132 129.654 524.216 131.576C523.277 132.517 522.079 133.157 520.732 133.204C519.522 133.246 518.186 132.304 517.069 132.856C516.849 132.965 516.675 133.263 516.695 133.509C516.732 133.974 516.941 134.336 517.25 134.617C515.381 138.025 513.852 141.631 511.468 144.729C510.271 146.283 508.916 147.723 507.381 148.948C506.651 149.531 505.858 150.042 505.04 150.491C504.081 151.018 503.252 151.349 502.568 152.242C501.984 153.003 502.568 154.475 503.53 154.607C505.795 154.915 507.995 153.084 509.658 151.712C511.319 150.34 512.754 148.649 513.941 146.856C516.219 143.409 517.777 139.345 518.4 135.232C519.124 135.462 519.938 135.533 520.551 135.534C522.181 135.538 523.738 134.951 525.019 133.96C529.709 130.33 530.231 122.879 526.921 118.181C525.337 115.932 522.93 114.271 520.252 113.638ZM520.223 122.28C519.135 122.184 518.048 122.355 517.026 122.727L516.605 122.879C515.715 123.206 514.767 123.588 514.124 124.256C513.142 125.275 514.12 127.044 515.519 126.653C517.066 126.221 518.324 124.917 519.87 124.371C521.252 123.882 522.818 123.951 524.045 124.792C524.207 124.904 524.42 124.684 524.314 124.523C523.376 123.094 521.894 122.426 520.223 122.28Z" fill="#4A4A4A"/>
<path fill-rule="evenodd" clip-rule="evenodd" d="M471.062 142.994C472.547 142.388 473.874 141.377 474.842 140.085C475.179 139.635 475.267 139.162 475.196 138.728C475.116 138.24 474.827 137.798 474.434 137.502C474.04 137.205 473.546 137.057 473.069 137.133C472.655 137.197 472.242 137.424 471.916 137.895L471.848 137.989C471.271 138.769 470.52 139.409 469.665 139.822C468.841 140.219 467.919 140.404 466.964 140.296C465.148 140.091 463.895 139.108 462.563 137.773C462.399 137.604 462.234 137.431 462.067 137.254C461.963 137.094 461.817 136.99 461.656 136.937C461.476 136.876 461.274 136.881 461.088 136.945C460.909 137.007 460.749 137.126 460.642 137.284C460.539 137.434 460.482 137.619 460.501 137.832C460.622 139.215 461.346 140.45 462.373 141.42C463.513 142.497 465.025 143.242 466.449 143.503C468.018 143.791 469.616 143.585 471.062 142.994ZM465.709 121.649C464.04 122.664 461.498 125.029 463.293 127.545C465.406 129.763 468.448 127.221 469.947 126.07C471.337 125.179 472.899 127.472 471.609 128.512C460.777 136.535 456.381 121.915 464.865 120.457C465.799 120.296 466.146 121.335 465.709 121.649ZM485.121 112.316C484.937 110.027 481.451 109.507 481.105 111.773C480.794 113.802 481.16 115.665 482.073 117.493C482.947 119.238 485.141 118.425 485.307 116.835C485.529 114.704 485.236 113.74 485.121 112.316ZM458.591 111.303C458.106 110.666 457.404 110.232 456.563 110.477C453.937 111.245 454.711 114.975 455.633 116.79C456.134 117.776 457.754 118.026 458.486 117.158C459.68 115.743 460.251 112.915 458.734 111.521C458.693 111.449 458.647 111.376 458.591 111.303ZM482.11 102.299L481.696 102.227C480.413 102.005 478.817 101.791 477.909 102.823C477.428 103.371 477.261 104.388 477.909 104.912C479.048 105.834 480.306 105.476 481.67 105.554C482.794 105.619 483.875 105.805 484.958 106.115C487.333 106.794 489.269 108.034 491.298 109.396C491.565 109.574 491.837 109.234 491.709 108.985C490.538 106.69 488.268 104.804 485.995 103.655C484.781 103.042 483.453 102.533 482.11 102.299ZM460.985 101.271L460.668 101.336C457.212 102.059 452.723 103.502 451.086 106.897C451.025 107.377 451.091 107.48 451.144 107.547L451.162 107.57C451.206 107.627 451.241 107.706 451.449 107.772C451.507 107.758 451.566 107.743 451.624 107.728C452.374 107.531 452.967 107.26 453.542 106.979L454.165 106.672C454.887 106.318 455.616 105.976 456.389 105.724C458.039 105.186 459.734 104.807 461.457 104.605C461.83 104.561 462.189 104.435 462.473 104.219C462.742 104.014 462.947 103.73 463.041 103.352C463.162 102.864 463.128 102.495 462.866 102.054C462.669 101.723 462.387 101.494 462.063 101.362C461.734 101.228 461.358 101.196 460.985 101.271Z" fill="#4A4A4A"/>
<path fill-rule="evenodd" clip-rule="evenodd" d="M457.19 130.592C460.29 130.07 463.51 130.842 466.498 131.666C471.245 128.548 477.396 131.696 480.796 135.59C481.959 136.55 484.403 137.822 483.116 139.652C483.604 140.944 483.734 141.553 482.724 140.042C477.008 140.7 470.875 139.456 465.219 138.283C463.292 138.931 461.592 140.446 459.474 139.927C457.472 140.353 455.305 140.751 453.497 139.466C452.121 139.41 449.059 141.882 449.109 139.007C449.534 136.252 454.996 131.666 457.19 130.592Z" fill="white"/>
<path fill-rule="evenodd" clip-rule="evenodd" d="M454.866 139.439C458.232 139.812 461.644 139.265 464.461 137.31C464.755 137.106 465.045 137.108 465.281 137.228C465.569 137.196 465.864 137.311 466.034 137.639C466.742 139.002 469.086 138.699 470.376 138.727C474.592 138.808 478.957 138.575 483.015 139.85C479.133 132.261 473.766 128.984 465.46 131.964C466.21 132.568 462.468 131.154 462.14 131.127C456.393 129.686 451.652 134.508 449.337 139.286C451.089 138.868 453.052 139.239 454.866 139.439ZM446.84 140.731C449.374 135.021 454.37 128.744 461.338 129.73C462.769 129.942 464.274 130.919 465.714 130.743C469.886 129.202 473.329 128.419 477.505 130.91C479.277 131.043 489.249 143.394 484.51 142.386C478.694 139.044 468.579 142.192 464.967 139.203C457.875 143.86 452.108 138.801 448.112 141.712C447.416 142.35 446.443 141.555 446.84 140.731Z" fill="#4A4A4A"/>
<path fill-rule="evenodd" clip-rule="evenodd" d="M447.076 123.628C448.564 125.628 451.322 126.265 453.866 126.044C459.353 125.516 461.08 119.282 461.26 114.436C457.58 115.472 461.571 108.139 448.994 107.333C444.56 106.963 445.783 109.642 443.824 111.599C443.863 115.706 444.547 120.17 447.076 123.628ZM473.209 118.908C476.45 134.084 494.188 130.474 496.051 116.794C494.33 115.579 494.784 112.579 492.646 111.492C489.259 109.327 485.023 109.419 481.176 109.47C476.258 109.808 474.857 111.846 472.331 114.069C472.452 115.554 472.804 117.315 473.209 118.908ZM440.049 104.819C440.231 104.789 440.413 104.76 440.595 104.734C440.737 104.653 440.905 104.591 441.098 104.553C441.542 104.441 441.981 104.365 442.42 104.324C448.725 102.905 463.31 104.92 463.912 110.302C465.919 110.973 467.657 110.372 469.984 110.432C471.756 103.026 502.378 104.071 503.85 108.536C503.855 108.535 503.862 108.534 503.867 108.532C505.282 108.094 507.369 108.199 508.988 108.13C512.446 108.057 515.908 108.366 519.292 109.096C525.628 110.103 534.276 111.282 529.869 119.197C529.868 119.198 529.868 119.201 529.866 119.202H529.866C529.106 119.98 527.817 119.353 527.769 118.299C529.251 114.548 525.905 114.099 523.33 113.021C516.924 110.718 510.401 110.399 503.775 111.111C503.277 111.698 502.521 112.21 501.721 112.478C497.291 113.214 499.626 116.501 496.825 116.979C497.339 128.439 483.432 134.695 475.373 127.161C472.156 124.015 471.388 119.353 470.643 115.151C470.248 115.062 469.997 114.846 469.851 114.561C468.902 113.613 468.307 112.738 466.431 112.478C464.556 112.218 463.111 112.74 462.916 112.9C462.866 112.999 462.814 113.099 462.752 113.198C462.667 113.346 462.55 113.465 462.418 113.558C464.27 124.97 455.414 132.186 446.474 126.268C442.59 122.612 441.768 117.016 441.606 112.02C441.08 111.702 440.747 111.086 440.929 110.312C441.18 109.244 440.591 108.32 439.653 107.855C438.433 107.253 438.65 105.051 440.049 104.819Z" fill="#4A4A4A"/>
<path fill-rule="evenodd" clip-rule="evenodd" d="M146.983 225.653C146.319 223.83 147.288 222.011 147.826 220.248C149.736 214.131 151.821 208.014 154.772 202.31C155.89 200.402 154.051 198.061 151.92 198.599C148.273 199.11 144.511 198.703 140.858 198.477C139.521 195.019 135.955 193.584 133.148 191.593C129.963 189.604 126.864 187.319 123.552 185.576C123.367 183.928 121.371 183.52 120.149 184.698C116.796 182.611 112.774 182.999 109.178 181.632C106.447 177.214 106.242 172.569 105.518 168.308C105.203 166.45 105.538 164.658 104.269 163.002C100.007 157.005 83.1657 154.404 76.9557 157.958C73.6137 155.873 73.5327 159.65 73.0017 161.981C72.4117 163.147 72.0927 164.468 72.1917 165.859C68.6007 173.361 60.3867 176.753 53.031 179.5C52.1082 178.612 50.7893 178.724 49.9113 179.459C43.5352 180.846 37.347 183.283 32.0049 187.089C25.9356 188.865 21.6612 193.803 18.5703 199.098C18.2298 199.656 18.1495 200.225 18.249 200.748C8.74431 214.686 4.20791 231.372 3.57081 248.224C-2.54139 251.894 6.47591 284.86 8.57511 291.704C8.57721 291.703 8.57931 291.702 8.58141 291.701C9.94321 294.113 11.4895 300.996 14.8977 300.463C17.2356 303.108 20.9613 302.588 24.1339 302.791C23.6171 304.774 23.871 307.043 24.486 309.002C25.2134 311.335 28.783 311.414 29.2892 308.871C60.8827 315.011 93.2997 310.112 125.249 311.033C134.486 311.099 143.723 311.385 152.938 312.043C154.236 312.136 155.552 310.809 155.463 309.517C153.482 288.43 151.621 260.69 149.406 239.81C148.88 235.048 148.465 230.234 146.983 225.653Z" fill="white"/>
<path fill-rule="evenodd" clip-rule="evenodd" d="M73.5237 159.26C73.6137 159.012 73.9837 159.045 73.9907 159.323C74.1357 165.252 72.6607 172.497 67.9177 176.502C65.4837 178.558 62.2647 179.499 59.3087 180.58L58.9757 180.703L53.7534 182.649C52.3683 183.165 50.8742 183.959 49.6508 183.23C50.6408 185.686 51.4719 188.209 52.6776 190.576C54.1784 193.523 55.993 196.219 58.2139 198.67C67.0127 208.384 80.9367 211.347 93.4327 208.501C99.8677 207.035 106.129 204.257 110.519 199.191C113.855 195.341 115.772 190.172 116.224 185.074C116.092 185.095 115.953 185.095 115.811 185.063C114.23 184.718 112.634 183.87 111.243 183.039L111.109 182.959C109.77 182.153 108.375 181.229 107.414 179.976C106.46 178.732 105.459 174.675 105.459 174.675C105.186 173.15 104.93 170.113 104.974 168.571C104.978 168.426 105.623 168.34 105.692 168.491C106.288 169.8 106.481 172.675 106.941 174.037L107.034 174.308C107.525 175.731 107.946 177.462 108.965 178.612C110.877 180.771 113.762 181.685 116.337 182.768C116.522 180.328 120.418 180.384 120.368 182.929C120.366 183.067 120.359 183.205 120.355 183.342C120.662 183.511 120.957 183.704 121.233 183.891L121.503 184.074C122.523 184.768 123.551 185.428 124.637 186.016C126.74 187.157 128.966 188.061 131.12 189.096C133.3 190.143 135.338 191.39 137.242 192.884C138.136 193.585 138.993 194.332 139.806 195.125L140.026 195.343C140.8 196.114 141.807 196.976 142.248 197.989C142.345 198.212 142.832 198.732 143.096 198.749C147.19 199.018 151.275 199.397 155.343 199.965C156.396 200.112 156.812 200.655 156.423 201.534C155.085 204.551 149.848 216.603 148.455 219.837C148.618 222.213 148.398 225.01 148.545 227.387C148.759 230.855 149.04 234.322 149.377 237.781C150.581 250.152 152.406 262.464 154.056 274.782C154.882 280.946 155.634 287.12 156.377 293.295C156.753 296.416 157.071 299.539 157.316 302.673C157.418 303.979 157.511 305.286 157.592 306.593L157.663 307.753C157.76 309.212 157.983 310.606 157.08 311.858C156.671 312.426 155.737 312.746 155.198 312.101C154.522 311.289 154.271 310.683 154.206 309.617C154.156 308.801 154.145 307.982 154.107 307.165C154.027 305.395 153.926 303.625 153.808 301.857C153.572 298.322 153.303 294.788 152.99 291.259C151.897 278.883 149.818 266.601 148.435 254.257C147.738 248.033 147.243 241.798 146.98 235.54C146.849 232.415 146.802 229.29 146.832 226.163C146.844 224.994 146.899 223.831 146.98 222.671C144.907 227.38 142.729 232.044 140.452 236.646L139.912 237.735C138.468 240.644 136.986 243.563 135.252 246.306L134.954 246.773C134.251 247.887 133.291 249.643 132.009 249.994C131.117 250.239 130.026 250.067 129.111 250.049C128.202 250.032 127.293 250.028 126.386 249.991C125.367 249.95 124.396 249.817 123.412 249.551C123.249 249.507 123.094 249.459 122.953 249.398C121.962 251.021 120.278 252.257 118.556 252.977C117.176 253.554 115.731 253.949 114.283 254.315L113.771 254.444C112.219 254.831 110.443 255.014 109.568 256.514L109.364 256.862C108.713 257.968 108.089 258.94 107.011 259.733C105.852 260.587 104.478 261.124 103.109 261.542C101.708 261.97 100.274 262.297 98.8507 262.648L98.4627 262.745C97.5237 262.98 96.5757 263.196 95.6427 263.452C95.2437 263.561 94.8387 263.673 94.4477 263.808C93.9897 263.965 93.6577 264.21 93.2967 264.477C92.9717 265.612 91.5847 266.227 90.4447 266.148C89.8457 266.107 89.3087 265.904 88.8197 265.606C87.9667 266.332 87.0267 266.983 86.1567 267.656C84.9387 268.599 83.7157 269.535 82.4867 270.463C79.9517 272.374 77.3967 274.26 74.8157 276.11C70.2347 279.392 65.5537 282.524 60.7937 285.54C58.8087 286.797 56.8106 288.053 54.7928 289.278L55.0082 289.358L55.4353 289.52C56.4449 289.897 57.5699 290.506 57.7656 291.684C57.9206 292.619 57.3988 293.263 56.4764 293.377C55.3801 293.513 54.527 292.738 53.8444 291.998C53.5432 291.672 53.206 291.369 52.9174 291.033C52.7997 290.896 52.7093 290.738 52.6296 290.572C50.6383 291.746 48.6258 292.88 46.5813 293.941L46.0696 294.205C40.9998 296.798 36.0652 299.64 30.9523 302.159C29.6186 302.817 27.9925 303.528 26.2975 304.013C26.7472 305.757 26.7403 307.672 26.7517 309.442C26.7625 311.167 24.0221 311.159 24.08 309.442L24.1079 308.613C24.1578 307.219 24.2393 305.771 24.5699 304.415C19.5759 305.243 14.5869 303.443 13.658 302.902C12.6327 302.306 11.702 301.351 10.9275 300.466C9.27014 298.571 8.12004 296.299 7.09964 294.014C4.91384 289.12 3.36524 283.888 2.23304 278.657C-1.94096 259.367 -0.145565 238.722 6.63294 220.232C8.32644 215.612 10.3258 211.094 12.617 206.74L12.9015 206.201C15.1879 201.895 17.729 197.606 20.9568 193.941C24.3189 190.124 28.4663 187.156 32.982 184.852C35.1857 183.727 37.4532 182.753 39.7708 181.889C40.1431 181.75 40.5179 181.626 40.8935 181.507C43.3087 179.967 46.2399 178.493 49.172 178.551C49.3713 178.555 49.5327 178.631 49.6531 178.745C49.7944 178.769 49.9358 178.799 50.0773 178.84C50.3898 178.931 50.7198 179.274 50.675 179.626L50.6598 179.743C50.6515 179.8 50.6411 179.855 50.6232 179.909C50.728 179.925 50.8309 179.95 50.9317 179.984C53.7371 179.192 56.4973 177.979 59.2347 177.002L59.8587 176.781C62.1517 175.978 64.5037 175.19 66.3847 173.599C68.2557 172.016 69.6627 169.967 70.6797 167.751C71.9327 165.02 72.4947 162.063 73.5237 159.26ZM129.691 303.257C130.247 302.844 130.904 303.323 131.111 303.835C131.794 305.514 131.457 308.124 130.495 309.608C129.498 311.147 127.112 310.539 127.054 308.676C126.994 306.733 128.123 304.425 129.691 303.257ZM135.429 256.889C135.479 256.671 135.818 256.673 135.868 256.889C136.331 258.86 136.32 260.982 136.456 263.002L136.472 263.226C136.634 265.454 136.771 267.688 136.869 269.919C137.061 274.31 137.29 278.701 137.546 283.089C137.674 285.264 137.81 287.44 137.956 289.615C138.412 289.36 138.881 289.137 139.368 288.94C140.097 288.645 140.807 288.611 141.591 288.619C142.545 288.629 143.264 289.469 143.137 290.404C143 291.423 142.103 291.859 141.172 291.714C140.141 291.552 139.106 291.302 138.065 291.199C138.181 292.88 138.301 294.561 138.428 296.241C138.596 298.466 138.816 300.687 138.97 302.913C138.985 303.125 139.001 303.337 139.017 303.551C139.638 303.228 140.297 303.063 141.044 302.859L141.238 302.804C142.323 302.493 143.483 302.062 144.487 302.792C145.162 303.282 145.297 304.089 144.738 304.736C143.89 305.718 142.636 305.528 141.465 305.478L140.835 305.455C140.242 305.431 139.694 305.393 139.145 305.243C139.246 306.693 139.299 308.148 139.121 309.577C139.025 310.349 138.009 310.551 137.74 309.764C137.038 307.705 136.893 305.485 136.636 303.329C136.396 301.316 136.25 299.288 136.092 297.265L136.045 296.658C135.691 292.209 135.408 287.757 135.202 283.298C134.995 278.839 134.871 274.382 134.821 269.919C134.799 267.893 134.832 265.86 134.911 263.834L134.937 263.226C135.028 261.142 134.964 258.931 135.429 256.889ZM42.5924 303.586C42.6194 303.301 42.8474 302.947 43.1864 302.991C43.4989 303.032 43.8209 303.012 44.13 303.064C44.5379 303.132 44.8662 303.373 45.2457 303.524C45.8624 303.771 46.5346 303.899 47.1674 304.1C48.3545 304.479 49.0014 305.729 48.5098 306.897C47.9928 308.124 46.6937 308.403 45.5712 307.888C44.6865 307.482 44.027 306.833 43.4321 306.082L43.2635 305.868C43.0071 305.545 42.7162 305.186 42.6086 304.795C42.504 304.414 42.5556 303.973 42.5924 303.586ZM100.268 297.816C101.747 297.607 103.01 298.113 104.378 298.59L104.489 298.628C105.882 299.109 107.913 299.442 108.627 300.868C109.058 301.728 108.723 302.869 107.71 303.124C106.105 303.526 104.666 302.353 103.339 301.563L103.27 301.522C101.989 300.771 100.667 300.141 99.8487 298.846C99.6307 298.501 99.8197 297.879 100.268 297.816ZM48.6514 180.18C48.059 180.312 47.4666 180.43 46.8748 180.543C44.6238 181.75 42.4389 183.002 40.1147 184.077C37.6488 185.218 35.192 186.397 32.8496 187.777C28.1175 190.566 24.2164 194.192 20.9929 198.636C15.4247 206.314 11.2828 215.167 8.31853 224.151C7.55693 226.459 6.87533 228.793 6.27243 231.146C7.33843 230.16 8.60053 229.554 10.0158 229.034C10.6156 228.814 11.3622 229.187 11.6663 229.706C11.8029 229.94 11.8801 230.17 11.8659 230.444C11.8344 231.048 11.4415 231.734 10.7929 231.854C9.28083 232.133 7.81063 232.675 6.35273 233.153C6.13173 233.226 5.94173 233.198 5.79013 233.113C4.34273 239.246 3.43724 245.505 3.11654 251.802C2.84524 257.134 3.01253 262.506 3.60283 267.83C4.05643 267.626 4.50013 267.435 4.99743 267.319C5.64243 267.169 6.27683 266.986 6.90603 266.78C8.72163 266.184 9.54984 269.183 7.69404 269.64C7.00344 269.81 6.30854 269.951 5.60484 270.055C4.99154 270.145 4.44894 270.105 3.87074 270.011C4.31244 273.332 4.91583 276.629 5.68443 279.88L5.85403 280.591C6.85243 284.742 8.01603 288.933 9.69873 292.856C10.5241 294.78 11.617 296.608 12.9664 298.213C13.6294 299.002 14.3652 299.678 15.1676 300.319C15.8356 300.852 18.1064 302.01 20.7957 302.01C23.4851 302.01 24.2132 301.755 25.57 301.288C28.2533 300.364 30.801 298.889 33.3174 297.575L33.5777 297.44C34.6904 296.864 35.7989 296.28 36.9045 295.69C36.7648 294.562 37.0093 293.615 37.5966 292.574C38.2315 291.447 39.8045 292.008 39.9215 293.161L39.9252 293.205C39.9429 293.464 39.9865 293.729 40.0406 293.993C47.433 289.942 54.6689 285.607 61.7897 281.091C66.3767 278.181 70.9147 275.184 75.3867 272.1C77.6217 270.558 79.8377 268.989 82.0317 267.388C83.1807 266.55 84.3247 265.705 85.4637 264.852C85.9377 264.497 86.4037 264.125 86.8787 263.768C86.7627 263.623 86.6507 263.479 86.5417 263.336C84.7667 261.011 83.6147 258.24 83.0407 255.381C82.6947 253.656 82.5267 251.865 82.4757 250.106L82.4537 249.341C82.4187 248.053 82.4097 246.704 82.6467 245.456C82.3237 245.634 81.9937 245.808 81.6647 245.994C80.4847 246.663 79.3027 247.33 78.1197 247.995C75.7507 249.324 73.3737 250.639 70.9667 251.9C66.6677 254.153 62.3267 256.296 57.8686 258.217L55.6992 259.153C51.9342 260.773 48.1384 262.364 44.2239 263.568C42.0159 264.247 39.7913 264.827 37.5516 265.345L38.4573 266.407C39.0715 267.127 39.0822 268.159 38.2974 268.765C37.5258 269.361 36.4906 269.112 35.9766 268.322L35.0396 266.88C34.8394 266.572 34.7257 266.283 34.6613 265.979C33.6296 266.195 32.5952 266.402 31.558 266.603L29.5973 266.977C26.7976 267.518 24.083 268.588 21.5804 269.958C20.7105 270.434 20.4681 269.509 21.3898 268.864C24.0851 266.979 27.229 265.913 30.4728 265.018L30.6322 264.974C31.8222 264.648 33.0102 264.308 34.1956 263.956C34.0653 263.484 33.9901 262.994 34.0051 262.455C34.0384 261.252 34.1447 260.046 34.2085 258.844C34.3425 256.322 34.5134 253.809 34.7136 251.291C34.7906 250.322 34.8767 249.349 34.9754 248.378C34.3397 248.037 33.7915 247.584 33.0827 247.362L32.9631 247.327C32.2051 247.122 32.4609 246.145 33.1342 246.062C33.7441 245.986 34.3511 246.021 34.9524 246.15C35.0456 246.17 35.1337 246.193 35.2177 246.218C35.3282 245.318 35.4508 244.421 35.59 243.528C35.9582 241.17 36.2187 238.685 36.9852 236.42C37.042 236.252 37.2911 236.192 37.3834 236.368C38.4985 238.49 38.5373 241.093 38.6629 243.456L38.6785 243.738C38.8266 246.316 38.8351 248.919 38.7873 251.501C38.7383 254.162 38.6472 256.815 38.5279 259.473C38.4799 260.544 38.4818 261.654 38.2995 262.678C44.935 260.52 51.4532 257.937 57.701 254.878C62.1087 252.721 66.4777 250.477 70.7967 248.149C72.9607 246.983 75.1357 245.836 77.2977 244.665C78.0547 244.255 78.8117 243.843 79.5687 243.431L80.7027 242.812C81.7647 242.232 82.6507 241.655 83.8877 241.615C84.2567 241.603 84.5867 241.776 84.8217 242.037C85.4867 241.565 86.2547 241.276 87.0607 241.283C88.2747 239.606 89.5067 237.943 90.7877 236.316L91.7337 235.111C93.3727 233.033 95.1077 230.923 97.1967 229.341C98.1287 228.636 99.1547 228.106 100.224 227.669C99.9717 227.607 99.7257 227.484 99.5067 227.28C98.4847 226.332 98.3437 224.572 98.1367 223.25C97.9217 221.879 98.0047 220.652 98.2167 219.286C98.2997 218.754 99.1787 218.644 99.3937 219.132C99.8457 220.16 100.325 221.146 100.737 222.186L100.858 222.5C101.3 223.671 102.241 224.902 102.179 226.173C102.162 226.521 102.045 226.824 101.865 227.068C102.763 226.77 103.674 226.504 104.57 226.227C107.392 225.354 110.225 224.507 113.101 223.83C113.867 223.65 114.636 223.483 115.409 223.329C115.813 221.407 116.403 219.52 117.099 217.667C116.44 217.329 116.014 216.764 115.447 216.26C114.916 215.789 114.552 215.215 114.099 214.674C113.687 214.182 113.918 213.293 114.659 213.321L114.869 213.33C115.636 213.366 116.379 213.445 117.075 213.803L117.323 213.931C117.663 214.108 118.035 214.31 118.367 214.549C118.8 213.552 119.25 212.564 119.706 211.586L120.297 210.322C121.829 207.031 123.357 203.614 125.281 200.55C126.136 199.187 127.274 198.337 128.907 198.205C130.59 198.069 132.338 198.244 134.023 198.305C135.976 198.375 137.928 198.457 139.879 198.56C139.378 198.036 138.922 197.453 138.42 196.95C137.586 196.116 136.706 195.326 135.78 194.595C133.947 193.149 131.933 191.958 129.84 190.932C127.747 189.906 125.593 189.011 123.628 187.743C122.385 186.941 121.273 185.932 120.259 184.84C119.621 191.728 116.296 198.127 111.302 202.935C106.114 207.928 98.9447 210.671 91.9307 211.838C84.7777 213.028 77.3117 212.591 70.4687 210.104C66.9397 208.821 63.5557 206.989 60.5377 204.691C60.5047 204.89 60.4647 205.088 60.3867 205.274C60.2817 205.524 60.1527 205.736 60.0047 205.955L59.7417 206.34C59.5757 206.582 59.4067 206.822 59.2187 207.046C58.7625 207.59 58.1162 207.828 57.4201 207.825C56.0872 207.821 55.0777 206.513 55.4365 205.22C55.6619 204.408 56.1442 203.919 56.8972 203.601C57.1351 203.5 57.3777 203.416 57.6216 203.333L57.8048 203.271C58.0513 203.186 58.296 203.106 58.5497 203.059C57.1207 201.797 55.7948 200.425 54.6075 198.945C50.8834 194.301 47.2103 187.798 48.4553 181.631C48.4769 181.525 48.5722 181.458 48.6748 181.441C48.7471 181.008 48.9774 180.59 49.2928 180.308C49.0805 180.252 48.8665 180.209 48.6514 180.18ZM87.3217 286.805C88.0587 286.394 88.8207 287.369 88.2217 287.972L87.3267 288.867C86.4957 289.702 85.6877 290.546 84.9767 291.498L84.8047 291.73C83.8447 293.036 82.8217 294.549 81.2497 295.037C79.3477 295.628 77.5197 293.31 78.6217 291.617C79.5837 290.138 81.4357 289.58 83.0327 288.968C84.5437 288.389 85.9087 287.59 87.3217 286.805ZM25.969 279.977C26.4023 279.41 27.5321 279.709 27.2361 280.512C26.2747 283.12 25.8828 286.675 23.4545 288.408C22.6711 288.966 21.4404 288.71 20.7954 288.065C20.0625 287.331 20.0332 286.299 20.4523 285.405C20.9635 284.313 22.2209 283.522 23.1022 282.691L23.1813 282.616C24.1295 281.694 25.1549 281.044 25.969 279.977ZM127.46 282.979C128.233 282.645 130.249 281.997 130.846 282.764C130.874 282.792 130.898 282.823 130.917 282.857C131.064 283.112 131.086 283.471 130.917 283.724C130.221 284.77 129.496 285.551 128.507 286.296L128.396 286.379C127.318 287.171 126.306 288.102 124.993 288.459C123.173 288.955 121.902 286.676 123.18 285.345C124.21 284.273 125.782 283.716 127.146 283.118L127.46 282.979ZM54.3852 268.079C54.0807 267.528 54.7027 266.853 55.266 267.198C56.8726 268.18 58.7443 268.917 60.5487 269.446C61.2797 269.661 61.9387 270.401 61.8837 271.2L61.8757 271.321C61.8537 271.604 61.8147 271.884 61.6357 272.119C61.0067 272.941 60.1077 273.258 59.1477 272.771C57.0079 271.686 55.5431 270.172 54.3852 268.079ZM101.346 266.412C101.306 266.181 101.476 266.002 101.711 266.047C103.069 266.304 104.323 266.96 105.489 267.714C106.114 268.119 106.717 268.563 107.341 268.971C108.112 269.476 108.4 269.892 108.514 270.818C108.589 271.429 108.019 271.987 107.496 272.155C106.071 272.615 104.438 271.107 103.473 270.127L103.429 270.082C102.419 269.052 101.585 267.833 101.346 266.412ZM142.127 264.811C141.817 263.975 142.884 263.282 143.582 263.692C144.238 264.079 144.951 264.399 145.571 264.842C146.14 265.25 146.659 265.732 147.205 266.174L147.475 266.387C148.477 267.193 150.129 269.185 148.698 270.34C147.335 271.44 145.528 270.035 144.613 269.008L144.55 268.936C144.023 268.328 143.375 267.667 142.993 266.957C142.633 266.288 142.39 265.521 142.127 264.811ZM128.688 200.086C126.981 200.417 126.285 202.525 125.567 203.898C123.87 207.14 122.31 210.442 120.744 213.748C120.261 214.765 119.792 215.789 119.318 216.812C119.289 216.892 119.252 216.971 119.208 217.049C118.237 219.14 117.237 221.217 116.069 223.202C117.138 223.001 118.213 222.83 119.292 222.696C119.238 221.68 119.933 220.32 120.277 219.464L120.306 219.392C120.735 218.296 121.185 216.568 122.289 215.999C122.657 215.81 123.051 216.047 123.079 216.453C123.163 217.66 121.983 219.041 121.406 220.065C121.057 220.685 120.718 221.307 120.386 221.936C120.262 222.172 120.158 222.403 120.031 222.611C120.587 222.55 121.144 222.497 121.703 222.458L122.067 222.433C124.138 222.296 126.337 222.257 128.208 223.279C129.944 224.226 130.832 226.249 129.878 228.091C128.69 230.386 126.074 230.69 123.773 230.876C120.899 231.108 118.019 231.526 115.166 231.935C112.214 232.357 109.435 233.445 106.528 234.005C106.257 234.057 106.089 233.703 106.337 233.552C108.63 232.155 111.418 231.387 113.982 230.604L114.19 230.541C115.581 230.113 116.94 229.625 118.379 229.383C119.775 229.147 121.181 228.957 122.589 228.812L122.726 228.799C124.277 228.669 128.234 228.713 128.067 226.416C127.956 224.896 125.486 224.633 124.358 224.615C119.187 224.532 113.98 225.905 109.066 227.376L107.969 227.705C105.957 228.311 103.942 228.934 101.967 229.644C99.7297 230.448 97.9667 231.703 96.3377 233.419C94.5307 235.323 92.7807 237.27 90.9067 239.109C89.7247 240.269 88.5277 241.408 87.3217 242.537C87.0487 242.89 86.8307 243.274 86.6797 243.772C86.4247 244.614 86.4837 245.396 86.5797 246.261C86.8227 248.444 86.8767 250.649 87.1807 252.826C87.4627 254.842 87.8577 256.932 88.6947 258.802C89.0257 259.543 89.4567 260.27 89.9487 260.921L90.3447 261.436C90.5177 261.66 90.7107 261.905 90.9137 262.136C91.2117 261.772 91.6427 261.536 92.1437 261.595C93.2077 261.72 94.0447 261.69 95.0887 261.445C95.8977 261.256 96.6997 261.034 97.5037 260.829C99.0847 260.426 100.679 260.059 102.243 259.596L102.512 259.515C103.678 259.157 104.844 258.709 105.814 257.957C106.941 257.082 107.288 255.82 108.123 254.729C109.905 252.398 113.758 252.447 116.366 251.809C118.583 251.267 120.716 250.411 122.25 248.802L122.339 248.706C122.271 248.419 122.381 248.095 122.648 247.946L122.706 247.914C122.81 247.856 122.922 247.832 123.032 247.834C123.174 247.625 123.312 247.409 123.437 247.179C123.539 246.989 123.796 247.129 123.762 247.316C123.742 247.428 123.714 247.537 123.688 247.646C125.174 247.264 126.806 247.337 128.314 247.338L130.272 247.331C130.611 247.327 131.116 247.31 131.161 247.289L131.207 247.269C131.329 247.216 131.156 247.303 131.241 247.19C131.335 247.065 131.427 246.939 131.518 246.812C131.843 246.357 132.15 245.889 132.45 245.417C129.172 246.253 125.775 246.773 122.428 247.206C118.836 247.672 115.197 247.995 111.574 247.998C110.575 247.999 110.584 246.491 111.574 246.453C115.411 246.306 119.228 246.103 123.039 245.611C125.01 245.356 126.973 245.037 128.924 244.663C129.678 244.52 130.429 244.367 131.179 244.205L131.741 244.082C132.094 244.004 133.09 243.892 133.576 243.566C133.672 243.402 133.767 243.238 133.862 243.074C133.815 242.498 132.352 242.575 132.009 242.574C131.036 242.572 130.063 242.58 129.089 242.583C127.143 242.588 125.198 242.571 123.251 242.556C119.363 242.524 115.46 242.388 111.575 242.555C110.632 242.595 110.137 241.082 111.069 240.684C115.184 238.926 119.752 238.544 124.146 238.004C126.457 237.72 128.769 237.392 131.027 236.817L131.586 236.675C133.005 236.311 134.572 235.867 135.767 235C133.971 234.273 131.738 234.357 129.877 234.254L129.734 234.245C127.127 234.085 124.516 234.003 121.904 233.999C116.56 233.992 111.215 234.181 105.877 234.435C105.743 234.441 105.715 234.229 105.846 234.201C111.332 233.004 116.908 232.427 122.523 232.338C125.137 232.296 127.754 232.333 130.366 232.449L131.325 232.493C133.552 232.589 136.024 232.615 137.888 233.961C138.172 234.166 138.322 234.428 138.345 234.705C140.845 229.721 143.153 224.632 145.471 219.578C147.273 215.647 149.008 211.684 150.875 207.784L151.48 206.523C152.29 204.839 153.119 203.156 154.04 201.534C150.596 201.073 147.133 200.753 143.668 200.509C140.51 200.285 130.208 199.791 128.688 200.086ZM127.163 254.106C127.556 253.887 128.158 254.065 128.254 254.55C128.326 254.911 128.449 255.311 128.449 255.68C128.449 256.122 128.291 256.603 128.207 257.035C128.013 258.03 127.775 258.838 127.269 259.724C126.953 260.278 126.314 260.655 125.672 260.64C125.164 260.628 124.714 260.492 124.365 260.098C123.947 259.627 123.66 258.933 123.889 258.298C124.49 256.635 125.593 254.978 127.163 254.106ZM43.8604 252.446C44.7794 250.836 46.9578 249.397 48.8587 249.539C51.7132 249.753 52.2956 253.598 49.532 254.516C47.8801 255.064 45.6075 254.501 44.1625 253.598C43.7729 253.355 43.6301 252.85 43.8604 252.446ZM14.5242 246.945C14.3154 246.642 14.6604 246.295 14.9714 246.363C15.6612 246.515 16.4049 246.581 17.0805 246.787C17.7724 246.997 18.4421 247.346 19.1275 247.586C20.5633 248.09 22.0968 248.342 23.4864 248.949C24.0418 249.192 24.4787 249.997 24.4273 250.59L24.4142 250.729C24.3835 251.023 24.3325 251.28 24.1679 251.549C23.7257 252.272 22.8496 252.645 22.0227 252.423C20.4887 252.01 18.9897 250.951 17.6818 250.072L17.4401 249.911C16.8686 249.534 16.2542 249.14 15.7937 248.656C15.313 248.15 14.918 247.518 14.5242 246.945ZM67.2557 241.089C67.0787 240.452 67.8707 240.032 68.3317 240.462C69.2527 241.321 70.2167 242.117 71.1187 242.998L71.1797 243.058C71.8257 243.708 72.7667 244.96 71.9257 245.8C70.8487 246.878 69.3487 245.279 68.7707 244.446C68.0387 243.389 67.5987 242.324 67.2557 241.089ZM137.778 235.829C136.411 237.277 134.305 237.943 132.45 238.495C130.251 239.149 127.986 239.539 125.718 239.861C123.526 240.171 121.352 240.448 119.195 240.805C120.827 240.825 122.458 240.837 124.085 240.866C125.963 240.9 127.839 240.941 129.715 240.995C131.082 241.035 132.685 240.848 133.984 241.356C134.218 241.447 134.437 241.574 134.628 241.728C135.719 239.786 136.766 237.817 137.778 235.829ZM53.4525 222.283C54.8794 221.829 56.2212 221.227 57.7339 221.384C58.1359 221.425 58.4239 221.817 58.2044 222.203C57.4875 223.465 56.3218 224.178 55.1743 225.022L55.0732 225.097C53.8172 226.031 52.4686 226.883 51.1028 227.65C48.7512 228.97 46.6438 225.192 49.0186 224.083C50.4477 223.416 51.9487 222.761 53.4525 222.283ZM79.1427 219.002C81.3257 219.146 83.5077 219.244 85.6927 219.332C88.2247 219.434 87.3737 223.332 85.2587 222.543C83.1697 221.764 81.0797 220.994 78.9717 220.267C78.3297 220.046 78.3817 218.991 79.1017 219.001L79.1427 219.002ZM23.1511 212.068C23.7169 212.029 24.2876 212.152 24.8542 212.207L25.4571 212.266C26.7 212.39 27.8653 212.542 29.0506 213.048C31.2376 213.982 30.063 217.499 27.8675 217.418C26.2447 217.359 24.8571 216.661 23.4869 215.85C22.289 215.14 21.5546 214.253 20.7457 213.138C20.4778 212.769 20.8511 212.356 21.2159 212.319C21.8586 212.253 22.5083 212.113 23.1511 212.068ZM132.782 204.886C132.42 207.145 131.522 209.262 130.168 211.106C129.488 212.032 128.294 212.067 127.62 211.106C126.666 209.746 127.254 208.188 127.972 206.881L128.185 206.499C128.507 205.925 129.001 205.089 129.565 204.511L129.575 204.452C129.877 202.086 133.155 202.559 132.782 204.886ZM44.4857 190.388C45.0299 189.897 46.0322 190.045 46.2088 190.843C46.456 191.96 46.6064 193.22 46.4446 194.354C46.3569 194.969 46.3239 195.659 46.0822 196.232C45.8224 196.849 45.3225 197.322 44.8516 197.786C43.9115 198.711 41.9296 198.405 41.6777 196.947L41.6458 196.769C41.5191 196.079 41.3571 195.342 41.5446 194.659C41.6862 194.143 42.0026 193.617 42.2644 193.139L42.3196 193.037C42.8439 192.06 43.6613 191.13 44.4857 190.388ZM120.984 192.765L121.181 192.768C122.7 192.798 125.477 193.168 125.492 195.045C125.495 195.488 125.168 195.947 124.729 196.048C123.821 196.259 123.234 195.722 122.586 195.18C122.057 194.737 121.44 194.383 120.8 194.128C120.107 193.852 120.153 192.764 120.984 192.765Z" fill="#4A4A4A"/>
<path fill-rule="evenodd" clip-rule="evenodd" d="M123.106 118.019C122.604 111.522 123.381 104.711 120.877 98.535C116.511 88.2877 104.266 84.871 94.7741 80.9697C90.9711 79.8456 78.1751 79.6885 73.7221 78.2007C63.6451 74.8335 61.2371 70.8216 53.2295 77.2328C51.8778 78.3281 51.0321 79.5184 50.4152 81.1447L50.4406 81.1517C50.2644 81.8297 50.4532 82.5062 50.8502 83.023C47.3782 86.5733 45.9254 91.8959 47.7068 96.6219C53.5202 108.92 53.2468 115.57 51.3737 128.791C48.9277 141.134 54.5172 145.642 63.7741 152.358C63.3971 153.089 63.3191 154.061 63.8101 154.706C74.5151 169.754 94.6981 176.939 111.991 169.301C119.01 166.175 122.144 158.697 123.932 151.949C126.015 144.394 126.655 136.432 124.959 128.736C124.275 125.176 123.384 121.643 123.106 118.019Z" fill="white"/>
<path fill-rule="evenodd" clip-rule="evenodd" d="M61.3612 46.0292C62.6612 45.8341 63.6422 46.6405 64.1092 47.7772L64.1332 47.8384C64.2832 48.2252 64.4502 48.6014 64.6302 48.9712C67.8812 47.3756 72.5202 47.7856 74.5782 51.0171C76.0462 53.3251 75.1512 56.0642 74.5972 58.5116L74.2342 60.1242C74.9362 60.5714 75.4662 61.3721 75.4412 62.2013L75.4382 62.2652L75.2902 64.5139C75.7592 64.0384 76.1882 63.5206 76.5702 62.969C76.8352 62.485 77.1202 62.0094 77.4262 61.5487C79.2282 58.8371 83.2742 61.1936 81.7872 64.0976C81.5012 64.6577 81.1802 65.1882 80.8362 65.6996C80.4472 66.4541 80.1282 67.2298 79.8832 68.0266C80.5872 68.333 81.1272 69.0136 81.1852 70.0408C81.3182 72.4396 80.0582 74.4411 78.0562 75.6986C77.4662 76.0685 76.8582 76.1403 76.3062 76.0029C76.2092 76.134 76.1122 76.265 76.0192 76.3982C76.8182 77.047 77.5382 77.7867 78.1572 78.6068C80.0202 78.3278 81.8942 78.1968 83.7682 78.1925C86.0582 77.0703 88.8012 77.0935 91.2622 77.5141C92.8462 77.7846 94.3682 78.3109 95.9272 78.6892C97.5702 79.0865 99.2392 79.1013 100.902 79.3719C102.998 79.7121 104.836 80.6801 105.992 82.2251C107.261 82.2631 108.596 82.7831 109.704 83.489C112.281 85.1333 114.844 86.8008 117.415 88.4557C118.402 89.091 118.77 90.1053 118.589 91.2366L118.577 91.3089L118.49 91.7781L118.694 92.0669C119.48 93.1785 120.337 94.3428 120.846 95.5698C121.788 96.9287 122.639 98.3532 123.394 99.8221C124.41 101.796 125.249 103.888 125.817 106.036C125.958 106.579 126.1 107.126 126.193 107.68C126.326 108.462 126.121 109.069 126.009 109.819C125.87 110.77 125.819 111.734 125.671 112.687C125.572 113.319 125.035 113.63 124.473 113.646C124.685 115.255 124.837 116.874 124.982 118.48C125.187 120.775 125.327 123.077 125.447 125.379C126.068 126.281 127.338 126.995 128.255 127.243C129.525 127.583 130.856 127.213 132.056 126.78C132.81 126.507 133.429 127.456 133.061 128.09C131.906 130.081 129.434 130.072 127.562 129.191C126.77 128.819 126.075 128.28 125.559 127.579C125.591 128.247 125.625 128.914 125.658 129.584L125.69 130.191C126.071 137.278 126.892 144.609 125.561 151.626C123.256 163.781 113.202 173.036 100.919 173.754C94.4742 174.132 89.1062 172.227 86.4372 171.165C83.7682 170.102 84.8062 167.936 86.6582 168.555C89.8502 169.622 95.7142 171.211 100.961 170.525C113.329 168.908 123.816 162.724 122.739 136.09C122.586 132.313 122.115 128.534 122.014 124.757C121.917 121.065 121.953 117.37 121.79 113.68L121.736 112.421C121.672 110.95 121.604 109.472 121.494 107.999C121.361 107.429 121.251 106.849 121.089 106.289C120.647 104.766 120.07 103.284 119.354 101.87C119.196 101.991 119.018 102.077 118.826 102.111C117.366 102.373 115.997 102.299 114.63 101.69C113.992 101.409 113.43 101.035 112.906 100.572C112.657 100.355 112.49 100.143 112.359 99.9236C111.698 99.9341 111.037 99.7355 110.623 99.2599C110.15 98.7179 110.072 98.1581 110.257 97.6398L110.276 97.5881L110.23 97.5712C109.672 99.0148 108.561 100.285 107.342 101.143C105.415 102.504 103.004 102.897 100.693 102.933C98.1412 102.971 95.4492 102.578 92.9312 102.177C92.2652 102.071 91.6042 101.95 90.9562 101.788C90.9302 101.813 90.9052 101.843 90.8772 101.868C88.7162 103.937 85.6762 104.47 82.9342 103.288C81.3492 102.606 80.0202 101.507 78.8462 100.247C78.8292 100.906 78.7952 101.566 78.7382 102.219L78.7142 102.478C78.5972 103.694 78.3722 104.985 77.4542 105.862C75.9682 107.285 73.8132 106.714 72.1002 105.788C72.1022 105.833 72.1022 105.879 72.1022 105.926C72.5652 107.498 73.0302 109.073 73.4942 110.647L73.5942 110.983C73.9322 112.101 74.3032 113.22 74.4052 114.39C74.5992 116.627 73.1122 118.835 70.6272 118.085C69.3242 117.693 68.2802 116.597 67.2782 115.719L66.6472 115.172C68.2802 120.513 69.4132 126.044 69.5182 131.617C69.5252 131.92 69.2652 132.148 68.9772 132.159C68.3062 132.186 67.5832 132.053 66.9072 131.784C66.8692 131.782 66.8312 131.78 66.7912 131.774C65.6372 131.607 64.5662 131.191 63.6222 130.576C63.8392 131.267 63.9372 132.008 63.8802 132.784C63.8652 132.972 63.5712 133.038 63.5292 132.831C62.9842 130.149 59.8467 128.122 57.1425 128.635C54.2396 129.187 52.1016 131.685 51.5777 134.528C51.0157 137.582 52.0911 141.113 54.0833 143.47C55.0002 144.556 56.2065 145.463 57.6389 145.691C58.2939 145.795 58.9742 145.759 59.6101 145.573C59.8805 145.493 60.134 145.381 60.3918 145.275C60.7682 145.123 61.2072 145.099 61.5622 144.939C62.3672 144.577 63.1762 145.319 62.7682 146.146C62.4132 146.866 62.0942 147.352 61.5052 147.724C61.9822 148.308 62.4162 149.119 62.5762 149.337C63.3962 150.445 64.2282 151.491 65.1622 152.503C66.1132 153.53 67.1502 154.469 68.2462 155.337L68.7072 155.702C69.7642 156.54 70.6832 157.316 71.4282 158.518C72.0162 159.467 71.2552 160.754 70.1542 160.739C66.7112 160.691 64.2072 157.664 62.4242 155.02C62.1702 154.642 61.9322 154.243 61.7102 153.832C61.6302 153.961 61.5412 154.082 61.4422 154.192L61.6382 154.72C62.2212 156.276 59.7094 157.292 58.9805 155.84C58.4502 154.788 57.8354 153.786 57.1509 152.839C56.7474 152.782 56.3523 152.537 56.1326 152.22C55.577 151.415 54.9537 150.601 54.4277 149.743C54.1361 149.466 53.8361 149.2 53.5298 148.94C53.4411 149.018 53.3502 149.096 53.2636 149.179C52.8791 150.056 52.4037 150.857 51.8143 151.611L51.6879 151.772C50.5587 153.196 49.0879 154.653 47.2678 155.001C46.7122 155.107 46.1777 154.416 46.6699 153.974C47.9439 152.829 49.4502 152.049 50.6249 150.77C51.2036 150.14 51.7349 149.446 52.1919 148.719L52.296 148.551C52.372 148.426 52.4502 148.301 52.5305 148.175C52.0002 147.813 51.4699 147.45 50.9396 147.086C49.4799 148.334 47.5788 148.905 45.9642 149.938L45.8037 150.043C44.3439 151.019 42.8058 148.859 43.9763 147.674C45.2665 146.372 46.3435 144.819 47.4865 143.371C46.949 142.381 46.6946 141.21 46.5994 140.026C46.5618 139.691 46.5324 139.356 46.503 139.021C45.6833 139.034 44.8594 138.753 44.1622 138.269L43.8981 138.081C43.0509 138.351 42.1615 138.482 41.3101 138.459C39.3073 138.4 38.4875 136.111 39.7404 134.663C41.0185 133.184 43.2558 132.86 45.0284 133.579C45.0854 133.549 45.1446 133.517 45.2016 133.486C45.1171 133.097 45.1359 132.744 45.232 132.434L45.2042 132.245C44.8144 131.647 44.5581 130.964 44.4609 130.242C44.384 129.67 44.3996 129.104 44.5319 128.539C44.5758 128.352 44.6673 128.157 44.7373 127.961C44.5932 127.597 44.5085 127.221 44.4823 126.843C44.4419 126.795 44.4018 126.745 44.3637 126.692C43.4842 125.457 43.6619 123.968 44.4989 122.969C44.5027 122.905 44.5087 122.841 44.5173 122.778C44.4683 122.668 44.4233 122.556 44.3823 122.444C43.5645 121.618 42.9641 120.625 43.0761 119.395C43.1418 118.671 43.4392 118.019 43.8894 117.532C43.8096 117.295 43.802 117.022 43.8987 116.793C43.1802 114.881 43.2711 112.579 43.7882 110.44C43.6742 110.115 43.615 109.762 43.6277 109.388C43.6868 107.801 45.0601 106.342 46.6868 106.361C46.8827 106.363 47.0661 106.389 47.2423 106.426L47.2446 106.388C47.3069 105.912 47.4379 105.471 47.6291 105.076C47.5351 105.042 47.448 104.994 47.3718 104.929C46.3294 105.485 45.2263 105.91 44.0699 106.2C43.2195 106.413 42.3485 105.446 42.877 104.648C43.1223 104.277 43.393 103.944 43.6845 103.641C43.27 103.643 42.8492 103.671 42.4235 103.726C41.6587 103.825 40.8051 103.303 40.3087 102.597C39.6918 103.197 39.0727 103.795 38.4537 104.394C36.8861 105.913 34.5178 104.795 34.2706 102.792C33.8037 102.667 33.3685 102.455 32.9861 102.153C30.5143 103.227 27.8544 103.817 25.1354 103.929C23.1833 104.009 22.0425 101.735 22.9551 100.129C23.5678 99.0507 24.3284 98.0827 25.2051 97.2415C23.8446 97.6579 22.4397 97.958 21.0051 98.1503C20.2298 98.2539 19.1333 97.6114 18.8228 96.8991C17.6354 94.16 17.7368 91.3047 19.1037 88.6396C19.1566 88.5339 19.2157 88.4325 19.2728 88.331C19.4143 87.9781 19.5685 87.6293 19.7354 87.2869C18.0537 85.5327 17.908 82.9247 18.8143 80.7414C18.4509 80.1518 18.3115 79.4416 18.5587 78.7991C19.2622 76.9498 20.2763 75.2421 21.5566 73.7753C21.434 73.5386 21.3263 73.2871 21.2354 73.0166C20.515 70.8291 21.3495 68.1893 23.0333 66.6655C24.0918 65.706 25.3087 65.1311 26.608 64.7633C27.1551 63.7954 27.8587 62.9225 28.6784 62.187C28.7101 62.1172 28.7418 62.0475 28.7777 61.9777C30.0537 59.5726 32.3777 58.2833 34.8685 57.9853C34.9657 57.0448 35.5995 56.1466 36.5206 55.8549C36.7742 55.0412 37.1523 54.2635 37.672 53.5575C38.4897 52.4458 39.8481 51.9217 41.1284 52.6509C41.8298 53.0503 42.5016 53.5089 43.1312 54.0162C43.414 53.8835 43.7345 53.7977 44.0963 53.7703L44.1875 53.7647L46.2706 53.659C47.1432 53.2722 48.0136 52.8664 48.8861 52.4712C49.4101 52.0379 49.9953 51.6765 50.6333 51.4081C51.3558 51.1059 52.0953 50.9347 52.8368 50.8776C53.4389 50.6811 54.0453 50.5078 54.6622 50.3725C56.1115 50.0555 57.6284 49.8779 59.1326 49.8927C59.1634 49.5032 59.1787 49.1091 59.1757 48.7103L59.1727 48.5105C59.1389 47.2318 60.1594 46.211 61.3612 46.0292ZM59.9015 148.333C59.6945 148.378 59.4853 148.413 59.2762 148.439C59.3396 148.595 59.4029 148.752 59.4642 148.908C59.6332 149.003 59.8043 149.094 59.9755 149.179C59.9248 148.891 59.8952 148.602 59.9015 148.333ZM49.0473 145.106L48.9069 145.365C48.8841 145.408 48.8617 145.449 48.8397 145.491C49.1376 145.467 49.4376 145.474 49.7333 145.507L49.7325 145.476C49.6945 145.463 49.6564 145.451 49.6201 145.433C49.416 145.335 49.2263 145.225 49.0473 145.106ZM54.9136 133.302C56.7827 133.411 58.3663 133.698 60.0662 134.516L60.2122 134.587C61.7142 135.333 64.1992 136.711 63.9892 138.687C63.9302 139.249 63.5232 139.841 62.8802 139.797C61.1202 139.676 60.115 137.901 58.9234 136.793C57.7213 135.677 56.2446 134.53 54.7889 133.763C54.5832 133.655 54.6642 133.313 54.8881 133.302H54.9136ZM46.4375 107.266C45.9896 107.281 46.1396 107.716 46.3699 107.352C46.3889 107.323 46.4121 107.293 46.4375 107.266ZM70.6142 78.2006C66.3722 78.3122 62.1032 80.8177 58.9256 83.3503C56.1612 85.5537 53.7741 88.1744 51.6603 90.9991C51.1165 92.4058 50.6496 93.842 50.2552 95.2887C49.9953 96.244 49.8327 97.2098 49.6151 98.1736L49.5475 98.4691C49.3765 98.7886 49.2496 99.1325 49.157 99.4878C49.5422 99.8741 50.0418 100.151 50.592 100.282C50.7692 100.324 50.9165 100.416 51.0329 100.537C51.4757 99.7978 51.8627 99.0175 52.0879 98.1903L52.0962 98.152C52.9474 96.7573 53.8719 95.406 54.8629 94.1009C57.5968 90.4974 60.6072 87.213 64.2262 84.4802C66.9702 82.409 70.0382 80.7858 73.3002 79.7312C72.5022 79.0868 71.5952 78.577 70.6142 78.2006Z" fill="#4A4A4A"/>
<path fill-rule="evenodd" clip-rule="evenodd" d="M103.687 156.732C102.267 156.153 100.999 155.186 100.073 153.951C99.7512 153.521 99.6672 153.068 99.7352 152.653C99.8112 152.187 100.087 151.764 100.463 151.481C100.84 151.197 101.312 151.056 101.768 151.128C102.164 151.19 102.559 151.407 102.871 151.857L102.936 151.947C103.487 152.693 104.205 153.304 105.023 153.699C105.811 154.079 106.692 154.256 107.605 154.153C109.342 153.957 110.54 153.017 111.813 151.74C111.97 151.579 112.128 151.413 112.287 151.244C112.387 151.091 112.526 150.992 112.68 150.941C112.852 150.883 113.046 150.887 113.223 150.949C113.395 151.008 113.548 151.122 113.65 151.273C113.748 151.416 113.803 151.593 113.785 151.797C113.669 153.119 112.977 154.3 111.995 155.227C110.905 156.257 109.459 156.969 108.098 157.219C106.598 157.494 105.07 157.297 103.687 156.732ZM108.805 136.324C110.401 137.294 112.831 139.556 111.115 141.961C109.095 144.082 106.186 141.651 104.753 140.551C103.424 139.699 101.931 141.891 103.164 142.886C113.521 150.557 117.724 136.578 109.612 135.184C108.719 135.03 108.387 136.024 108.805 136.324ZM90.2452 127.401C90.4212 125.212 93.7542 124.715 94.0852 126.881C94.3822 128.821 94.0322 130.603 93.1592 132.35C92.3242 134.019 90.2262 133.241 90.0672 131.721C89.8552 129.684 90.1352 128.762 90.2452 127.401ZM115.611 126.432C116.075 125.823 116.746 125.408 117.55 125.643C120.061 126.377 119.321 129.943 118.439 131.678C117.96 132.621 116.411 132.86 115.711 132.03C114.57 130.677 114.024 127.974 115.474 126.641C115.513 126.572 115.557 126.502 115.611 126.432ZM93.1242 117.824L93.5202 117.754C94.7472 117.542 96.2732 117.338 97.1412 118.325C97.6012 118.848 97.7602 119.821 97.1412 120.322C96.0522 121.203 94.8492 120.861 93.5452 120.936C92.4702 120.998 91.4372 121.176 90.4012 121.472C88.1302 122.121 86.2792 123.307 84.3392 124.609C84.0842 124.78 83.8242 124.454 83.9462 124.216C85.0662 122.021 87.2362 120.219 89.4102 119.12C90.5702 118.533 91.8402 118.047 93.1242 117.824ZM113.322 116.841L113.625 116.903C116.929 117.594 121.221 118.974 122.786 122.22C122.845 122.679 122.782 122.777 122.731 122.841L122.714 122.863C122.672 122.918 122.638 122.993 122.439 123.056C122.384 123.043 122.328 123.029 122.272 123.014C121.555 122.826 120.988 122.567 120.438 122.298L119.843 122.005C119.152 121.666 118.455 121.339 117.716 121.098C116.139 120.584 114.518 120.221 112.871 120.028C112.514 119.986 112.171 119.865 111.899 119.659C111.642 119.463 111.446 119.191 111.356 118.831C111.24 118.364 111.273 118.01 111.523 117.589C111.712 117.273 111.981 117.054 112.291 116.928C112.606 116.799 112.965 116.769 113.322 116.841Z" fill="#4A4A4A"/>
<path fill-rule="evenodd" clip-rule="evenodd" d="M89.9842 158.056C91.6942 154.048 95.4272 151.102 99.7262 150.024C102.882 149.235 106.195 149.261 109.412 149.574C111.098 149.737 112.906 149.87 114.495 150.496C115.851 151.031 116.957 152.043 117.788 153.23C118.778 154.637 119.451 156.247 119.923 157.897C119.991 158.132 120.054 158.368 120.113 158.606C119.907 159.851 119.471 160.911 118.318 161.693C117.193 162.458 115.851 162.771 114.513 162.882C114.381 162.819 114.254 162.754 114.138 162.687C112.053 161.493 110.585 158.671 107.954 159.053C105.605 159.394 104.059 162.351 102.662 164.084C98.1792 164.607 93.6982 163.259 90.0502 160.694C89.8652 159.817 89.8542 158.931 89.9842 158.056ZM123.16 155.015C122.801 154.009 122.349 153.033 121.814 152.115C120.044 149.077 117.326 146.656 114.1 145.272C106.469 142.004 96.5942 144.308 90.4322 149.669C88.3262 151.502 86.1982 154.195 85.5542 157.092C85.3622 157.13 85.1802 157.23 85.0312 157.371C80.5782 154.566 75.9932 151.868 72.4052 147.981C69.7992 145.156 67.9872 141.813 66.8772 138.14C66.7862 137.838 66.2992 137.882 66.3142 138.217C66.3182 138.295 66.3222 138.373 66.3262 138.451C66.2802 138.307 66.0602 138.381 66.0432 138.521C65.4462 142.983 64.6992 147.714 65.3872 152.199C65.7992 154.876 67.0142 156.835 68.6392 158.951C70.3792 161.219 72.3502 163.328 74.3652 165.351C75.6432 166.635 76.9792 168.116 78.5442 169.058C80.3652 170.152 82.4312 170.983 84.3742 171.827C86.3512 172.688 88.3572 173.484 90.4022 174.174C94.4892 175.557 98.7132 176.514 103.011 176.933C106.452 177.267 110.385 177.631 113.682 176.336C116.21 175.344 118.25 173.55 119.868 171.391C121.63 169.041 123.023 166.363 123.793 163.54C124.593 160.607 123.328 155.488 123.16 155.015Z" fill="#4A4A4A"/>
<path d="M165.605 114.23L165.403 114.387L161.51 117.393L161.968 117.987L158.075 120.993L157.617 120.4L154.932 122.473L154.933 120.994L154.183 120.993L154.184 117.987L154.934 117.987L154.936 114.981L154.936 114.23H154.186H152.083V114.98H149.981V114.23H147.879C146.598 114.23 145.399 113.91 144.363 113.352L144.007 114.012C142.805 113.364 141.799 112.422 141.096 111.29L141.733 110.894C141.107 109.887 140.75 108.716 140.75 107.464V103.675H140V99.8851H140.75V92.3061H140V88.5166H140.75V80.9376H140V77.1481H140.75V69.5692H140V65.7797H140.75V58.2007H140V54.4112H140.75V46.8322H140V43.0428H140.75V35.4638H140V31.6743H140.75V24.0953H140V20.3058H140.75V16.5163C140.75 15.2648 141.107 14.093 141.733 13.0862L141.096 12.6905C141.799 11.558 142.805 10.6168 144.007 9.96841L144.363 10.6285C145.399 10.0701 146.598 9.75 147.879 9.75H151.774V9H155.67V9.75H163.461V9H167.357V9.75H175.148V9H179.044V9.75H186.835V9H190.731V9.75H198.522V9H202.418V9.75H210.209V9H214.104V9.75H221.896V9H225.791V9.75H233.582V9H237.478V9.75H245.269V9H249.165V9.75H256.956V9H260.852V9.75H268.643V9H272.539V9.75H280.33V9H284.226V9.75H288.121C289.402 9.75 290.601 10.0701 291.637 10.6285L291.993 9.96841C293.195 10.6168 294.201 11.558 294.904 12.6905L294.267 13.0862C294.893 14.093 295.25 15.2648 295.25 16.5163V20.3058H296V24.0953H295.25V31.6743H296V35.4638H295.25V43.0428H296V46.8322H295.25V54.4112H296V58.2007H295.25V65.7797H296V69.5692H295.25V77.1481H296V80.9376H295.25V88.5166H296V92.3061H295.25V99.8851H296V103.675H295.25V107.464C295.25 108.716 294.893 109.887 294.267 110.894L294.904 111.29C294.201 112.422 293.195 113.364 291.993 114.012L291.637 113.352C290.601 113.91 289.402 114.23 288.121 114.23H284.046V114.98H279.971V114.23H271.82V114.98H267.745V114.23H259.594V114.98H255.519V114.23H247.368V114.98H243.293V114.23H235.142V114.98H231.067V114.23H222.916V114.98H218.841V114.23H210.69V114.98H206.615V114.23H198.464V114.98H194.389V114.23H186.238V114.98H182.163V114.23H174.012V114.98H169.937V114.23H165.861H165.605Z" stroke="#4A4A4A" stroke-width="1.5" stroke-dasharray="8 4"/>
<path d="M169.18 41.2656C169.906 41.2656 170.594 41.1484 171.195 40.9219L172.188 42.2734H173.766L172.336 40.2891C173.617 39.3672 174.336 37.6094 174.336 35.3672C174.336 31.7344 172.352 29.4609 169.18 29.4609C165.992 29.4609 164 31.7266 164 35.3672C164 39.0234 165.969 41.2656 169.18 41.2656ZM169.188 39.9688C166.875 39.9688 165.445 38.2109 165.445 35.3672C165.445 32.5312 166.883 30.7578 169.18 30.7578C171.461 30.7578 172.891 32.5391 172.891 35.3672C172.891 37.0859 172.398 38.4297 171.516 39.1328L170.492 37.7734H168.898L170.391 39.7969C170 39.9141 169.602 39.9688 169.188 39.9688ZM183.422 32.5781H182.078V37.5625C182.078 39.0391 181.266 39.9219 179.781 39.9219C178.438 39.9219 177.875 39.2188 177.875 37.7031V32.5781H176.531V38.0312C176.531 40.0234 177.516 41.1484 179.406 41.1484C180.695 41.1484 181.594 40.6172 182.016 39.6797H182.141V41H183.422V32.5781ZM189.312 33.6172C190.648 33.6172 191.539 34.6016 191.57 36.0938H186.93C187.031 34.6016 187.969 33.6172 189.312 33.6172ZM191.531 38.8203C191.18 39.5625 190.445 39.9609 189.359 39.9609C187.93 39.9609 187 38.9062 186.93 37.2422V37.1797H192.984V36.6641C192.984 34.0469 191.602 32.4297 189.328 32.4297C187.016 32.4297 185.531 34.1484 185.531 36.7969C185.531 39.4609 186.992 41.1484 189.328 41.1484C191.172 41.1484 192.469 40.2656 192.875 38.8203H191.531ZM195.094 41H196.438V35.7812C196.438 34.5938 197.367 33.7344 198.648 33.7344C198.914 33.7344 199.398 33.7812 199.508 33.8125V32.4688C199.336 32.4453 199.055 32.4297 198.836 32.4297C197.719 32.4297 196.75 33.0078 196.5 33.8281H196.375V32.5781H195.094V41ZM204.414 41.1484C206.812 41.1484 208.297 39.4922 208.297 36.7891C208.297 34.0781 206.812 32.4297 204.414 32.4297C202.016 32.4297 200.531 34.0781 200.531 36.7891C200.531 39.4922 202.016 41.1484 204.414 41.1484ZM204.414 39.9375C202.82 39.9375 201.922 38.7812 201.922 36.7891C201.922 34.7891 202.82 33.6406 204.414 33.6406C206.008 33.6406 206.906 34.7891 206.906 36.7891C206.906 38.7812 206.008 39.9375 204.414 39.9375ZM215.484 30.3984V32.5781H214.125V33.7031H215.484V38.8125C215.484 40.4219 216.18 41.0625 217.914 41.0625C218.18 41.0625 218.438 41.0312 218.703 40.9844V39.8516C218.453 39.875 218.32 39.8828 218.078 39.8828C217.203 39.8828 216.828 39.4609 216.828 38.4688V33.7031H218.703V32.5781H216.828V30.3984H215.484ZM220.734 41H222.078V35.7812C222.078 34.5938 223.008 33.7344 224.289 33.7344C224.555 33.7344 225.039 33.7812 225.148 33.8125V32.4688C224.977 32.4453 224.695 32.4297 224.477 32.4297C223.359 32.4297 222.391 33.0078 222.141 33.8281H222.016V32.5781H220.734V41ZM230.055 41.1484C232.453 41.1484 233.938 39.4922 233.938 36.7891C233.938 34.0781 232.453 32.4297 230.055 32.4297C227.656 32.4297 226.172 34.0781 226.172 36.7891C226.172 39.4922 227.656 41.1484 230.055 41.1484ZM230.055 39.9375C228.461 39.9375 227.562 38.7812 227.562 36.7891C227.562 34.7891 228.461 33.6406 230.055 33.6406C231.648 33.6406 232.547 34.7891 232.547 36.7891C232.547 38.7812 231.648 39.9375 230.055 39.9375ZM243.016 35.1562C242.781 33.6562 241.531 32.4297 239.484 32.4297C237.125 32.4297 235.625 34.1328 235.625 36.7578C235.625 39.4375 237.133 41.1484 239.492 41.1484C241.516 41.1484 242.773 40.0078 243.016 38.4609H241.656C241.406 39.4141 240.617 39.9375 239.484 39.9375C237.984 39.9375 237.016 38.7031 237.016 36.7578C237.016 34.8516 237.969 33.6406 239.484 33.6406C240.695 33.6406 241.438 34.3203 241.656 35.1562H243.016ZM247.594 39.9688C246.617 39.9688 245.891 39.4688 245.891 38.6094C245.891 37.7656 246.453 37.3203 247.734 37.2344L250 37.0859V37.8594C250 39.0625 248.977 39.9688 247.594 39.9688ZM247.344 41.1484C248.469 41.1484 249.391 40.6562 249.938 39.7578H250.062V41H251.344V35.2344C251.344 33.4844 250.195 32.4297 248.141 32.4297C246.344 32.4297 245.016 33.3203 244.836 34.6719H246.195C246.383 34.0078 247.086 33.625 248.094 33.625C249.352 33.625 250 34.1953 250 35.2344V36L247.57 36.1484C245.609 36.2656 244.5 37.1328 244.5 38.6406C244.5 40.1797 245.711 41.1484 247.344 41.1484ZM253.828 41H255.172V35.7812C255.172 34.5938 256.102 33.7344 257.383 33.7344C257.648 33.7344 258.133 33.7812 258.242 33.8125V32.4688C258.07 32.4453 257.789 32.4297 257.57 32.4297C256.453 32.4297 255.484 33.0078 255.234 33.8281H255.109V32.5781H253.828V41ZM164.266 67H165.609V61.7812C165.609 60.5938 166.461 59.6406 167.562 59.6406C168.625 59.6406 169.32 60.2812 169.32 61.2812V67H170.664V61.5859C170.664 60.5156 171.445 59.6406 172.617 59.6406C173.805 59.6406 174.391 60.25 174.391 61.4922V67H175.734V61.1797C175.734 59.4141 174.773 58.4297 173.055 58.4297C171.891 58.4297 170.93 59.0156 170.477 59.9062H170.352C169.961 59.0312 169.164 58.4297 168.023 58.4297C166.898 58.4297 166.055 58.9688 165.672 59.9062H165.547V58.5781H164.266V67ZM181.547 59.6172C182.883 59.6172 183.773 60.6016 183.805 62.0938H179.164C179.266 60.6016 180.203 59.6172 181.547 59.6172ZM183.766 64.8203C183.414 65.5625 182.68 65.9609 181.594 65.9609C180.164 65.9609 179.234 64.9062 179.164 63.2422V63.1797H185.219V62.6641C185.219 60.0469 183.836 58.4297 181.562 58.4297C179.25 58.4297 177.766 60.1484 177.766 62.7969C177.766 65.4609 179.227 67.1484 181.562 67.1484C183.406 67.1484 184.703 66.2656 185.109 64.8203H183.766ZM194.141 58.5781H192.797V63.5625C192.797 65.0391 191.984 65.9219 190.5 65.9219C189.156 65.9219 188.594 65.2188 188.594 63.7031V58.5781H187.25V64.0312C187.25 66.0234 188.234 67.1484 190.125 67.1484C191.414 67.1484 192.312 66.6172 192.734 65.6797H192.859V67H194.141V58.5781ZM196.477 60.8828C196.477 62.1016 197.195 62.7812 198.773 63.1641L200.219 63.5156C201.117 63.7344 201.555 64.125 201.555 64.7031C201.555 65.4766 200.742 66.0156 199.609 66.0156C198.531 66.0156 197.859 65.5625 197.633 64.8516H196.25C196.398 66.25 197.688 67.1484 199.562 67.1484C201.477 67.1484 202.938 66.1094 202.938 64.6016C202.938 63.3906 202.172 62.7031 200.586 62.3203L199.289 62.0078C198.297 61.7656 197.828 61.4062 197.828 60.8281C197.828 60.0781 198.609 59.5703 199.609 59.5703C200.625 59.5703 201.281 60.0156 201.461 60.6875H202.789C202.609 59.3047 201.383 58.4297 199.617 58.4297C197.828 58.4297 196.477 59.4844 196.477 60.8828ZM213.664 58.4297C212.516 58.4297 211.508 59.0156 210.969 59.9844H210.844V58.5781H209.562V69.8125H210.906V65.7344H211.031C211.492 66.625 212.461 67.1484 213.664 67.1484C215.805 67.1484 217.203 65.4219 217.203 62.7891C217.203 60.1406 215.812 58.4297 213.664 58.4297ZM213.344 65.9375C211.828 65.9375 210.867 64.7188 210.867 62.7891C210.867 60.8516 211.828 59.6406 213.352 59.6406C214.891 59.6406 215.812 60.8203 215.812 62.7891C215.812 64.7578 214.891 65.9375 213.344 65.9375ZM222.773 67.1484C225.172 67.1484 226.656 65.4922 226.656 62.7891C226.656 60.0781 225.172 58.4297 222.773 58.4297C220.375 58.4297 218.891 60.0781 218.891 62.7891C218.891 65.4922 220.375 67.1484 222.773 67.1484ZM222.773 65.9375C221.18 65.9375 220.281 64.7812 220.281 62.7891C220.281 60.7891 221.18 59.6406 222.773 59.6406C224.367 59.6406 225.266 60.7891 225.266 62.7891C225.266 64.7812 224.367 65.9375 222.773 65.9375ZM228.766 67H230.109V62.0156C230.109 60.5391 230.977 59.6406 232.32 59.6406C233.664 59.6406 234.305 60.3594 234.305 61.875V67H235.648V61.5469C235.648 59.5469 234.594 58.4297 232.703 58.4297C231.414 58.4297 230.594 58.9766 230.172 59.9062H230.047V58.5781H228.766V67ZM238.672 56.3984V58.5781H237.312V59.7031H238.672V64.8125C238.672 66.4219 239.367 67.0625 241.102 67.0625C241.367 67.0625 241.625 67.0312 241.891 66.9844V65.8516C241.641 65.875 241.508 65.8828 241.266 65.8828C240.391 65.8828 240.016 65.4609 240.016 64.4688V59.7031H241.891V58.5781H240.016V56.3984H238.672ZM247.258 67.1484C249.656 67.1484 251.141 65.4922 251.141 62.7891C251.141 60.0781 249.656 58.4297 247.258 58.4297C244.859 58.4297 243.375 60.0781 243.375 62.7891C243.375 65.4922 244.859 67.1484 247.258 67.1484ZM247.258 65.9375C245.664 65.9375 244.766 64.7812 244.766 62.7891C244.766 60.7891 245.664 59.6406 247.258 59.6406C248.852 59.6406 249.75 60.7891 249.75 62.7891C249.75 64.7812 248.852 65.9375 247.258 65.9375ZM253.055 60.8828C253.055 62.1016 253.773 62.7812 255.352 63.1641L256.797 63.5156C257.695 63.7344 258.133 64.125 258.133 64.7031C258.133 65.4766 257.32 66.0156 256.188 66.0156C255.109 66.0156 254.438 65.5625 254.211 64.8516H252.828C252.977 66.25 254.266 67.1484 256.141 67.1484C258.055 67.1484 259.516 66.1094 259.516 64.6016C259.516 63.3906 258.75 62.7031 257.164 62.3203L255.867 62.0078C254.875 61.7656 254.406 61.4062 254.406 60.8281C254.406 60.0781 255.188 59.5703 256.188 59.5703C257.203 59.5703 257.859 60.0156 258.039 60.6875H259.367C259.188 59.3047 257.961 58.4297 256.195 58.4297C254.406 58.4297 253.055 59.4844 253.055 60.8828ZM168.367 84.4297C167.219 84.4297 166.211 85.0156 165.672 85.9844H165.547V84.5781H164.266V95.8125H165.609V91.7344H165.734C166.195 92.625 167.164 93.1484 168.367 93.1484C170.508 93.1484 171.906 91.4219 171.906 88.7891C171.906 86.1406 170.516 84.4297 168.367 84.4297ZM168.047 91.9375C166.531 91.9375 165.57 90.7188 165.57 88.7891C165.57 86.8516 166.531 85.6406 168.055 85.6406C169.594 85.6406 170.516 86.8203 170.516 88.7891C170.516 90.7578 169.594 91.9375 168.047 91.9375ZM177.477 93.1484C179.875 93.1484 181.359 91.4922 181.359 88.7891C181.359 86.0781 179.875 84.4297 177.477 84.4297C175.078 84.4297 173.594 86.0781 173.594 88.7891C173.594 91.4922 175.078 93.1484 177.477 93.1484ZM177.477 91.9375C175.883 91.9375 174.984 90.7812 174.984 88.7891C174.984 86.7891 175.883 85.6406 177.477 85.6406C179.07 85.6406 179.969 86.7891 179.969 88.7891C179.969 90.7812 179.07 91.9375 177.477 91.9375ZM183.469 93H184.812V87.7812C184.812 86.5938 185.742 85.7344 187.023 85.7344C187.289 85.7344 187.773 85.7812 187.883 85.8125V84.4688C187.711 84.4453 187.43 84.4297 187.211 84.4297C186.094 84.4297 185.125 85.0078 184.875 85.8281H184.75V84.5781H183.469V93ZM198.266 93.1484C200.398 93.1484 201.797 91.4219 201.797 88.7891C201.797 86.1406 200.406 84.4297 198.266 84.4297C197.109 84.4297 196.086 85 195.625 85.9062H195.5V81.2344H194.156V93H195.438V91.6562H195.562C196.094 92.5938 197.094 93.1484 198.266 93.1484ZM197.953 85.6406C199.492 85.6406 200.406 86.8203 200.406 88.7891C200.406 90.7578 199.492 91.9375 197.953 91.9375C196.422 91.9375 195.469 90.7344 195.469 88.7891C195.469 86.8438 196.422 85.6406 197.953 85.6406ZM207.266 85.6172C208.602 85.6172 209.492 86.6016 209.523 88.0938H204.883C204.984 86.6016 205.922 85.6172 207.266 85.6172ZM209.484 90.8203C209.133 91.5625 208.398 91.9609 207.312 91.9609C205.883 91.9609 204.953 90.9062 204.883 89.2422V89.1797H210.938V88.6641C210.938 86.0469 209.555 84.4297 207.281 84.4297C204.969 84.4297 203.484 86.1484 203.484 88.7969C203.484 91.4609 204.945 93.1484 207.281 93.1484C209.125 93.1484 210.422 92.2656 210.828 90.8203H209.484ZM213.047 93H214.391V88.0156C214.391 86.5391 215.258 85.6406 216.602 85.6406C217.945 85.6406 218.586 86.3594 218.586 87.875V93H219.93V87.5469C219.93 85.5469 218.875 84.4297 216.984 84.4297C215.695 84.4297 214.875 84.9766 214.453 85.9062H214.328V84.5781H213.047V93ZM225.75 85.6172C227.086 85.6172 227.977 86.6016 228.008 88.0938H223.367C223.469 86.6016 224.406 85.6172 225.75 85.6172ZM227.969 90.8203C227.617 91.5625 226.883 91.9609 225.797 91.9609C224.367 91.9609 223.438 90.9062 223.367 89.2422V89.1797H229.422V88.6641C229.422 86.0469 228.039 84.4297 225.766 84.4297C223.453 84.4297 221.969 86.1484 221.969 88.7969C221.969 91.4609 223.43 93.1484 225.766 93.1484C227.609 93.1484 228.906 92.2656 229.312 90.8203H227.969ZM232.094 93H233.438V85.7031H235.367V84.5781H233.438V83.6797C233.438 82.7578 233.844 82.2891 234.812 82.2891C235.055 82.2891 235.281 82.2969 235.445 82.3281V81.2344C235.164 81.1797 234.867 81.1562 234.539 81.1562C232.938 81.1562 232.094 81.9609 232.094 83.6406V84.5781H230.695V85.7031H232.094V93ZM237.359 93H238.703V84.5781H237.359V93ZM238.656 83.1328L240.828 80.4922H239.109L237.141 83.1328H238.656ZM248.234 87.1562C248 85.6562 246.75 84.4297 244.703 84.4297C242.344 84.4297 240.844 86.1328 240.844 88.7578C240.844 91.4375 242.352 93.1484 244.711 93.1484C246.734 93.1484 247.992 92.0078 248.234 90.4609H246.875C246.625 91.4141 245.836 91.9375 244.703 91.9375C243.203 91.9375 242.234 90.7031 242.234 88.7578C242.234 86.8516 243.188 85.6406 244.703 85.6406C245.914 85.6406 246.656 86.3203 246.875 87.1562H248.234ZM250.25 93H251.594V84.5781H250.25V93ZM250.922 82.8672C251.438 82.8672 251.859 82.4453 251.859 81.9297C251.859 81.4141 251.438 80.9922 250.922 80.9922C250.406 80.9922 249.984 81.4141 249.984 81.9297C249.984 82.4453 250.406 82.8672 250.922 82.8672ZM257.617 93.1484C260.016 93.1484 261.5 91.4922 261.5 88.7891C261.5 86.0781 260.016 84.4297 257.617 84.4297C255.219 84.4297 253.734 86.0781 253.734 88.7891C253.734 91.4922 255.219 93.1484 257.617 93.1484ZM257.617 91.9375C256.023 91.9375 255.125 90.7812 255.125 88.7891C255.125 86.7891 256.023 85.6406 257.617 85.6406C259.211 85.6406 260.109 86.7891 260.109 88.7891C260.109 90.7812 259.211 91.9375 257.617 91.9375ZM263.414 86.8828C263.414 88.1016 264.133 88.7812 265.711 89.1641L267.156 89.5156C268.055 89.7344 268.492 90.125 268.492 90.7031C268.492 91.4766 267.68 92.0156 266.547 92.0156C265.469 92.0156 264.797 91.5625 264.57 90.8516H263.188C263.336 92.25 264.625 93.1484 266.5 93.1484C268.414 93.1484 269.875 92.1094 269.875 90.6016C269.875 89.3906 269.109 88.7031 267.523 88.3203L266.227 88.0078C265.234 87.7656 264.766 87.4062 264.766 86.8281C264.766 86.0781 265.547 85.5703 266.547 85.5703C267.562 85.5703 268.219 86.0156 268.398 86.6875H269.727C269.547 85.3047 268.32 84.4297 266.555 84.4297C264.766 84.4297 263.414 85.4844 263.414 86.8828ZM273.094 93.0781C273.656 93.0781 274.109 92.6172 274.109 92.0625C274.109 91.5 273.656 91.0469 273.094 91.0469C272.539 91.0469 272.078 91.5 272.078 92.0625C272.078 92.6172 272.539 93.0781 273.094 93.0781Z" fill="#4A4A4A"/>
<g clip-path="url(#clip0)">
<path d="M409.529 146.348L409.732 146.505L412.702 148.806L412.242 149.399L415.212 151.699L415.671 151.106L417.431 152.47L417.431 151.7L418.181 151.699L418.18 149.399L417.43 149.399L417.429 147.098L417.428 146.348H418.179H419.783V147.098H421.386V146.348H422.99C423.938 146.348 424.824 146.11 425.589 145.696L425.947 146.355C426.864 145.858 427.631 145.138 428.166 144.271L427.528 143.876C427.988 143.133 428.25 142.269 428.25 141.346V137.48H429V133.614H428.25V125.881H429V122.015H428.25V114.282H429V110.415H428.25V102.683H429V98.8163H428.25V91.0835H429V87.2171H428.25V79.4844H429V75.618H428.25V71.7516C428.25 70.8288 427.988 69.9649 427.528 69.2218L428.166 68.8275C427.631 67.9604 426.864 67.2397 425.947 66.7429L425.589 67.4024C424.824 66.9879 423.938 66.75 422.99 66.75H419.028V66H415.065V66.75H407.141V66H403.179V66.75H395.254V66H391.292V66.75H383.368V66H379.406V66.75H371.481V66H367.519V66.75H359.594V66H355.632V66.75H347.708V66H343.746V66.75H335.821V66H331.859V66.75H323.935V66H319.972V66.75H316.01C315.062 66.75 314.176 66.9879 313.411 67.4024L313.053 66.7429C312.136 67.2397 311.369 67.9604 310.834 68.8275L311.472 69.2218C311.012 69.9649 310.75 70.8288 310.75 71.7516V75.618H310V79.4844H310.75V87.2171H310V91.0835H310.75V98.8163H310V102.683H310.75V110.415H310V114.282H310.75V122.015H310V125.881H310.75V133.614H310V137.48H310.75V141.346C310.75 142.269 311.012 143.133 311.472 143.876L310.834 144.271C311.369 145.138 312.136 145.858 313.053 146.355L313.411 145.696C314.176 146.11 315.062 146.348 316.01 146.348H319.896V147.098H323.782V146.348H331.554V147.098H335.44V146.348H343.212V147.098H347.098V146.348H354.869V147.098H358.755V146.348H366.527V147.098H370.413V146.348H378.185V147.098H382.071V146.348H389.843V147.098H393.729V146.348H401.501V147.098H405.387V146.348H409.272H409.529Z" stroke="#4A4A4A" stroke-width="1.5" stroke-dasharray="8 4"/>
<path d="M330.898 110.055C331.047 112 332.695 113.266 335.086 113.266C337.664 113.266 339.297 111.945 339.297 109.875C339.297 108.219 338.359 107.312 336.023 106.727L334.844 106.414C333.289 106.016 332.672 105.508 332.672 104.625C332.672 103.484 333.664 102.734 335.164 102.734C336.57 102.734 337.523 103.422 337.719 104.578H339.133C339.016 102.758 337.391 101.461 335.211 101.461C332.828 101.461 331.227 102.758 331.227 104.672C331.227 106.273 332.109 107.195 334.148 107.711L335.594 108.086C337.148 108.477 337.852 109.086 337.852 110.047C337.852 111.164 336.734 111.984 335.219 111.984C333.617 111.984 332.492 111.234 332.32 110.055H330.898ZM341.5 113H342.844V104.578H341.5V113ZM342.172 102.867C342.688 102.867 343.109 102.445 343.109 101.93C343.109 101.414 342.688 100.992 342.172 100.992C341.656 100.992 341.234 101.414 341.234 101.93C341.234 102.445 341.656 102.867 342.172 102.867ZM345.406 113H346.75V107.781C346.75 106.594 347.602 105.641 348.703 105.641C349.766 105.641 350.461 106.281 350.461 107.281V113H351.805V107.586C351.805 106.516 352.586 105.641 353.758 105.641C354.945 105.641 355.531 106.25 355.531 107.492V113H356.875V107.18C356.875 105.414 355.914 104.43 354.195 104.43C353.031 104.43 352.07 105.016 351.617 105.906H351.492C351.102 105.031 350.305 104.43 349.164 104.43C348.039 104.43 347.195 104.969 346.812 105.906H346.688V104.578H345.406V113ZM360.18 115.867L361.406 111.422H359.914L359.172 115.867H360.18ZM375.562 107.156C375.328 105.656 374.078 104.43 372.031 104.43C369.672 104.43 368.172 106.133 368.172 108.758C368.172 111.438 369.68 113.148 372.039 113.148C374.062 113.148 375.32 112.008 375.562 110.461H374.203C373.953 111.414 373.164 111.938 372.031 111.938C370.531 111.938 369.562 110.703 369.562 108.758C369.562 106.852 370.516 105.641 372.031 105.641C373.242 105.641 373.984 106.32 374.203 107.156H375.562ZM377.625 113H378.969V101.234H377.625V113ZM384.172 111.969C383.195 111.969 382.469 111.469 382.469 110.609C382.469 109.766 383.031 109.32 384.312 109.234L386.578 109.086V109.859C386.578 111.062 385.555 111.969 384.172 111.969ZM383.922 113.148C385.047 113.148 385.969 112.656 386.516 111.758H386.641V113H387.922V107.234C387.922 105.484 386.773 104.43 384.719 104.43C382.922 104.43 381.594 105.32 381.414 106.672H382.773C382.961 106.008 383.664 105.625 384.672 105.625C385.93 105.625 386.578 106.195 386.578 107.234V108L384.148 108.148C382.188 108.266 381.078 109.133 381.078 110.641C381.078 112.18 382.289 113.148 383.922 113.148ZM390.406 113H391.75V107.781C391.75 106.594 392.68 105.734 393.961 105.734C394.227 105.734 394.711 105.781 394.82 105.812V104.469C394.648 104.445 394.367 104.43 394.148 104.43C393.031 104.43 392.062 105.008 391.812 105.828H391.688V104.578H390.406V113ZM399.727 113.148C402.125 113.148 403.609 111.492 403.609 108.789C403.609 106.078 402.125 104.43 399.727 104.43C397.328 104.43 395.844 106.078 395.844 108.789C395.844 111.492 397.328 113.148 399.727 113.148ZM399.727 111.938C398.133 111.938 397.234 110.781 397.234 108.789C397.234 106.789 398.133 105.641 399.727 105.641C401.32 105.641 402.219 106.789 402.219 108.789C402.219 110.781 401.32 111.938 399.727 111.938ZM406.156 101.719L406.289 109.25H407.586L407.719 101.719H406.156ZM406.945 113.141C407.578 113.141 408.023 112.688 408.023 112.055C408.023 111.414 407.578 110.961 406.945 110.961C406.312 110.961 405.859 111.414 405.859 112.055C405.859 112.688 406.312 113.141 406.945 113.141Z" fill="#4A4A4A"/>
</g>
<defs>
<clipPath id="clip0">
<rect width="126" height="102" fill="white" transform="translate(310 57)"/>
</clipPath>
</defs>
</svg>
