<svg width="48" height="48" viewBox="0 0 48 48" fill="none" xmlns="http://www.w3.org/2000/svg">
<path d="M25.8723 2C27.7229 3.11892 29.4873 4.1948 30.5632 6.30353C31.9834 9.14386 30.9936 11.726 30.2189 14.3511C30.0037 15.0827 29.6595 15.8143 29.2721 16.5029C27.938 18.6547 27.938 18.6547 30.4771 19.3863C32.801 20.0748 35.211 20.6343 37.3628 21.7102C39.3854 22.743 39.4715 23.4316 37.9653 25.0239C35.5983 27.563 34.1782 30.5324 33.1453 33.8031C32.8441 34.7929 32.8441 35.8258 31.8112 36.6004C31.0796 37.1599 31.3378 38.3648 31.596 39.2255C31.8543 40.1723 32.801 39.6989 33.4466 39.828C34.3073 40.0002 35.5553 39.3546 35.9426 40.4305C36.416 41.6786 36.3299 43.1418 35.9426 44.4328C35.7705 45.0784 34.9958 44.9923 34.4364 44.9923C27.5507 44.9923 20.6651 44.9492 13.7794 45.0353C11.6277 45.0784 12.058 43.6151 12.015 42.4102C12.015 41.1621 11.6277 39.6989 13.7794 39.785C14.6832 39.828 16.0173 40.3875 16.4906 39.3116C17.0071 38.1497 16.7919 36.9447 15.673 35.8688C14.9414 35.1372 14.8983 33.7601 14.468 32.6842C13.3921 29.8869 12.058 27.1757 9.99232 24.8948C8.52912 23.3025 8.65822 22.4418 10.5518 21.452C12.9187 20.2039 15.5439 19.6445 18.169 19.2572C20.1917 18.9559 20.0626 18.0952 19.4171 16.7611C18.8146 15.47 17.9108 14.3942 17.5235 12.974C16.1464 7.98191 17.1362 5.27068 21.4827 2.55945C21.784 2.38731 22.0422 2.17214 22.3435 2C23.5915 2 24.7104 2 25.8723 2ZM23.9358 34.6208C25.9584 34.6638 27.938 34.6208 29.9607 34.6638C30.9075 34.6638 31.3378 34.4056 31.553 33.4158C32.4137 30.1021 33.92 27.1326 36.2439 24.5935C37.2337 23.5177 36.7172 23.1734 35.7274 22.8721C33.5326 22.1836 31.3809 21.495 29.1861 20.8495C26.0445 19.9027 25.5711 18.3965 27.5938 15.7283C28.9709 13.8777 28.7987 11.5108 27.1204 9.87546C25.9584 8.75654 23.032 8.75654 21.6119 9.87546C19.8474 11.2956 19.5031 13.3613 20.6651 15.384C22.7738 19.085 22.3435 20.0318 18.169 20.9786C16.2324 21.4089 14.2958 22.0114 12.4023 22.5709C11.1973 22.9152 10.8961 23.3886 11.8859 24.4214C13.1769 25.7555 14.0376 27.4339 14.9844 29.0262C16.0173 30.7906 15.759 33.5879 17.5665 34.3626C19.374 35.2233 21.784 34.6208 23.9358 34.6208ZM24.194 39.828C25.5711 39.828 26.9052 39.742 28.2823 39.8711C29.6595 40.0002 29.7455 39.2686 29.7455 38.1927C29.7455 37.1599 29.7455 36.4283 28.3684 36.4713C25.7863 36.5574 23.2472 36.5574 20.6651 36.4713C19.331 36.4283 18.6424 36.5574 18.6424 38.2357C18.5994 40.0002 19.5031 39.828 20.622 39.828C21.741 39.785 22.989 39.828 24.194 39.828ZM24.0649 43.3139C26.9913 43.3139 29.9607 43.3569 32.8871 43.3139C33.4896 43.3139 34.4364 43.7443 34.4794 42.5393C34.5224 41.2912 33.6187 41.6355 32.9732 41.6355C27.0773 41.5925 21.2245 41.5925 15.3287 41.6355C14.6832 41.6355 13.7794 41.2912 13.8225 42.5393C13.9085 43.7443 14.8553 43.3139 15.4148 43.3139C18.2981 43.3569 21.1815 43.3139 24.0649 43.3139ZM18.8146 9.9185C20.4929 9.1869 21.4827 7.59459 23.9358 7.20728C26.6039 6.81996 27.7659 8.54137 29.7886 9.48814C28.2393 4.49605 25.9584 3.59231 23.2472 3.93659C20.7942 4.23784 19.1158 6.56174 18.8146 9.9185Z" fill="#2E2E2E"/>
</svg>
