<svg width="48" height="48" viewBox="0 0 48 48" fill="none" xmlns="http://www.w3.org/2000/svg">
<path d="M22.8138 4C26.6566 4.6805 27.4172 7.72272 27.9776 10.845C28.2978 12.7264 28.0577 15.0081 29.0184 16.4892C29.9791 17.9703 32.4609 17.7701 34.1822 18.6507C37.3445 20.2919 40.3867 22.0532 42.5083 25.0554C44.4697 27.8175 44.4697 28.9383 42.6684 31.7003C39.8663 36.0235 36.5839 39.7863 31.9405 42.2281C30.7396 42.8285 29.5387 43.3889 28.2178 43.6291C22.4135 44.7499 21.1726 44.1895 19.0911 38.2651C18.4506 36.4638 18.3705 34.6225 18.4506 32.7411C18.4906 31.9805 18.4906 31.3801 17.57 31.0198C12.126 28.8182 8.88358 24.455 6.40176 19.4513C5.52112 17.69 4.80059 15.8087 4 14.0073C4 13.6071 4 13.2068 4 12.8065C5.60118 9.52406 8.3632 7.48255 11.6456 6.12155C13.7271 5.28094 15.8887 4.6805 18.0103 4C19.6115 4 21.2126 4 22.8138 4ZM24.7352 42.4682C27.6173 42.3882 29.939 41.5876 32.0606 40.3067C36.4238 37.7047 39.426 33.8219 42.0279 29.5788C42.5483 28.7382 42.2281 28.0577 41.9078 27.3371C39.9064 22.8138 31.22 17.9302 26.2563 18.4906C25.1355 18.6107 24.3349 19.0511 23.7745 20.1719C22.4535 22.8939 21.2527 25.6159 20.5722 28.538C19.6515 32.581 19.6115 36.5839 21.6129 40.4267C22.3335 41.8278 23.3342 42.7885 24.7352 42.4682ZM20.5321 22.8538C18.6508 23.2541 17.4098 24.0547 16.5292 25.4157C16.1689 25.9361 15.8087 26.5365 15.1282 26.0162C14.4076 25.4958 14.928 24.9354 15.2483 24.455C16.4491 22.7337 18.0903 21.5729 20.1318 21.2927C21.2527 21.1326 21.733 20.6522 22.1733 19.7315C22.6537 18.7308 23.014 17.69 24.2949 17.2097C25.2156 16.8494 26.6967 17.4098 27.0169 16.209C27.2571 15.2483 26.8568 14.1274 26.6967 13.0466C26.5766 12.246 26.3764 11.4855 26.2163 10.6849C25.0955 6.00147 23.6144 5.00074 18.7708 5.68124C18.1304 5.7613 17.4499 5.88137 16.8094 6.04149C13.0466 7.00219 9.40397 8.32317 6.76203 11.4054C5.96144 12.3261 5.44106 13.2868 6.00147 14.6478C7.28241 17.8101 8.68344 20.8924 10.7249 23.6144C12.5263 25.9761 14.6478 27.9776 17.3698 29.2185C17.8101 29.4187 18.4506 30.0591 18.7308 28.9783C19.3313 27.0169 19.9317 25.0554 20.5321 22.8538Z" fill="#2E2E2E"/>
<path d="M22.4131 32.5009C22.5732 31.3 22.1729 29.6188 23.2937 29.0183C24.5747 28.3378 25.2151 30.0591 26.0157 30.8196C27.9772 32.701 30.3389 33.5417 32.9008 34.1821C33.5012 34.3422 34.3418 34.2622 34.4619 35.1829C34.542 35.9034 33.9415 36.2236 33.4612 36.5839C32.9008 37.0242 32.3003 37.4645 31.6599 37.8648C29.5783 39.0657 27.4568 39.9864 25.0951 38.6254C22.8134 37.2243 22.5332 34.9026 22.4131 32.5009ZM24.3745 31.4201C23.7741 34.4223 24.4946 36.5038 26.1358 37.3044C27.737 38.065 29.9786 37.3444 31.5798 35.463C28.8178 34.9026 26.4961 33.6217 24.3745 31.4201Z" fill="#2E2E2E"/>
<path d="M24.3752 25.2556C27.6576 23.9347 29.0186 24.5351 29.659 27.6174C27.8177 27.0169 26.1365 26.2964 24.3752 25.2556Z" fill="#2E2E2E"/>
<path d="M32.3008 28.9783C35.1829 27.9776 36.3438 28.7781 37.1443 32.4208C35.1829 31.5802 33.7018 30.3793 32.3008 28.9783Z" fill="#2E2E2E"/>
<path d="M20.6928 13.8872C21.0931 13.9272 21.4133 13.9273 21.7336 13.9673C22.5342 14.0874 23.5749 13.9673 23.9352 14.8479C24.1754 15.4083 21.9738 16.6092 21.0131 16.4091C20.6928 16.329 20.3726 16.2089 20.1324 16.0088C19.532 15.5284 18.6513 15.008 18.9315 14.1674C19.1717 13.567 20.1324 13.9673 20.6928 13.8872Z" fill="#2E2E2E"/>
<path d="M11.1248 19.011C12.1656 17.2898 13.4465 16.1289 14.9677 15.1682C15.7682 18.5307 14.6474 19.6515 11.1248 19.011Z" fill="#2E2E2E"/>
</svg>
