<svg width="48" height="48" viewBox="0 0 48 48" fill="none" xmlns="http://www.w3.org/2000/svg">
<path d="M43.9599 21.121C42.0745 23.0064 40.1489 24.8918 38.2635 26.7371C37.381 27.5795 36.5787 28.9033 35.1345 26.336C35.1345 30.5079 35.0543 33.7974 35.1746 37.127C35.2148 38.6914 34.7735 39.2531 33.1288 39.2129C26.9109 39.1327 20.693 39.1327 14.5153 39.2129C13.1113 39.2129 12.6299 38.7717 12.67 37.3676C12.7502 33.998 12.7101 30.5882 12.7101 27.2185C12.4293 27.2586 12.2688 27.2185 12.1886 27.2987C10.223 29.0638 10.223 29.0638 8.4178 27.0179C7.13411 25.5738 5.89052 24.0895 4.56672 22.6453C3.80453 21.843 3.80454 21.2413 4.60685 20.439C8.33757 16.5077 12.0281 12.5764 15.7188 8.60501C16.2804 8.00328 16.8019 7.84283 17.6443 8.16375C21.8564 9.88871 26.1086 9.92882 30.2806 8.16375C31.3637 7.72249 31.8852 8.24398 32.4869 8.88582C36.2979 12.6968 40.1489 16.5077 44 20.3187C43.9599 20.5995 43.9599 20.8402 43.9599 21.121ZM23.9424 37.5682C26.4295 37.5682 28.8766 37.488 31.3637 37.6083C33.0084 37.6886 33.7305 37.3676 33.6102 35.4822C33.4096 32.273 33.5299 29.0638 33.57 25.8546C33.57 25.2127 33.3293 24.4104 34.0514 24.0494C34.8537 23.6883 35.295 24.4505 35.656 24.9319C36.4583 25.9348 37.0601 25.8145 37.8624 24.8918C38.8251 23.7686 39.8681 22.7657 40.9914 21.7628C41.7535 21.0407 41.9943 20.5594 41.1117 19.7169C37.9827 16.7083 34.934 13.6194 31.8852 10.5306C31.1631 9.76836 30.4812 9.76836 29.5585 10.0893C25.8278 11.4131 22.0971 11.4532 18.3664 10.1294C17.2431 9.72825 16.5612 9.84859 15.7589 10.7712C13.4322 13.3787 11.0253 15.8659 8.65848 18.3931C5.68995 21.5622 5.68995 21.5622 8.53814 24.7715C10.2631 26.697 10.2631 26.697 12.1485 24.8918C12.5898 24.4505 12.9508 23.6883 13.7932 24.0895C14.4752 24.4104 14.2345 25.1325 14.2345 25.7342C14.2345 29.2243 14.2746 32.6742 14.2345 36.1642C14.1944 37.3275 14.5554 37.6485 15.7188 37.6083C18.4466 37.5281 21.1744 37.5682 23.9424 37.5682Z" fill="#2E2E2E"/>
</svg>
