<svg width="48" height="48" viewBox="0 0 48 48" fill="none" xmlns="http://www.w3.org/2000/svg">
<path d="M44 19.4613C44 23.8478 44 28.2343 44 32.6208C44 35.3014 43.5126 37.9821 40.7345 39.1518C37.5177 40.5165 34.1548 40.3215 31.1817 38.372C29.3296 37.2022 29.1834 35.1065 29.4758 33.1082C29.7195 31.2073 31.0355 30.1838 32.8388 29.6964C34.3984 29.2578 36.0556 29.2578 37.6639 29.1603C40.8807 29.0141 42.0504 27.7956 42.0504 24.6276C42.0992 21.557 42.0017 18.4378 42.0992 15.3672C42.1479 13.5639 41.7093 12.8815 39.711 13.3689C33.4237 14.8311 27.0389 16.1958 20.7028 17.5117C19.0944 17.8529 18.6558 18.584 18.6558 20.1924C18.7533 25.8948 18.7045 31.5485 18.6558 37.251C18.6558 40.0291 18.2659 42.7585 15.3903 44.0744C12.271 45.4391 9.00548 45.2441 6.03241 43.4895C4.03412 42.3198 3.83916 40.1753 4.08286 38.0795C4.32655 36.1787 5.64252 35.1064 7.39712 34.6191C8.81055 34.2291 10.2727 34.1317 11.7349 34.0829C15.5365 33.9855 16.6575 32.8645 16.6575 29.0628C16.6575 22.9705 16.7062 16.8781 16.6088 10.7858C16.6088 8.93369 17.1936 8.05638 19.0945 7.66647C26.4053 6.25304 33.7161 4.69339 41.0269 3.18249C43.4151 2.6951 43.9025 3.08502 43.9513 5.5707C44 10.2009 44 14.8311 44 19.4613ZM18.6558 12.4429C18.6558 16.0495 18.6558 16.0008 21.8725 15.3185C27.38 14.1 32.9363 12.8815 38.4438 11.6631C42.0992 10.8832 42.0017 10.8832 42.0992 7.03287C42.1479 5.08331 41.4656 4.98584 39.8572 5.32701C33.7648 6.64296 27.6725 7.9589 21.5801 9.12863C19.3869 9.56728 17.876 10.1521 18.6558 12.4429ZM41.9042 29.9401C39.1749 31.7435 36.2018 30.7687 33.4724 31.5485C32.3027 31.8897 31.3766 32.4258 31.3279 33.7905C31.2792 35.1552 31.4254 36.4712 32.7901 37.1048C35.0808 38.177 37.5177 38.4207 39.8572 37.3485C42.0504 36.3249 42.0017 34.1317 42.0504 32.0847C42.0504 31.4998 41.953 30.9149 41.9042 29.9401ZM16.6088 34.814C13.8306 36.5199 10.9063 35.6913 8.27442 36.3737C7.00721 36.7148 6.03242 37.251 5.98368 38.7619C5.93494 40.2728 6.32484 41.4425 7.73827 42.1736C12.7096 44.6105 16.7062 42.1249 16.7062 36.6174C16.7062 36.1787 16.6575 35.6913 16.6088 34.814Z" fill="#2E2E2E"/>
</svg>
