<svg width="48" height="48" viewBox="0 0 48 48" fill="none" xmlns="http://www.w3.org/2000/svg">
<path d="M25.2165 5.48563C30.5359 3.75372 34.8657 6.84641 38.5769 11.7123C39.9789 13.5679 41.7108 15.1349 43.4015 16.7843C44.1025 17.4853 44.2262 17.9801 43.5665 18.8461C37.2986 26.8459 31.072 34.8456 24.8866 42.8866C24.268 43.7114 23.8969 43.8351 23.1959 42.9279C16.9693 34.8457 10.7014 26.7634 4.39229 18.6811C3.85622 18.0214 3.85623 17.609 4.47477 16.9492C7.89736 13.4029 11.3199 9.8154 14.7013 6.22787C15.2786 5.60933 15.8971 5.4444 16.6806 5.4444C19.1135 5.52687 21.5877 5.48563 25.2165 5.48563ZM23.9794 40.5362C27.237 32.99 30.2885 25.9799 33.3812 18.8461C26.9896 18.8461 20.8867 18.8461 14.5776 18.8461C17.6703 26.0212 20.7217 33.0313 23.9794 40.5362ZM32.7626 16.9492C29.8761 13.8153 27.237 11.0112 24.6391 8.20719C24.268 7.83607 23.9382 7.54743 23.4433 8.04226C20.763 10.9288 18.0826 13.7741 15.1549 16.908C21.2166 16.9492 26.7422 16.9492 32.7626 16.9492ZM41.5047 18.6811C39.6903 18.6811 38.3707 18.8049 37.0924 18.6399C35.6079 18.475 34.9481 19.1347 34.4121 20.4543C32.5977 24.8665 30.6596 29.2375 28.7627 33.6498C28.5153 34.2271 28.0205 34.7219 28.3092 35.6704C32.6802 30.021 36.9687 24.5366 41.5047 18.6811ZM6.57779 18.8048C11.0313 24.5366 15.3198 30.0623 19.5671 35.5467C18.2476 31.3818 16.5569 27.4644 14.825 23.5058C12.5982 18.3925 12.5982 18.3925 6.57779 18.8048ZM34.2059 9.60923C34.0822 9.6917 33.9585 9.73293 33.8348 9.81541C34.2884 12.0009 34.742 14.1452 35.1543 16.3307C35.278 16.908 35.6492 17.0729 36.1852 17.0729C37.711 17.0729 39.2367 17.0729 41.2573 17.0729C38.6594 14.2689 36.4326 11.9184 34.2059 9.60923ZM14.124 9.85663C14.0003 9.8154 13.8353 9.73294 13.7116 9.6917C11.4849 12.0422 9.25814 14.3514 6.70151 17.0317C8.72207 17.0317 10.1241 16.9905 11.5673 17.0317C12.3096 17.0317 12.6807 16.7843 12.8457 16.042C13.2168 13.9802 13.6704 11.9184 14.124 9.85663ZM32.6802 14.4338C32.8039 14.3926 32.9688 14.3514 33.0925 14.3101C32.6389 12.2483 32.2266 10.1865 31.8142 8.12474C31.6905 7.38249 31.3194 7.09384 30.5771 7.09384C29.1751 7.13508 27.7731 7.09384 25.9175 7.09384C28.3504 9.81542 30.4947 12.1246 32.6802 14.4338ZM14.8662 14.3101C14.9899 14.3514 15.1549 14.4338 15.2786 14.4751C17.4641 12.1246 19.6084 9.77417 22.0825 7.13507C20.1444 7.13507 18.7837 7.1763 17.4229 7.13507C16.6806 7.13507 16.3095 7.38248 16.1858 8.16597C15.7734 10.1865 15.3198 12.2483 14.8662 14.3101Z" fill="#2E2E2E"/>
</svg>
