<svg width="48" height="48" viewBox="0 0 48 48" fill="none" xmlns="http://www.w3.org/2000/svg">
<path d="M26.4688 4C29.6563 4 32.8438 4 36.0313 4C37.1469 5.59374 37.3063 7.3867 36.3102 8.98044C35.7922 9.77731 35.8719 10.1757 36.1907 10.8531C37.5852 13.8015 38.7407 16.8695 39.0594 20.0968C39.2586 22.1687 39.3383 23.6827 42.0078 23.1647C42.8445 23.0054 43.2828 24.0015 44 24.3202C44 25.9139 44 27.5077 44 29.1014C43.3227 29.9381 41.7289 29.8585 41.6492 31.0936C41.4899 34.7991 39.7766 38.1061 38.9 41.6123C38.4617 43.2857 37.4258 43.8834 35.6727 43.8834C27.9032 43.8037 20.1736 43.8037 12.4041 43.8834C10.7306 43.8834 9.69471 43.206 9.29628 41.692C8.34003 38.1858 6.62676 34.9186 6.54707 31.1733C6.54707 30.7749 6.50723 30.496 6.06895 30.2171C4.27599 29.1014 3.51896 26.5514 4.31583 24.639C4.63458 23.8421 5.23223 23.1647 6.06895 23.2046C7.54316 23.2843 7.66269 22.4476 7.9416 21.3718C9.1369 16.5109 13.7986 13.921 18.3408 15.3953C19.7353 15.8335 21.0501 17.5866 22.6837 15.7538C24.7556 16.8296 24.5962 15.0367 25.0345 13.9609C25.5126 12.8054 25.9907 11.65 26.5087 10.4945C26.7079 10.0562 26.8673 9.77731 26.4688 9.25935C25.1142 7.54608 25.3532 5.75312 26.4688 4ZM23.9587 42.2498C27.8235 42.2498 31.6485 42.21 35.5133 42.2896C36.5094 42.2896 37.1469 42.0506 37.4657 41.0545C38.2625 38.3053 39.2188 35.6358 39.936 32.8866C40.4938 30.6952 40.175 30.3366 37.9438 30.3366C37.2266 30.3366 36.4696 30.4163 35.7524 30.3366C34.6766 30.217 34.3977 30.6952 34.4376 31.6913C34.5172 34.1616 34.3977 36.592 34.4774 39.0623C34.5571 40.6561 33.6805 40.7357 32.4852 40.7357C31.2899 40.7357 30.4134 40.6959 30.4532 39.1022C30.5329 36.6319 30.493 34.2014 30.4532 31.7311C30.4532 31.1335 30.6923 30.2967 29.5766 30.3764C28.5805 30.4561 28.8993 31.1733 28.8993 31.6913C28.8595 34.1616 28.8196 36.592 28.8993 39.0623C28.9391 40.6162 28.1024 40.7357 26.9071 40.7357C25.7517 40.7357 24.7954 40.6959 24.8751 39.1022C24.9548 36.6319 24.9149 34.2014 24.8751 31.7311C24.8751 31.1335 25.154 30.2967 23.9985 30.3764C23.0025 30.4163 23.2814 31.1733 23.2814 31.6913C23.2415 34.1616 23.2017 36.592 23.2814 39.0623C23.3212 40.6162 22.5243 40.7756 21.2892 40.7357C20.1337 40.6959 19.1775 40.7357 19.2572 39.1022C19.3368 36.7115 19.297 34.3209 19.2572 31.9303C19.2572 31.3327 19.7353 30.2967 18.4204 30.3764C17.3048 30.4163 17.7033 31.3327 17.7033 31.8506C17.6634 34.042 17.6236 36.2334 17.7033 38.4248C17.7431 39.8592 17.6634 40.8154 15.7509 40.7756C13.9978 40.7357 13.5994 40.0982 13.6791 38.5045C13.7986 36.8709 13.7189 35.1975 13.7189 33.5241C13.7189 30.3366 13.7189 30.3366 10.4916 30.3366C7.98144 30.3366 7.66269 30.735 8.34003 33.2053C9.01737 35.6756 9.85409 38.1459 10.5713 40.6162C10.9299 41.9311 11.6869 42.3295 13.0416 42.2896C16.6673 42.1701 20.2931 42.2498 23.9587 42.2498ZM23.879 28.703C29.4571 28.703 35.0352 28.6632 40.6133 28.7428C42.2469 28.7827 42.4461 28.0655 42.4461 26.7108C42.4461 25.3561 42.207 24.6788 40.6133 24.6788C29.5766 24.7585 18.5798 24.7585 7.54316 24.6788C5.94942 24.6788 5.71036 25.3561 5.71036 26.7108C5.71036 28.0655 5.94942 28.7827 7.54316 28.7428C12.9619 28.6632 18.4204 28.703 23.879 28.703ZM37.625 21.6108C37.2266 17.9851 36.111 14.5585 34.5571 11.2117C33.9594 9.93669 33.1626 9.53825 31.8079 9.5781C28.461 9.65778 28.461 9.5781 27.2259 12.6859C26.7477 13.8414 26.3892 15.0765 25.9509 16.232C25.7118 16.8695 25.672 17.3077 26.3892 17.7062C29.5368 19.4195 32.6047 21.2523 35.7524 22.9257C36.8282 23.4835 37.8641 23.3241 37.625 21.6108ZM11.926 23.1249C14.5556 23.1249 14.5556 23.1249 16.3486 21.4116C17.1056 20.6944 17.8228 19.8976 18.6595 19.2601C20.1736 18.1046 19.4962 17.5866 18.1814 17.0687C15.233 15.9132 11.8463 16.989 10.2525 19.6984C9.69471 20.6546 8.93768 21.8499 9.45565 22.8062C9.89393 23.603 11.1689 22.9655 11.926 23.1249ZM17.0658 22.9655C22.2853 22.9655 27.1462 22.9655 32.4852 22.9655C29.218 21.1327 26.429 19.539 23.6001 17.9452C23.0821 17.6663 22.6837 17.5866 22.2056 18.0648C20.572 19.6585 18.8986 21.2124 17.0658 22.9655ZM31.2102 7.98435C32.1266 7.98435 33.0829 7.94451 33.9993 7.98435C34.9157 8.06404 35.2743 7.74529 35.2743 6.7492C35.2743 5.75312 34.8758 5.51405 33.9594 5.5539C32.1665 5.59374 30.3735 5.59374 28.5806 5.5539C27.7837 5.5539 27.2259 5.59374 27.2259 6.66952C27.2259 7.78514 27.6641 8.0242 28.6204 7.94451C29.4571 7.94451 30.3337 7.98435 31.2102 7.98435ZM16.2689 30.3764C15.8705 30.3764 15.5119 30.3764 15.1134 30.3764C15.1134 33.2452 15.1134 36.074 15.1134 38.9428C15.5119 38.9428 15.8705 38.9428 16.2689 38.9428C16.2689 36.1139 16.2689 33.2452 16.2689 30.3764ZM20.7712 38.9428C21.1298 38.9428 21.4884 38.9428 21.8071 38.9428C21.8071 36.074 21.8071 33.2452 21.8071 30.3764C21.4486 30.3764 21.09 30.3764 20.7712 30.3764C20.7712 33.2452 20.7712 36.1139 20.7712 38.9428ZM26.2696 38.9826C26.6681 38.9826 27.0267 38.9826 27.4251 38.9826C27.4251 36.1139 27.4251 33.285 27.4251 30.4163C27.0267 30.4163 26.6681 30.4163 26.2696 30.4163C26.2696 33.2452 26.2696 36.1139 26.2696 38.9826ZM31.8079 38.9826C32.1665 38.9826 32.5251 38.9826 32.8837 38.9826C32.8837 36.1139 32.8837 33.2452 32.8837 30.4163C32.5251 30.4163 32.1665 30.4163 31.8079 30.4163C31.8079 33.2452 31.8079 36.1139 31.8079 38.9826Z" fill="#2E2E2E"/>
</svg>
