<svg width="48" height="48" viewBox="0 0 48 48" fill="none" xmlns="http://www.w3.org/2000/svg">
<path d="M5.73148 31.2037C5.73148 30.1758 5.68679 29.1031 5.73148 28.0752C5.77617 26.4215 5.77615 24.902 4.25659 23.6952C3.27334 22.8908 3.04989 21.5053 3.04989 20.2092C3.04989 17.6617 3.0946 15.1589 3.00521 12.6114C2.96052 11.5387 3.18396 10.9577 4.43537 11.0024C6.8041 11.0918 9.21753 11.0471 11.5863 11.0024C12.5695 11.0024 12.8824 11.3153 12.8824 12.2985C12.8377 15.1142 12.8824 17.9745 12.8377 20.7902C12.8377 21.9522 12.5248 23.1589 11.631 23.8293C10.1114 24.9467 10.1114 26.3768 10.1561 27.9411C10.2008 30.3992 10.1561 32.8573 10.1561 35.3155C10.1561 35.8965 10.1561 36.5222 10.0667 37.1032C9.84322 38.3099 9.57508 39.5613 8.01082 39.606C6.31248 39.606 5.95497 38.2652 5.86558 37.0138C5.7315 35.092 5.82084 33.1702 5.82084 31.2037C5.77615 31.2037 5.77617 31.2037 5.73148 31.2037ZM10.6477 12.9242C10.022 14.5778 10.3349 16.3209 10.2008 18.0192C10.1561 18.7343 10.4242 19.7623 9.39629 19.8069C8.14489 19.8963 8.45776 18.7343 8.41307 17.9745C8.27899 16.2762 8.63653 14.5332 7.96614 12.8795C7.34043 14.5778 7.60859 16.3209 7.5192 18.0192C7.47451 18.7343 7.69796 19.7623 6.71471 19.8069C5.50799 19.8516 5.82087 18.6896 5.73148 17.9745C5.5974 16.2762 6.04435 14.5332 5.19518 12.2538C4.56948 14.846 4.927 16.8125 4.83762 18.7343C4.70354 20.6561 4.92698 22.4438 6.71471 23.6952C7.51918 24.2763 7.5192 25.2148 7.5192 26.1534C7.5192 29.1925 7.51919 32.2763 7.56389 35.3155C7.56389 35.8965 7.25105 36.6562 8.41307 37.1479C8.41307 33.4383 8.41307 29.997 8.41307 26.5109C8.41307 25.6171 8.18962 24.5444 8.9941 24.0081C10.9159 22.6673 11.2287 20.8349 11.0947 18.7343C10.9606 16.8125 11.3181 14.846 10.6477 12.9242Z" fill="#2E2E2E"/>
<path d="M25.8434 37.863C18.7372 37.863 12.8824 32.0976 12.8824 24.9913C12.8377 17.7958 18.6925 11.941 25.9328 11.941C33.039 11.9856 38.8044 17.7958 38.8044 24.9467C38.7597 32.0529 32.9943 37.863 25.8434 37.863ZM25.9328 13.7287C19.7204 13.684 14.7148 18.6449 14.6701 24.8573C14.6701 30.9802 19.5417 35.9859 25.6199 36.0305C31.8323 36.1199 36.9273 31.2037 36.972 24.9913C37.0614 18.8237 32.1451 13.7734 25.9328 13.7287Z" fill="#2E2E2E"/>
<path d="M46 20.0751C45.9106 20.7008 45.9106 21.6394 45.5531 22.3991C43.8547 25.9746 44.1229 29.7735 44.1676 33.5277C44.1676 35.0026 44.1676 36.5222 43.7653 37.9524C43.4972 38.8015 43.095 39.5166 42.1564 39.5613C41.1285 39.606 40.5027 38.9356 40.2346 37.997C40.0111 37.1479 39.7876 36.254 39.7876 35.3601C39.743 27.8517 39.743 20.3433 39.743 12.8348C39.743 12.2538 39.6089 11.5834 40.1899 11.2259C40.905 10.7342 41.486 11.3153 41.9776 11.6728C44.7486 13.684 45.7318 16.5443 46 20.0751ZM41.7095 13.9075C41.7095 21.6841 41.7095 29.0584 41.7095 36.4775C42.2458 35.673 42.3352 34.8685 42.3352 34.0194C42.3799 29.8629 42.2011 25.7958 43.81 21.7734C44.8827 19.0919 43.9441 16.4103 41.7095 13.9075Z" fill="#2E2E2E"/>
<path d="M25.8881 33.3937C21.5528 33.4383 17.8433 30.0864 17.3964 25.7958C16.9495 21.5053 19.8992 17.4829 24.145 16.589C24.9048 16.4103 25.9775 16.0974 26.1562 17.2147C26.335 18.2427 25.2624 18.1533 24.592 18.3321C21.0165 19.2706 18.8713 22.0863 19.1841 25.483C19.4523 28.7009 22.0892 31.3378 25.2624 31.6059C28.6143 31.9188 31.4747 29.7735 32.4133 26.1981C32.592 25.5277 32.458 24.455 33.4859 24.5891C34.6479 24.7679 34.2904 25.7958 34.1563 26.6003C33.3965 30.4886 29.8658 33.349 25.8881 33.3937Z" fill="#2E2E2E"/>
</svg>
