<svg width="48" height="48" viewBox="0 0 48 48" fill="none" xmlns="http://www.w3.org/2000/svg">
<path d="M4.03994 37.3787C6.15717 34.2627 8.15458 31.027 10.7911 28.2706C14.3065 24.5554 18.3812 21.799 23.5744 21.1598C24.4533 21.04 24.9326 20.8802 24.8528 19.8815C24.8128 19.6418 24.9326 19.3222 25.0924 19.1225C26.7702 16.7656 29.247 18.0839 31.3643 17.8841C32.6426 17.7643 33.4815 18.723 33.5614 20.0014C33.6013 21.5593 34.7199 20.9601 35.399 21.0001C38.6747 21.0799 39.1141 20.3609 37.5961 17.2849C36.2379 14.5285 33.1619 13.2502 30.2058 14.2888C26.9301 15.4473 23.6144 15.8867 20.2188 15.0079C18.3413 14.5285 16.7434 13.6097 15.8246 11.812C14.9457 10.1742 15.5849 9.05565 17.4225 9.05565C22.6157 9.0157 27.8089 8.9358 33.0021 9.09559C39.5136 9.29533 43.5883 13.41 43.8679 20.241C44.1076 25.674 43.9478 31.1468 43.9478 36.6197C43.9478 38.0578 43.2288 38.657 41.8306 38.657C29.6465 38.657 17.4624 38.657 5.31825 38.657C4.83888 38.657 4.39948 38.5372 4 38.2575C4.03995 37.898 4.03994 37.6583 4.03994 37.3787ZM8.95354 32.9844C20.0191 32.9844 30.6053 32.9844 41.1914 32.9844C42.1502 32.9844 42.4298 32.6648 42.4298 31.7061C42.3899 29.2293 42.3499 26.7925 42.4298 24.3157C42.5097 22.9175 42.1102 22.5181 40.6721 22.5181C35.8783 22.598 31.0846 22.598 26.2909 22.558C18.541 22.4781 13.5475 26.9123 8.95354 32.9844ZM6.51668 36.9792C14.9457 36.9792 23.175 36.9792 31.4042 36.9792C34.6 36.9792 37.7959 36.8993 40.9917 37.0191C42.4298 37.0591 42.5097 36.38 42.3899 35.3413C42.27 34.1029 41.2713 34.6223 40.6721 34.6223C30.3655 34.5823 20.059 34.6622 9.7525 34.5424C7.99479 34.5024 7.07595 35.1416 6.51668 36.9792ZM17.1428 10.6536C17.9418 12.4113 19.2201 13.0504 20.6582 13.41C23.6543 14.169 26.6104 13.8494 29.4867 12.8107C30.8849 12.3314 32.2831 12.0118 33.7611 12.4113C37.6361 13.41 39.5136 16.0465 39.9531 19.8416C40.0729 21.04 40.6322 21.04 41.511 21.04C42.6296 21.04 42.3899 20.3209 42.3499 19.6818C41.8706 14.2888 38.6747 10.9332 33.4415 10.7335C28.0486 10.4938 22.7355 10.6536 17.1428 10.6536ZM29.3269 21.0001C29.8063 21.0001 30.2457 21.04 30.7251 21.0001C31.2444 20.9202 32.0434 21.3196 32.0034 20.281C31.9635 19.4421 31.3643 19.4021 30.7251 19.4021C29.6465 19.4021 28.6079 19.4021 27.5293 19.4021C26.9301 19.4021 26.4906 19.6019 26.4507 20.281C26.4107 21.1598 27.0499 20.9601 27.5293 21.0001C28.1285 21.04 28.7277 21.0001 29.3269 21.0001Z" fill="#2E2E2E"/>
<path d="M24.8128 28.1507C24.693 29.1095 24.1737 29.7486 23.175 29.7486C22.2961 29.7087 21.6969 29.1494 21.6969 28.2306C21.6969 27.2319 22.2961 26.6327 23.2948 26.6327C24.1736 26.6327 24.653 27.2719 24.8128 28.1507Z" fill="#2E2E2E"/>
<path d="M28.7677 26.5927C29.6865 26.7126 30.2857 27.192 30.3256 28.0708C30.3656 29.0695 29.7664 29.7087 28.7677 29.7087C27.8888 29.7087 27.2496 29.1494 27.2097 28.2706C27.2097 27.2719 27.8489 26.7525 28.7677 26.5927Z" fill="#2E2E2E"/>
<path d="M34.4802 29.7886C33.5614 29.7087 32.9222 29.2693 32.8423 28.3904C32.7225 27.3917 33.3217 26.7126 34.2804 26.6726C35.2791 26.5927 35.8784 27.2319 35.9183 28.2306C35.9583 29.1095 35.359 29.5888 34.4802 29.7886Z" fill="#2E2E2E"/>
</svg>
