<svg width="48" height="48" viewBox="0 0 48 48" fill="none" xmlns="http://www.w3.org/2000/svg">
<path d="M37.0074 24.2063C37.0074 29.3078 37.0074 34.3592 37.0074 39.4606C37.0074 43.7619 34.8067 45.9125 30.6055 45.9625C26.3543 46.0125 22.1031 46.0125 17.8519 45.9625C13.5507 45.9125 11 43.4118 11 39.1606C11 29.1077 11 19.0048 11 8.95197C11 4.35067 13.3506 2 17.8519 2C21.9531 2 26.0042 2 30.1054 2C34.9068 2 37.0074 4.05059 37.0074 8.80194C37.0074 13.9034 37.0074 19.0548 37.0074 24.2063ZM35.0068 23.9062C35.0068 18.7548 35.0068 13.6033 35.0068 8.40181C35.0068 5.30093 33.7064 4.00057 30.6055 3.95055C26.4544 3.90054 22.3032 3.95055 18.102 3.95055C14.501 3.95055 13.0006 5.50099 13.0006 9.15203C13.0006 19.0548 13.0006 28.9577 13.0006 38.8605C13.0006 42.3114 14.601 43.9119 18.002 43.9119C22.1532 43.9619 26.3044 43.9619 30.5055 43.9119C33.7065 43.9119 35.0068 42.6115 35.0068 39.3106C35.0068 34.2092 35.0068 29.0577 35.0068 23.9062Z" fill="#2E2E2E"/>
<path d="M33.0063 23.4561C33.0063 28.2074 32.9562 32.9588 33.0563 37.6601C33.1063 39.3606 32.5561 40.0108 30.7556 40.0108C26.2543 39.9108 21.753 39.9108 17.3018 40.0108C15.5513 40.0608 15.0011 39.4606 15.0011 37.7102C15.0512 28.2074 15.0512 18.7548 15.0011 9.25206C15.0011 7.55158 15.5013 6.90139 17.3018 6.95141C21.8031 7.05144 26.3044 7.05144 30.7556 6.95141C32.5061 6.90139 33.1063 7.50157 33.0563 9.25206C32.9562 13.9534 33.0063 18.7047 33.0063 23.4561ZM31.0057 23.3561C31.0057 19.1049 30.9557 14.8536 31.0557 10.6024C31.0557 9.30207 30.7556 8.85194 29.4053 8.90196C25.8042 9.00199 22.2532 9.00199 18.6522 8.90196C17.2518 8.85194 17.0017 9.4021 17.0017 10.6525C17.0517 19.1549 17.0517 27.6573 17.0017 36.1097C17.0017 37.5101 17.3518 38.0102 18.8022 37.9602C22.2032 37.8602 25.6542 37.8102 29.0551 37.9602C30.7556 38.0102 31.1057 37.3601 31.1057 35.8096C30.9556 31.7085 31.0057 27.5573 31.0057 23.3561Z" fill="#2E2E2E"/>
<path d="M24.0537 43.4118C23.2035 43.3617 22.6533 42.9116 22.5533 42.1114C22.4533 41.2611 23.0034 40.661 23.8036 40.561C24.7539 40.4609 25.3541 41.0111 25.4041 41.9614C25.4541 42.8116 24.9039 43.2617 24.0537 43.4118Z" fill="#2E2E2E"/>
</svg>
