<svg width="48" height="48" viewBox="0 0 48 48" fill="none" xmlns="http://www.w3.org/2000/svg">
<path d="M23.8501 43.9789C19.095 43.9789 14.3398 43.9789 9.58469 43.9789C5.82812 43.9789 4.02113 42.1719 4.02113 38.4629C4.02113 28.81 3.97358 19.1095 4.02113 9.45654C4.02113 5.89018 5.87564 4.08322 9.48955 4.03566C19.1425 3.98811 28.843 3.98811 38.4959 4.03566C42.1098 4.03566 43.9643 5.84263 43.9643 9.45654C44.0119 19.2046 44.0119 28.9526 43.9643 38.7007C43.9643 42.1244 42.0623 43.9313 38.6386 43.9789C33.6457 44.0264 28.7479 43.9789 23.8501 43.9789ZM35.3575 5.93772C38.3057 8.55305 38.3533 8.60061 36.4512 11.2635C35.738 12.2621 35.9281 12.7376 36.8316 13.3557C37.4022 13.7361 37.9253 14.3068 38.4959 14.6396C40.2078 15.6858 40.1603 16.6844 38.8288 18.1584C34.2163 23.3891 29.794 28.7624 25.1815 33.9931C23.1368 36.3231 24.1829 38.9384 24.0403 41.4586C23.9927 42.2195 24.8487 42.0293 25.3717 42.0293C29.8891 42.0293 34.4065 42.0768 38.9239 42.0293C40.9211 42.0293 42.0623 40.9356 42.0623 38.9384C42.1098 28.9526 42.1098 19.0144 42.0623 9.02856C42.0623 7.0314 40.9211 5.98527 38.9239 5.93772C37.8778 5.93772 36.8792 5.93772 35.3575 5.93772ZM12.4853 5.93772C11.0112 5.93772 10.1553 5.89017 9.25179 5.93772C6.92177 6.03282 5.87565 6.9363 5.87565 9.26632C5.8281 19.1095 5.8281 28.9051 5.87565 38.7482C5.87565 41.0307 6.92177 42.0293 9.25179 42.0768C11.8671 42.1244 14.4825 42.0768 17.0978 42.0768C22.0431 42.0768 21.8529 42.0768 22.0907 37.179C22.2333 34.5637 21.5201 32.6141 19.7131 30.6645C15.909 26.5275 12.3902 22.1528 8.6812 17.9207C7.68262 16.7795 7.53997 15.9235 8.87142 15.0676C9.39448 14.7347 9.82242 14.2117 10.393 13.9264C12.0098 12.9753 12.1049 11.9292 10.7735 10.6929C9.29938 9.31387 9.58464 8.12509 11.2014 7.12651C11.5818 6.8412 11.8196 6.55589 12.4853 5.93772ZM25.3717 30.3316C25.4668 30.3792 25.6095 30.4743 25.7046 30.5218C29.5087 26.0995 33.3128 21.6772 37.0694 17.255C37.9729 16.2088 36.7841 15.9235 36.3086 15.4955C35.4051 14.5921 34.0737 13.9739 33.5982 12.9278C33.0275 11.5963 34.6918 10.8355 35.2625 9.74184C36.1659 7.93488 34.2163 8.02998 33.5982 7.26916C33.0275 6.50833 32.5995 6.98385 32.3618 7.74467C30.0793 15.2578 27.7018 22.7709 25.3717 30.3316ZM22.0907 30.5694C21.8054 29.333 21.7103 28.7624 21.5201 28.1918C19.5705 21.6772 17.6209 15.1627 15.6237 8.64816C15.4335 8.07754 15.5761 6.84119 14.6727 7.0314C13.8167 7.2216 13.1034 8.02999 12.3902 8.64816C11.6294 9.31388 12.4853 9.78939 12.8181 10.2174C14.958 12.9278 14.9104 12.6425 12.0573 14.9725C11.6294 15.3054 11.2014 15.6858 10.7735 16.0186C10.2029 16.4466 10.2028 16.827 10.6783 17.3501C14.3873 21.5346 18.0488 25.8142 22.0907 30.5694ZM23.755 28.4771C27.0836 21.1066 27.0836 17.5403 23.9927 13.8788C19.4754 18.5389 21.9956 23.4367 23.755 28.4771ZM19.9984 16.2088C20.9019 14.069 23.6123 12.3572 22.1382 9.97959C21.0445 8.26774 20.474 5.22446 16.9552 6.12794C17.9537 9.50409 18.9523 12.8802 19.9984 16.2088ZM27.6542 16.4941C28.6528 13.3082 29.5563 10.5027 30.3646 7.74467C30.5073 7.17405 31.1255 6.41323 30.4122 6.08037C29.6989 5.79506 28.7003 5.65242 28.0821 6.60345C27.2738 7.79224 26.4654 8.93347 25.6095 10.0747C25.1815 10.6453 25.2291 11.2159 25.5144 11.8341C26.1326 13.2131 26.7983 14.6396 27.6542 16.4941ZM25.9423 6.08037C24.5158 6.08037 23.327 6.08037 22.0431 6.08037C22.5187 7.17405 23.0417 8.50551 23.8501 8.50551C24.9438 8.55306 25.2766 7.1265 25.9423 6.08037Z" fill="#2E2E2E"/>
<path d="M28.6528 38.6056C28.5101 39.5091 28.0821 40.0797 27.3213 40.0797C26.4178 40.0797 25.8472 39.5091 25.8948 38.6056C25.9423 37.8448 26.4654 37.3217 27.3213 37.3692C28.1772 37.4168 28.5101 37.9874 28.6528 38.6056Z" fill="#2E2E2E"/>
</svg>
