<svg width="48" height="48" viewBox="0 0 48 48" fill="none" xmlns="http://www.w3.org/2000/svg">
<path d="M4 13.2127C4.83665 11.9378 6.07171 11.5394 7.58566 11.5793C10.6534 11.6589 13.6813 11.5394 16.749 11.6191C18.1036 11.6589 18.5418 11.2207 18.3825 9.94577C18.3028 9.50753 18.3825 9.02944 18.3825 8.55135C18.2629 6.79836 19.0199 5.96173 20.8526 6.00157C22.9243 6.04141 24.9562 6.04141 27.0279 6.00157C28.7809 5.96173 29.6573 6.67884 29.5777 8.47167C29.5378 8.94975 29.6175 9.42784 29.5777 9.86609C29.3785 11.2605 29.8964 11.6988 31.3307 11.6191C34.5179 11.4996 37.7052 11.5793 40.8924 11.5793C43.0438 11.5793 43.9203 12.4557 43.9602 14.5673C44 22.6549 43.9602 30.7426 44 38.8701C44 40.2247 43.3626 41.1012 42.3665 41.8581C30.0558 41.8581 17.745 41.8581 5.43425 41.898C4.35856 41.898 4.07966 41.7386 4.07966 40.5832C4.03982 31.4996 4 22.3362 4 13.2127ZM23.7609 40.3043C29.1793 40.3043 34.6374 40.2645 40.0558 40.3442C41.6096 40.384 42.2868 40.0255 42.2868 38.2725C42.2072 30.5832 42.2072 22.894 42.2868 15.2047C42.2868 13.8103 41.9681 13.2127 40.4143 13.2127C29.4183 13.2526 18.4223 13.2526 7.38645 13.2127C5.95219 13.2127 5.59363 13.7306 5.59363 15.0852C5.63347 22.8541 5.67331 30.5832 5.59363 38.3521C5.59363 39.9856 6.15137 40.384 7.66532 40.3442C13.004 40.2645 18.3825 40.3043 23.7609 40.3043ZM24 11.6191C24.4781 11.6191 24.9163 11.6191 25.3944 11.6191C27.984 11.6191 27.9044 11.6191 27.9442 9.10913C27.9442 8.03343 27.7052 7.55534 26.51 7.63502C24.996 7.7147 23.4422 7.79439 21.9681 7.63502C20.2948 7.47566 19.8566 8.07327 19.8964 9.70674C19.9363 11.1808 20.2152 11.9378 21.8486 11.6589C22.5259 11.5394 23.2828 11.6191 24 11.6191Z" fill="#2E2E2E"/>
<path d="M26.1912 29.3481C26.1115 27.9936 26.749 27.5553 27.5458 27.2366C30.3745 26.1211 33.243 25.0454 36.0717 23.9697C37.3864 23.4517 38.1434 23.9298 38.7012 25.2047C40.8525 30.0653 40.8525 30.0653 35.9123 31.9378C34 32.6549 32.0478 33.372 30.1753 34.129C28.98 34.6071 28.1036 34.3282 27.6255 33.0932C27.0279 31.7386 26.5498 30.384 26.1912 29.3481ZM29.3784 32.6948C29.976 32.4956 30.3346 32.376 30.733 32.2167C32.7251 31.4597 34.7171 30.7426 36.6693 29.9458C37.2669 29.7067 38.4223 29.7465 38.2629 28.7904C38.1036 27.7147 37.5458 26.6788 37.0677 25.6828C36.9083 25.3641 36.4701 25.5633 36.1513 25.6828C33.6812 26.5991 31.2111 27.5553 28.741 28.4716C28.0637 28.7107 27.745 29.1091 28.1036 29.8262C28.502 30.7824 28.5816 31.9776 29.3784 32.6948Z" fill="#2E2E2E"/>
<path d="M25.0757 16.4C27.506 16.4 29.498 18.4318 29.4582 20.8222C29.4183 23.1728 27.4661 25.0852 25.1155 25.1251C22.6853 25.1251 20.6932 23.0932 20.7331 20.7027C20.7729 18.3521 22.7251 16.4398 25.0757 16.4ZM25.1155 17.9936C23.6016 17.9936 22.3267 19.2685 22.3267 20.7426C22.3267 22.2565 23.6016 23.5314 25.0757 23.5314C26.5896 23.5314 27.8645 22.2565 27.8645 20.7824C27.9044 19.3083 26.6295 18.0334 25.1155 17.9936Z" fill="#2E2E2E"/>
</svg>
